<svg width="274" height="106" viewBox="0 0 274 106" fill="none" xmlns="http://www.w3.org/2000/svg">
<g clip-path="url(#clip0_158_454)">
<path d="M216.201 77.9906C220.335 82.9747 227.201 86.6953 233.786 84.8701C239.601 83.2555 242.754 77.8502 245.066 72.7257C246.817 68.8648 248.639 62.1257 253.543 61.2131C257.256 60.5814 260.829 63.8105 263.561 65.8463C266.153 67.7416 268.676 69.7072 271.688 70.9006C271.758 68.3734 271.968 65.9165 272.108 63.3893C271.478 63.0383 270.847 62.6873 270.287 62.2661C265.383 58.9668 260.829 54.1933 254.454 54.1933C243.034 54.1933 241.353 66.8992 236.378 74.4105C232.735 79.886 226.78 78.9032 222.437 74.5509C217.042 69.2158 215.221 61.2132 210.106 55.6675C205.903 51.1747 199.598 48.0158 193.362 49.7006C188.108 51.1747 184.745 55.5271 182.013 59.9496C178.93 64.7933 176.268 70.4794 170.383 72.2343C163.447 74.2701 156.371 71.041 151.187 66.4781C145.652 61.5641 142.149 54.3337 135.844 50.2622C130.87 47.033 124.284 46.4714 118.75 48.3668C112.444 50.543 108.521 55.3867 105.999 61.4237C103.477 67.4608 101.655 73.9893 95.0698 76.6569C89.4651 78.9032 83.44 77.7098 79.0964 73.6383C74.6126 69.4966 71.7402 63.9509 67.2565 59.8092C61.932 54.8953 55.2764 52.9297 48.1304 54.4039C40.1437 56.0887 34.6091 61.3536 29.7049 67.3906C24.5907 73.7085 18.1452 78.3416 9.59807 76.4463C6.09512 75.6741 3.0826 73.7787 0.840715 71.2516C0.56048 73.9893 0.350303 76.7973 0.0700681 79.535C5.39454 83.0449 11.9801 84.5893 18.7057 83.1853C25.9218 81.7112 30.8259 77.0079 35.2396 71.392C39.7234 65.7761 45.3981 60.7218 53.0345 60.792C59.9703 60.9324 64.2439 66.4079 68.0972 71.4622C71.8803 76.3059 75.8036 81.2198 81.7586 83.4661C87.5735 85.6423 94.2992 85.0105 99.6937 82.1324C105.929 78.833 108.801 73.0065 111.253 66.6886C113.846 60.1602 117.349 54.4039 125.125 54.2635C133.112 54.1933 136.965 61.2833 141.589 66.6886C150.346 76.9377 166.39 85.4317 178.72 75.6039C186.006 69.7774 191.541 48.8582 203.591 59.1774C209.476 64.1615 211.367 72.2343 216.201 77.9906Z" fill="black"/>
<path d="M101.936 53.7018C105.509 48.9283 106.7 42.7508 110.693 38.2581C118.75 29.2024 132.761 27.0965 142.85 33.6952C148.735 37.5561 152.938 43.4528 156.722 49.2793C160.014 54.3336 164.218 58.4753 170.803 56.8607C177.389 55.2461 180.752 49.3495 183.764 43.874C186.987 38.0475 191.471 33.8356 198.336 33.2038C205.202 32.572 210.877 36.0819 214.87 41.417C218.233 45.9799 219.915 53.421 225.659 55.6673C233.226 58.6859 238.27 50.5428 241.493 45.0673C245.206 38.8197 249.83 29.764 258.237 29.6938C264.752 29.6236 268.395 36.8541 273.089 40.715C273.089 37.4157 273.019 34.1865 272.949 30.8872C268.956 26.6051 264.472 22.674 258.237 22.7442C251.651 22.8144 245.836 26.8157 241.843 31.7998C239.881 34.2567 238.27 36.9243 236.659 39.5918C234.977 42.47 233.366 46.2607 230.704 48.3667C227.551 50.8236 226.01 46.8223 224.749 44.3653C223.277 41.5574 221.666 38.8197 219.634 36.2925C215.921 31.5892 210.807 27.7985 204.852 26.6051C199.177 25.4819 193.222 26.4647 188.108 29.2024C182.223 32.3614 179.351 37.6965 176.128 43.3124C174.587 45.9799 172.835 48.6475 169.823 49.8408C166.25 51.2448 164.358 48.5071 162.606 45.7693C159.104 40.364 155.32 34.9587 150.346 30.817C141.379 23.2356 129.539 20.6382 118.469 24.8501C113.215 26.8157 108.381 29.9746 104.808 34.3971C101.025 39.0303 99.7637 45.1375 96.1207 49.8409C91.9171 55.3163 85.2615 53.6316 81.9688 48.2965C78.9562 43.4528 75.6635 39.3813 70.6893 36.4329C59.7601 29.9746 45.6083 30.6064 35.6599 38.5389C29.9851 43.0316 25.5014 49.0687 18.0051 50.613C12.6806 51.666 7.14597 50.613 2.59215 47.8051C2.45203 50.3322 2.24185 52.7892 2.03168 55.3164C10.1585 59.0369 19.8967 58.8965 27.7433 54.123C33.5581 50.613 37.5515 44.7163 43.5065 41.4872C48.3405 38.8899 54.2255 38.3283 59.62 39.4514C65.1547 40.6448 70.4791 43.6634 73.842 48.2965C77.5551 53.4912 79.9371 58.6859 86.8729 59.8793C92.968 60.9322 98.3625 58.4051 101.936 53.7018Z" fill="black"/>
<path d="M93.5986 31.5893C99.5536 31.2383 102.846 25.9734 105.368 21.2701C110.973 11.0211 122.183 5.75617 133.742 7.01974C146.073 8.35352 154.62 16.286 162.536 25.131C165.969 28.9217 171.014 32.0807 176.058 29.2727C180.822 26.6052 184.044 21.0595 187.898 17.2687C192.101 13.127 197.145 10.1787 203.171 11.3721C209.196 12.5654 214.52 16.637 218.934 20.7787C222.997 24.5694 227.481 30.4661 233.786 27.7985C238.62 25.7628 239.951 20.0065 241.563 15.584C244.085 8.8449 250.32 5.89656 257.326 7.16013C262.721 8.07271 268.045 9.96808 273.229 11.8634C273.369 9.54688 273.58 7.23033 273.86 4.84357C270.147 3.58 266.504 2.38662 262.721 1.33364C256.906 -0.280925 250.74 -0.842506 245.136 1.82504C240.232 4.1416 236.939 8.35351 235.047 13.3376C233.856 16.5668 232.595 24.078 228.111 20.0767C219.704 12.5654 210.737 3.01842 198.266 4.282C192.732 4.84359 188.038 7.58133 184.044 11.3019C182.223 12.9866 180.542 14.882 178.86 16.7774C177.319 18.5323 174.727 22.674 172.345 23.3058C170.173 23.8674 167.931 20.7787 166.74 19.3747C164.778 17.0581 162.887 14.8118 160.715 12.776C156.581 8.9151 151.887 5.68596 146.703 3.43961C136.615 -0.982907 125.335 -1.40409 115.247 3.01842C110.413 5.12438 106.069 8.35352 102.776 12.4952C100.604 15.233 96.3309 26.8158 91.707 24.1482C89.6753 22.9548 87.9939 20.1469 86.2424 18.5323C84.2107 16.637 81.9688 14.882 79.6569 13.3376C75.2432 10.3893 70.339 8.07273 65.2948 6.52836C54.0153 3.08862 41.4748 3.86081 31.3863 10.3191C25.5715 14.0396 20.7374 19.4449 14.3621 22.3231C11.2795 23.727 7.07594 24.429 3.64306 23.3058C3.64306 25.6224 3.64306 27.9389 3.573 30.3257C9.10764 31.3787 15.2728 29.9045 20.247 27.0264C25.5715 23.8674 29.9852 19.3045 35.3096 16.0052C40.0036 13.127 45.328 11.5827 50.7926 11.4423C61.7919 11.1615 72.8612 15.7946 80.988 23.1654C84.7712 26.6754 87.7837 31.9403 93.5986 31.5893Z" fill="black"/>
<path d="M260.899 87.7483C265.803 87.3271 269.516 91.8198 274 93.8555C273.65 93.4343 273.299 93.0132 273.229 92.4516C272.599 89.9244 272.249 87.3271 271.968 84.7999C271.548 84.5191 271.198 84.3085 270.987 84.0979C266.574 81.1496 261.67 79.7456 256.485 81.641C251.581 83.4661 247.868 87.1165 244.435 90.9072C240.932 94.7681 237.009 99.2608 231.334 99.0502C225.309 98.8396 219.774 94.6277 215.221 91.0476C212.769 89.1522 210.457 87.1867 208.215 85.1509C206.253 83.3257 204.362 81.0794 202.05 79.6754C197.286 76.9377 192.452 80.7284 188.808 83.6767C184.605 87.0463 180.682 91.3986 175.287 92.7324C163.587 95.6105 153.989 85.2913 146.633 77.8503C143.27 74.4105 138.646 71.1814 133.602 72.5152C128.628 73.8489 126.386 78.9734 123.163 82.5536C107.54 99.682 81.2682 99.1204 65.505 82.7642C61.3715 78.4118 56.7476 76.2357 50.6525 77.5695C44.6275 78.9032 40.2138 83.1854 35.6599 87.1165C30.1253 91.89 24.3805 93.4344 17.1644 93.0132C11.6298 92.6622 3.92329 92.5218 0.140117 87.8887C0.140117 87.7483 0.070058 87.6781 -8.06827e-07 87.6079C0.070058 88.1695 0.0700581 88.8012 0.140117 89.3628C0.420352 91.8198 0.770646 94.2065 0.910764 96.6635C0.910764 96.7337 0.910764 96.8039 0.910764 96.8039C3.573 97.9973 6.51547 98.5589 9.38788 98.9801C15.1327 99.7522 20.9476 100.384 26.6924 99.331C32.5073 98.2781 37.0611 94.9787 41.4748 91.188C45.3981 87.7483 51.7034 81.641 57.4482 84.7297C59.62 85.9231 61.1613 88.2397 62.9128 89.9244C65.0846 91.9602 67.5367 93.8555 70.0588 95.3999C74.7527 98.3483 80.0772 100.454 85.4717 101.507C96.2608 103.613 107.47 101.788 116.998 96.3125C121.832 93.5748 126.246 89.9244 129.749 85.5721C131.22 83.7469 132.481 81.0794 134.513 79.8158C137.315 78.0608 140.328 81.4304 142.149 83.2555C149.926 91.3986 159.104 99.7522 171.014 100.173C176.478 100.384 181.592 98.2781 185.936 95.0489C188.038 93.5046 189.999 91.7496 192.031 90.0648C193.152 89.082 194.343 88.1695 195.534 87.3271C196.865 86.4145 197.916 85.5721 199.387 86.4145C201.839 87.8887 204.011 90.837 206.253 92.7324C208.915 94.9787 211.648 97.1549 214.52 99.1906C219.214 102.56 224.468 105.509 230.283 106C236.519 106.561 241.773 103.473 246.117 99.2608C250.25 95.1191 254.524 88.3098 260.899 87.7483Z" fill="black"/>
</g>
<defs>
<clipPath id="clip0_158_454">
<rect width="106" height="274" fill="white" transform="translate(0 106) rotate(-90)"/>
</clipPath>
</defs>
</svg>
