<svg width="396" height="512" viewBox="0 0 396 512" fill="none" xmlns="http://www.w3.org/2000/svg">
<path d="M334.427 74.0112C262.202 26.9639 60.7754 153.786 60.7746 252.212C60.7753 317.531 95.4447 423.722 176.229 454.954C217.245 470.811 312.673 444.635 334.426 430.47C399.026 388.403 406.651 121.058 334.427 74.0112Z" fill="#53A3FF"/>
<mask id="mask0_0_554" style="mask-type:alpha" maskUnits="userSpaceOnUse" x="60" y="63" width="326" height="397">
<path d="M334.427 74.0112C262.202 26.9639 60.7754 153.786 60.7746 252.212C60.7753 317.531 95.4447 423.722 176.229 454.954C217.245 470.811 312.673 444.635 334.426 430.47C399.026 388.403 406.651 121.058 334.427 74.0112Z" fill="#53A3FF"/>
</mask>
<g mask="url(#mask0_0_554)">
<path d="M137.67 386.807C137.232 390.096 136.683 393.386 136.245 396.674C133.175 418.71 127.254 440.198 119.58 461.137C118.922 462.891 118.045 464.536 117.058 466.068C116.729 466.624 115.633 467.17 115.084 466.95C114.426 466.835 113.988 465.852 113 464.756C115.962 465.084 116.4 463.44 116.839 461.905C122.869 443.597 128.461 425.178 131.859 406.103C133.175 398.648 134.162 391.193 135.368 383.738C135.587 382.093 135.368 380.668 134.71 379.134C126.706 361.263 120.348 342.735 116.51 323.331C114.098 311.6 112.563 299.869 113.111 287.81C113.221 285.728 113.55 283.645 114.208 281.671C115.304 278.272 118.264 277.395 121.005 279.698C122.759 281.232 124.294 283.315 125.61 285.399C129.009 290.77 131.092 296.691 132.956 302.83C136.025 313.026 137.78 323.441 138.876 334.074C139.754 342.955 140.082 351.725 139.863 360.606C139.754 365.648 139.314 370.801 138.876 375.844C138.767 377.598 138.986 379.243 139.754 380.888C144.249 390.426 149.182 399.744 155.103 408.405C158.282 413.119 161.791 417.614 165.957 421.561C168.808 424.301 171.877 426.823 175.386 428.577C180.759 431.208 186.131 431.428 191.613 429.125C195.34 427.591 198.52 425.398 201.48 422.767C206.524 418.272 210.58 413.119 214.308 407.528C223.298 393.934 229.547 379.134 233.933 363.566C235.249 359.071 236.125 354.576 237.332 350.081C237.551 349.094 237.442 348.217 236.894 347.34C226.259 330.128 219.57 311.161 213.979 291.867C208.606 273.119 204.769 254.044 201.809 234.858C199.726 220.935 197.971 206.902 196.217 192.87C195.12 183.989 194.573 175 194.902 166.119C195.011 163.488 195.449 160.857 195.998 158.336C196.217 157.13 196.875 156.034 197.533 155.046C198.958 152.964 201.26 152.087 203.564 153.074C205.427 153.841 207.4 154.937 208.826 156.362C211.237 158.883 213.54 161.625 215.404 164.475C221.434 173.355 225.71 183.222 229.547 193.199C236.236 210.959 240.621 229.377 243.362 248.124C246.213 267.748 247.418 287.371 246.761 307.105C246.322 320.042 244.897 332.979 242.485 345.806C242.265 346.902 242.156 347.998 242.924 349.094C246.871 354.905 251.256 360.386 256.848 364.662C258.602 366.087 260.575 367.293 262.549 368.39C269.895 372.336 277.46 372.446 285.025 368.828C290.069 366.416 294.235 362.798 297.962 358.632C302.348 353.699 305.966 348.217 309.146 342.407C316.491 329.032 321.425 314.671 325.263 299.98C331.732 275.313 335.021 250.097 335.569 224.553C335.569 223.347 335.24 221.922 334.692 220.826C318.246 190.239 307.391 157.678 299.498 124.021C297.633 116.127 296.209 108.015 295.551 99.9019C295.222 95.5167 295.222 91.1316 296.318 86.8557C296.647 85.6499 297.195 84.3339 297.853 83.2383C299.936 79.7302 303.444 78.7429 306.844 80.936C308.597 82.1418 310.351 83.5671 311.668 85.3211C313.86 88.281 315.833 91.4603 317.479 94.6397C322.85 105.164 326.468 116.347 329.539 127.639C335.021 148.25 338.31 169.298 339.625 190.677C340.174 200.106 340.283 209.643 340.612 219.071C340.612 220.168 340.831 221.374 341.38 222.36C346.752 231.789 352.891 240.888 360.676 248.452C366.158 253.825 372.188 258.21 379.424 260.732C384.468 262.486 389.621 263.143 394.993 262.376C401.352 261.389 406.505 258.429 411 253.934C414.948 249.988 418.017 245.493 420.648 240.559C426.021 230.473 429.53 219.729 432.161 208.766C436.765 189.471 438.958 169.957 439.616 150.113C439.726 146.715 439.726 143.316 439.836 139.808C439.836 138.492 439.397 137.506 438.41 136.629C417.14 115.799 404.093 90.5833 398.721 61.3116C396.418 48.4849 395.98 35.548 398.611 22.6121C399.269 19.2132 400.475 15.8144 401.791 12.6351C402.558 10.7717 403.874 8.90744 405.299 7.4831C408.04 4.63252 411.877 4.19354 415.166 6.38659C417.25 7.81189 419.224 9.56594 420.539 11.6488C422.951 15.3764 425.253 19.3225 427.008 23.3789C431.723 33.9042 434.572 45.0861 436.985 56.269C442.357 81.2648 444.769 106.48 445.098 132.024C445.098 134.107 445.756 135.532 447.4 136.958C458.145 145.947 470.644 151.1 484.349 153.731C495.203 155.814 506.277 156.472 517.35 156.8C525.244 157.02 533.139 157.02 541.032 156.8C545.089 156.691 549.256 156.252 553.312 155.705C555.724 155.375 558.136 154.718 560 152.415C560 154.28 559.233 155.266 558.027 155.814C556.053 156.8 554.08 157.788 551.996 158.336C545.747 160.09 539.168 160.528 532.699 160.748C518.557 161.296 504.413 160.857 490.379 159.761C474.372 158.445 459.68 153.621 446.743 143.754C446.304 143.426 445.865 143.206 445.098 142.768C444.989 143.974 444.989 144.961 444.879 145.838C444.55 161.844 443.234 177.74 440.494 193.418C438.191 206.683 435.012 219.729 429.968 232.118C427.775 237.489 425.363 242.752 422.074 247.575C419.881 250.755 417.579 253.825 414.838 256.565C405.08 266.542 393.239 269.392 379.863 265.774C372.846 263.91 366.815 260.293 361.333 255.688C353.659 249.22 347.52 241.436 342.147 233.104C341.709 232.446 341.27 231.789 340.831 231.13C340.722 231.021 340.503 231.021 340.174 230.802C339.954 234.311 339.735 237.819 339.516 241.217C337.323 269.94 332.279 298.115 322.083 325.085C318.904 333.636 314.957 341.858 310.133 349.642C306.624 355.344 302.677 360.715 297.524 365.1C294.783 367.513 291.823 369.705 288.534 371.459C278.776 376.831 268.908 376.503 259.26 371.021C253.12 367.513 248.076 362.579 243.691 357.098C242.814 356.001 241.936 354.905 240.84 353.59C240.511 354.795 240.183 355.672 239.963 356.549C235.797 373.652 229.767 390.096 220.557 405.226C216.501 411.803 212.006 418.053 206.524 423.534C203.015 426.932 199.287 429.893 194.792 431.976C187.008 435.703 179.333 435.375 171.877 431.099C167.602 428.687 163.984 425.508 160.695 421.999C155.542 416.518 151.156 410.488 147.429 404.129C144.467 399.196 141.836 394.043 138.986 389C138.547 388.233 138.218 387.465 137.78 386.698C137.999 386.698 137.89 386.698 137.67 386.807ZM238.741 341.5C239.071 340.733 239.182 340.404 239.292 340.077C240.941 330.549 241.93 321.023 242.479 311.387C243.469 293.319 242.59 275.36 240.501 257.402C238.192 238.349 234.234 219.733 228.078 201.665C224.12 190.058 219.283 178.779 212.687 168.376C211.038 165.749 209.059 163.23 206.97 160.821C206.09 159.726 204.771 158.74 203.562 157.974C202.023 156.988 201.254 157.208 200.703 158.96C200.153 160.602 199.824 162.354 199.714 164.106C198.835 174.509 199.714 184.911 201.033 195.314C202.792 210.097 204.882 224.88 207.189 239.553C210.158 258.497 214.225 277.222 219.833 295.618C224.34 310.62 229.726 325.183 237.203 338.981C237.533 339.528 237.972 340.295 238.741 341.5ZM439.677 129.119C439.787 127.912 439.787 127.254 439.787 126.486C439.133 102.242 436.521 78.2187 431.187 54.5235C428.901 44.1027 426.071 33.7911 421.607 24.0278C420.084 20.7363 418.124 17.5551 416.165 14.484C415.403 13.167 414.097 12.0705 412.9 11.1925C411.593 10.2052 410.504 10.3155 409.416 11.412C408.763 12.0705 408.11 12.9475 407.783 13.7162C406.804 16.0195 405.824 18.433 405.279 20.8466C402.776 31.5971 402.667 42.5662 404.082 53.5362C407.565 81.2897 418.778 105.643 437.174 126.486C437.827 127.363 438.59 128.021 439.677 129.119ZM335.602 210.485C335.712 210.485 335.933 210.376 336.044 210.376C336.044 210.047 336.155 209.718 336.155 209.39C335.602 182.446 332.395 155.829 325.542 129.653C322.668 118.59 319.13 107.746 314.044 97.5602C312.387 94.2745 310.397 91.2073 308.296 88.1401C307.411 86.826 305.975 85.7304 304.648 84.7451C303.543 83.9783 302.658 84.1977 301.995 85.4026C301.332 86.7167 300.89 88.1401 300.668 89.6737C299.673 95.6979 300.558 101.722 301.442 107.746C303.432 120.342 306.527 132.828 310.176 145.096C316.477 166.673 323.995 187.704 334.054 207.966C334.606 208.623 335.16 209.5 335.602 210.485ZM117.369 280.819C116.035 282.689 115.924 284.778 115.812 286.757C115.59 293.466 116.146 300.283 117.035 306.991C120.038 328.984 126.598 349.987 135.16 370.44C135.382 370.99 135.827 371.539 136.383 372.53C136.606 369.67 136.827 367.581 136.938 365.382C137.606 350.866 136.938 336.351 134.381 322.056C132.603 311.939 130.267 301.932 125.82 292.475C124.486 289.506 122.706 286.757 121.038 284.008C120.372 282.579 119.26 281.369 117.369 280.819Z" fill="black"/>
</g>
</svg>
