<svg width="451" height="331" viewBox="0 0 451 331" fill="none" xmlns="http://www.w3.org/2000/svg">
<path d="M449.546 271.026C452.069 286.835 449.953 300.212 441.877 312.464C433.055 325.966 420.793 331.642 405.144 330.081C388.921 328.578 372.973 324.123 358.228 317.205C329.033 303.334 300.093 289.143 271.156 274.955C261.018 270.18 251.139 265.084 241.261 259.989C203.949 241.13 167.642 220.703 132.541 197.811C107.787 181.719 84.0398 164.057 62.6517 143.81C46.8083 129.115 32.3196 113.399 19.9624 95.7057C12.7808 85.6493 6.6958 74.8926 2.86247 63.3142C-7.37995 32.2441 10.7518 4.31631 43.0879 0.610504C57.7961 -1.23456 72.3767 1.31821 86.5309 5.37735C104.91 10.7432 122.115 18.8645 138.833 27.9142C191.507 56.8424 242.977 88.2366 292.206 123.374C324.07 146.024 356.482 168.324 388.116 191.581C400.756 200.769 412.333 210.946 424.198 221.092C439.918 234.631 448.689 251.535 449.546 271.026Z" fill="#4CA96D"/>
<mask id="mask0_0_10879" style="mask-type:alpha" maskUnits="userSpaceOnUse" x="0" y="0" width="451" height="331">
<path d="M449.546 271.026C452.069 286.835 449.953 300.212 441.877 312.464C433.055 325.966 420.793 331.642 405.144 330.081C388.921 328.578 372.973 324.123 358.228 317.205C329.033 303.334 300.093 289.143 271.156 274.955C261.018 270.18 251.139 265.084 241.261 259.989C203.949 241.13 167.642 220.703 132.541 197.811C107.787 181.719 84.0398 164.057 62.6517 143.81C46.8083 129.115 32.3196 113.399 19.9624 95.7057C12.7808 85.6493 6.6958 74.8926 2.86247 63.3142C-7.37995 32.2441 10.7518 4.31631 43.0879 0.610504C57.7961 -1.23456 72.3767 1.31821 86.5309 5.37735C104.91 10.7432 122.115 18.8645 138.833 27.9142C191.507 56.8424 242.977 88.2366 292.206 123.374C324.07 146.024 356.482 168.324 388.116 191.581C400.756 200.769 412.333 210.946 424.198 221.092C439.918 234.631 448.689 251.535 449.546 271.026Z" fill="#FF4141"/>
</mask>
<g mask="url(#mask0_0_10879)">
<path d="M198.21 310.491C196.763 306.483 194.759 302.465 194.18 298.457C191.307 279.552 187.865 260.358 185.85 241.452C180.683 188.454 175.794 135.166 166.317 82.4544C159.135 42.9204 150.515 3.95917 137.587 -34.1428C135.861 -39.0129 133.856 -43.5967 131.84 -48.1804C130.693 -50.7582 128.678 -53.0505 125.526 -52.4777C121.785 -51.9048 120.927 -49.0396 120.927 -45.888C120.927 -33.8563 120.927 -21.5372 121.785 -9.50558C124.089 28.8828 126.384 67.2701 123.511 105.945C121.495 133.734 118.622 161.523 111.439 188.743C110.013 194.182 107.998 199.622 105.983 204.784H104.546C103.978 203.352 103.399 201.631 103.11 200.199C101.105 183.004 99.0894 166.105 97.6529 148.917C92.1961 87.3246 82.1404 26.5904 60.5923 -31.565C53.1203 -51.331 45.3692 -71.099 33.5875 -88.5737C14.0548 -117.795 -12.0924 -139.28 -44.5539 -152.745C-64.9548 -161.339 -83.6194 -156.469 -100 -142.145C-98.2741 -143.005 -96.5482 -143.864 -94.8223 -144.437C-89.0864 -146.729 -83.6194 -149.593 -77.5942 -151.313C-69.2541 -153.604 -60.6451 -152.745 -52.5943 -149.593C-44.2645 -146.156 -35.9347 -142.718 -28.4626 -137.848C0.83654 -119.513 23.821 -95.7362 37.6077 -63.3637C54.8461 -23.2568 67.2066 17.9958 75.5364 60.395C81.5719 91.048 84.724 121.988 88.1758 152.928C89.6124 167.538 91.6174 182.149 93.6326 196.47C94.2114 200.477 95.3585 204.496 96.795 208.503C97.9422 211.656 99.6681 214.52 103.399 214.52C107.13 214.809 109.145 212.233 110.582 209.08C112.018 205.639 113.455 202.198 114.313 198.767C120.348 176.42 123.8 153.501 126.673 130.582C130.693 99.0698 131.551 67.5565 130.693 36.0443C130.114 14.8452 128.678 -6.0675 127.82 -26.9812V-35.5748C130.983 -32.7106 131.551 -29.559 132.13 -26.6949C138.734 -1.48383 145.627 23.7262 151.373 49.2226C162.586 100.502 169.19 152.641 174.079 204.784C176.373 229.418 179.246 254.052 182.119 278.697C182.977 285.857 184.703 293.018 186.429 300.178C187.286 303.619 188.434 306.772 189.591 309.914C191.307 313.932 193.89 317.94 198.779 318.229C203.667 318.517 206.819 314.788 208.835 311.068C211.129 306.772 213.434 302.187 215.159 297.314C218.033 288.144 220.906 278.975 223.2 269.527C231.24 236.579 235.839 203.064 238.712 169.257C241.875 132.874 242.164 96.491 242.164 60.1086C242.164 46.6438 242.443 33.1801 242.443 19.4289C242.443 15.1316 243.022 10.8343 243.601 6.53694H245.037C246.185 9.40216 247.332 12.5528 247.91 15.418C252.22 36.6171 257.098 57.5298 260.26 78.73C264.859 109.097 268.59 139.463 272.042 170.116C273.758 186.157 274.626 202.487 275.194 218.817C276.352 253.486 276.92 288.144 278.646 322.525C279.504 338.855 281.808 354.896 284.103 370.938C284.682 376.1 286.686 381.251 289.27 385.836C294.159 395.005 302.778 395.86 309.382 388.133C313.123 383.549 315.996 378.387 318.58 372.947C326.052 356.04 330.072 338.278 333.803 320.227C341.854 280.417 344.437 240.02 343.859 199.334C343.569 178.429 343.29 157.512 343.29 136.885C343.29 131.155 343.859 125.712 344.437 119.983C345.006 119.696 345.585 119.696 346.163 119.41C347.589 121.988 349.036 124.28 350.184 126.859C356.219 141.468 359.66 156.939 362.534 172.413C372.3 223.69 373.168 275.255 372.011 327.11C371.153 363.2 370.574 399.59 370.863 435.681C371.153 461.757 374.026 487.824 382.934 512.746C386.376 522.771 390.686 532.229 397.3 540.821C401.32 545.973 405.919 550.279 412.812 551.711C417.69 552.567 419.706 551.711 422 546.55C412.234 550.279 406.777 544.829 402.178 537.957C394.137 526.212 389.828 513.034 386.376 499.28C382.066 482.384 380.351 464.9 379.193 447.714C376.899 408.183 378.904 368.939 380.061 329.397C381.777 276.111 380.919 223.113 369.427 170.692C366.264 156.078 361.676 142.042 357.366 127.718C355.93 123.134 353.336 118.837 350.752 115.112C347.021 109.956 341.564 111.101 340.128 117.118C338.981 122.275 338.402 127.431 338.402 132.874C338.691 155.506 339.26 178.141 339.26 200.766C339.549 240.586 337.255 280.129 329.783 319.084C326.62 335.414 322.889 351.744 315.996 367.219C313.691 372.659 310.539 377.81 306.798 382.395C302.199 388.411 297.61 387.556 295.306 380.396C292.722 372.658 290.717 364.354 290.138 356.328C288.123 331.406 286.976 306.483 285.829 281.561C284.682 252.054 284.392 222.546 282.666 193.039C280.661 156.652 276.062 120.555 269.738 84.4594C266.007 62.4 261.408 40.3416 256.809 18.2832C255.951 13.4131 253.936 8.54295 252.22 3.95923C251.352 1.66684 250.205 -0.624557 248.479 -2.63052C245.316 -6.35397 241.007 -5.49466 239.291 -1.19734C238.134 1.66684 237.565 5.10486 237.565 8.2565C237.276 27.1632 236.418 45.7846 236.697 64.6924C237.565 111.961 235.839 158.944 230.383 205.928C227.22 233.137 222.911 260.358 214.291 286.712C212.286 292.729 209.413 298.746 206.819 304.474C205.672 307.05 203.378 308.771 201.363 311.068C199.647 310.78 199.068 310.78 198.21 310.491Z" fill="black"/>
</g>
</svg>
