<?xml version="1.0" standalone="no"?>
<!DOCTYPE svg PUBLIC "-//W3C//DTD SVG 20010904//EN"
 "http://www.w3.org/TR/2001/REC-SVG-20010904/DTD/svg10.dtd">
<svg version="1.0" xmlns="http://www.w3.org/2000/svg"
 width="512.000000pt" height="512.000000pt" viewBox="0 0 512.000000 512.000000"
 preserveAspectRatio="xMidYMid meet">

<g transform="translate(0.000000,512.000000) scale(0.100000,-0.100000)"
fill="#000000" stroke="none">
<path d="M300 5094 c90 -53 108 -55 439 -48 263 6 313 9 357 25 27 11 59 26
70 34 17 13 -35 14 -446 15 l-465 0 45 -26z"/>
<path d="M2255 4918 c-38 -4 -107 -10 -153 -12 -61 -4 -95 -12 -133 -32 -52
-26 -109 -79 -109 -100 0 -6 -33 -40 -72 -75 -136 -119 -256 -251 -273 -299
-6 -16 -14 -32 -18 -36 -4 -4 -7 -16 -7 -27 0 -11 -8 -29 -17 -39 -14 -16 -15
-21 -3 -28 11 -7 11 -15 -3 -52 -13 -34 -15 -51 -7 -78 7 -24 7 -49 -1 -83 -6
-26 -9 -64 -6 -85 3 -20 -2 -67 -10 -105 -17 -77 -14 -156 10 -277 9 -47 26
-139 36 -205 18 -108 18 -121 4 -132 -13 -10 -13 -15 6 -41 34 -48 23 -60 -15
-17 -34 38 -36 39 -50 21 -19 -26 -18 -47 5 -98 11 -24 23 -52 26 -63 6 -19 7
-19 16 -2 18 31 39 20 39 -20 0 -21 7 -85 14 -143 10 -72 12 -133 7 -190 -5
-47 -5 -89 0 -94 4 -4 22 -11 39 -15 31 -6 34 -11 69 -117 20 -62 63 -157 95
-215 57 -101 75 -154 59 -174 -4 -6 -27 -19 -50 -29 -24 -11 -43 -22 -43 -26
0 -4 -38 -46 -85 -92 -47 -47 -85 -89 -85 -94 0 -5 -13 -25 -28 -44 -16 -19
-38 -52 -51 -73 -13 -20 -35 -50 -49 -65 -72 -74 -112 -129 -112 -152 0 -14
-18 -47 -41 -75 -70 -87 -95 -129 -97 -162 l-2 -32 55 24 c63 28 65 29 65 14
0 -5 -21 -19 -48 -31 -26 -11 -66 -29 -89 -39 -23 -11 -47 -19 -53 -19 -12 0
-135 -64 -157 -82 -7 -5 -61 -26 -120 -47 -279 -97 -375 -186 -498 -462 -90
-203 -104 -237 -110 -277 -6 -37 -4 -45 16 -61 20 -16 21 -21 10 -34 -11 -14
-7 -19 26 -36 48 -24 74 -52 55 -59 -10 -3 -10 -7 -1 -18 6 -8 9 -23 6 -34 -3
-11 0 -34 6 -50 l11 -30 88 0 c96 0 100 3 74 57 -29 59 -76 178 -76 194 0 6 6
9 13 6 7 -3 21 1 32 9 10 8 15 14 9 14 -5 0 11 12 35 26 43 27 149 60 158 50
3 -3 9 -20 13 -38 6 -27 7 -22 7 28 1 82 7 96 45 117 27 14 56 17 163 15 118
-2 137 1 204 25 41 14 79 31 84 36 23 23 -6 22 -85 -3 -94 -29 -127 -32 -249
-21 -67 6 -93 5 -115 -7 -16 -7 -63 -24 -104 -37 -95 -29 -150 -52 -150 -62 0
-11 -121 -81 -128 -74 -3 3 -7 13 -8 23 -2 9 -6 36 -10 59 -10 65 0 88 56 122
28 17 55 42 62 56 8 18 34 33 104 60 64 25 97 44 109 62 14 21 22 24 50 20 23
-4 46 1 72 15 33 17 61 21 217 24 157 4 183 7 211 24 23 14 50 20 93 20 74 0
82 -10 82 -104 l0 -66 -75 0 c-43 0 -75 -4 -75 -10 0 -10 50 -14 118 -10 23 1
32 -3 32 -14 0 -13 -14 -16 -84 -16 -78 0 -110 -10 -91 -28 3 -4 48 -6 100 -6
l93 0 13 -30 c13 -28 19 -32 74 -38 33 -3 94 -12 135 -19 66 -10 84 -10 150 6
98 22 138 22 188 -4 31 -16 48 -34 64 -69 23 -46 24 -47 73 -50 74 -4 87 -13
35 -25 -52 -11 -68 -11 -130 -2 -29 5 -92 0 -175 -14 -72 -11 -200 -27 -285
-36 -185 -19 -286 -35 -439 -69 -115 -26 -157 -44 -168 -72 -3 -10 -21 -14
-58 -14 -44 0 -62 -6 -106 -35 -29 -20 -58 -34 -66 -31 -14 6 -16 -6 -7 -42
l6 -22 2204 0 2204 0 0 115 c0 84 -4 122 -14 138 -8 12 -28 63 -45 112 -30 90
-83 220 -93 231 -7 6 -49 -16 -60 -31 -4 -5 -8 -26 -8 -45 0 -32 -6 -40 -63
-81 -48 -34 -66 -54 -70 -77 -6 -27 -90 -122 -109 -122 -15 0 -8 39 8 48 9 5
14 14 10 21 -10 16 -26 14 -26 -4 0 -19 -26 -18 -70 3 -28 14 -35 23 -35 47
l0 30 -105 6 c-58 4 -166 16 -240 28 -163 25 -579 45 -770 38 -363 -15 -421
-15 -427 0 -3 8 -1 18 4 22 6 3 16 30 23 58 11 50 14 53 53 63 65 17 95 31
101 46 4 11 27 14 95 14 50 0 102 6 118 12 18 9 80 13 178 13 167 0 157 -5
140 74 l-8 33 34 -8 c19 -5 97 -9 174 -11 77 -1 217 -5 310 -9 94 -4 207 -7
253 -7 80 0 82 0 82 -24 0 -27 45 -58 120 -83 36 -12 44 -19 42 -35 -13 -83
-14 -115 -4 -115 15 0 26 25 42 93 12 53 12 58 -6 72 -10 8 -32 17 -49 21 -42
9 -97 38 -119 63 -30 33 -11 37 35 7 50 -34 129 -60 129 -43 0 22 -15 33 -65
52 -27 10 -66 34 -85 53 -41 41 -29 39 -380 47 -118 3 -228 6 -245 6 -16 0
-74 0 -127 -1 -53 -1 -105 3 -114 8 -20 11 -63 107 -64 140 0 23 2 23 98 22
53 0 234 -1 402 -1 168 0 332 -5 365 -10 112 -19 186 -76 250 -194 25 -47 50
-85 56 -85 17 0 9 104 -12 149 -32 72 -132 186 -209 238 -85 57 -348 157 -579
219 -51 13 -103 31 -115 39 -11 8 -35 15 -53 15 -17 0 -35 4 -38 10 -3 5 -25
14 -48 20 -90 23 -182 53 -188 63 -4 5 -24 13 -44 16 -37 6 -40 10 -79 96 -60
130 -123 231 -189 302 -50 53 -61 71 -73 125 -8 35 -28 90 -43 123 -45 96 -46
113 -12 218 36 110 71 252 70 281 -1 12 -6 4 -12 -19 -5 -22 -21 -48 -34 -58
-13 -10 -21 -22 -18 -27 7 -11 -100 -130 -117 -130 -5 0 -8 -6 -8 -14 0 -10
-11 -13 -37 -11 -21 1 -30 1 -20 -2 22 -6 22 -9 -4 -45 -17 -23 -19 -32 -9
-38 10 -6 9 -9 -1 -16 -7 -4 -14 -3 -17 4 -6 19 -22 14 -22 -6 0 -11 -9 -27
-20 -37 -11 -10 -22 -25 -25 -34 -3 -10 -22 -23 -43 -30 -20 -7 -48 -24 -62
-36 -18 -17 -44 -25 -95 -31 -38 -5 -77 -7 -85 -6 -8 1 -93 3 -187 3 -95 1
-173 5 -173 9 0 5 -24 6 -53 3 -49 -5 -54 -3 -70 21 -10 14 -24 26 -31 26 -8
0 -16 10 -20 23 -3 13 -17 29 -31 37 -19 10 -23 18 -19 37 4 12 2 23 -3 23 -5
0 -9 17 -8 37 1 28 -5 45 -23 66 -14 15 -30 27 -35 27 -5 0 -22 9 -37 20 -21
15 -34 18 -51 12 -15 -6 -18 -11 -11 -16 16 -10 15 -26 0 -26 -20 1 -55 33
-62 58 -4 12 -14 29 -22 37 -22 21 -27 112 -8 119 8 3 12 1 9 -4 -3 -5 0 -8 7
-5 7 3 19 24 26 46 13 41 13 42 -25 78 -104 102 -135 157 -155 271 -13 73 3
224 25 254 21 27 98 21 122 -10 5 -6 37 -27 70 -45 79 -43 166 -45 241 -4 41
21 44 25 19 20 -80 -14 -134 -17 -151 -7 -18 11 -18 11 4 12 32 0 28 28 -5 32
-22 2 -29 9 -31 31 -4 34 11 35 50 2 21 -18 37 -24 52 -19 41 12 66 34 66 59
0 32 8 31 70 -5 55 -32 74 -37 68 -17 -3 6 -33 27 -67 45 -52 26 -74 32 -127
32 -35 0 -84 -7 -110 -16 -57 -19 -65 -13 -28 20 28 25 28 25 6 26 -25 0 -61
-18 -78 -39 -8 -11 -13 -11 -18 -2 -5 8 -12 9 -20 2 -9 -7 -17 -1 -30 24 -16
29 -17 36 -4 54 8 11 31 32 52 46 32 21 48 25 116 25 72 0 86 -4 172 -44 84
-40 158 -92 158 -113 0 -4 9 -19 19 -33 l19 -24 21 24 c21 26 28 65 12 74 -4
3 -12 20 -16 38 -11 44 -13 51 -14 65 -2 23 -66 81 -101 91 -77 23 -343 40
-363 24 -7 -6 -23 -12 -37 -14 -20 -2 -24 1 -22 17 2 11 8 22 13 23 5 2 9 11
9 20 1 20 34 62 49 62 7 0 11 37 11 108 0 86 4 114 19 142 10 19 21 49 25 66
11 49 77 109 144 129 31 9 84 25 117 35 73 22 143 30 300 34 145 4 275 -10
275 -30 0 -8 9 -14 20 -14 16 0 67 -32 126 -79 6 -5 21 -12 34 -16 25 -8 100
-80 100 -96 0 -5 6 -9 13 -9 29 0 46 -34 125 -255 51 -142 63 -189 82 -305 6
-36 20 -119 32 -185 12 -66 23 -140 26 -165 5 -52 11 -63 32 -50 12 8 12 13
-2 44 -16 33 -16 35 8 63 13 15 24 31 24 36 0 4 23 17 50 29 28 12 50 28 50
36 0 23 -20 52 -35 52 -15 0 -84 -87 -85 -106 0 -6 -9 -19 -20 -29 -20 -18
-20 -17 -20 19 0 20 8 53 19 74 10 20 24 78 30 127 7 50 18 115 26 145 7 30
19 94 26 142 9 67 17 92 37 113 31 34 46 115 45 255 -1 105 -1 105 -42 175
-31 51 -41 77 -37 97 4 21 -3 37 -30 70 -20 24 -52 62 -71 86 -20 24 -48 60
-64 80 -61 82 -146 154 -224 191 -90 43 -147 68 -175 75 -14 4 -40 15 -59 23
-53 24 -157 43 -266 49 -55 2 -116 6 -135 7 -19 2 -66 0 -105 -5z m-215 -1538
c0 -5 -4 -10 -9 -10 -6 0 -13 5 -16 10 -3 6 1 10 9 10 9 0 16 -4 16 -10z m955
-1500 c-3 -5 1 -10 9 -10 16 0 20 -11 31 -74 5 -29 9 -36 16 -25 6 10 9 5 9
-18 0 -18 -4 -33 -9 -33 -9 0 -9 -49 0 -65 4 -5 9 -27 13 -47 4 -22 15 -42 26
-48 27 -15 30 -13 31 18 2 21 3 18 9 -13 l7 -40 2 39 c1 33 3 37 16 26 18 -15
20 1 3 18 -6 6 -9 15 -5 18 4 4 14 -10 23 -32 12 -27 16 -71 17 -149 1 -117
-13 -202 -43 -275 -10 -25 -21 -71 -25 -102 -4 -32 -11 -58 -15 -58 -5 0 -10
-12 -12 -27 -2 -20 -8 -28 -20 -27 -10 1 -18 -5 -18 -12 0 -8 -13 -28 -30 -46
-16 -17 -30 -37 -30 -44 0 -8 -9 -14 -20 -14 -12 0 -20 -7 -20 -16 0 -24 -36
-71 -115 -149 -41 -41 -81 -93 -97 -125 -14 -30 -57 -118 -93 -195 -37 -77
-75 -150 -85 -162 -17 -22 -18 -22 -34 -4 -9 10 -13 20 -10 24 3 3 -4 12 -16
19 -12 7 -28 28 -35 46 -10 22 -20 32 -32 30 -13 -2 -17 3 -16 20 2 12 -2 22
-7 22 -20 0 -26 2 -72 28 -27 15 -48 30 -48 35 0 4 -7 7 -16 7 -18 0 -59 29
-116 83 -22 20 -46 37 -53 37 -9 0 -13 12 -13 33 1 102 -61 226 -114 227 -10
0 -19 7 -19 15 -1 8 -2 18 -4 23 -1 4 -5 25 -9 47 -5 22 -20 58 -34 80 -45 68
-120 311 -109 352 3 12 7 8 12 -14 6 -28 10 -31 27 -22 14 7 23 7 34 -2 8 -6
14 -8 14 -4 0 4 6 2 14 -4 16 -13 105 -13 122 1 7 5 16 2 24 -7 7 -8 18 -15
26 -15 26 0 84 35 84 52 0 9 11 29 25 44 22 24 30 26 72 21 52 -6 89 7 116 40
10 12 27 25 39 29 12 4 28 13 36 20 7 8 22 14 32 14 10 0 21 4 24 9 3 5 21 12
39 15 19 3 51 15 73 25 37 17 67 19 127 5 25 -6 27 -4 27 25 0 31 34 116 51
126 4 3 6 11 3 18 -2 7 19 37 47 67 28 30 55 65 60 78 5 13 13 21 18 17 5 -3
12 4 16 15 3 11 11 20 16 20 6 0 7 -4 4 -10z m-1555 -520 c0 -12 -53 -40 -77
-40 -11 0 -3 9 22 25 44 27 55 30 55 15z m2389 -526 c7 -2 42 1 78 7 49 9 79
8 125 -1 34 -6 102 -11 152 -9 105 3 133 2 276 -5 84 -4 106 -9 108 -21 3 -14
-23 -15 -235 -10 -131 3 -256 10 -278 16 -25 7 -78 8 -141 4 -101 -7 -184 5
-184 26 0 8 63 4 99 -7z m-779 -160 c0 -8 -4 -14 -10 -14 -5 0 -10 9 -10 21 0
11 5 17 10 14 6 -3 10 -13 10 -21z m-2382 -256 c-3 -7 -9 -13 -14 -14 -5 0
-27 -6 -49 -12 -48 -14 -103 -16 -89 -3 9 10 106 38 137 40 11 0 17 -4 15 -11z
m-207 -82 c-14 -17 -71 -39 -71 -27 0 7 58 39 74 40 5 1 3 -5 -3 -13z m1918
-95 c36 -21 86 -49 111 -62 87 -47 47 -89 -82 -89 -77 0 -78 0 -84 28 -3 15
-12 49 -20 76 -17 61 -18 86 -2 86 6 0 41 -17 77 -39z"/>
<path d="M3162 1550 c0 -14 2 -19 5 -12 2 6 2 18 0 25 -3 6 -5 1 -5 -13z"/>
<path d="M2820 3680 c-67 -5 -118 -14 -141 -25 -34 -17 -37 -21 -43 -76 -4
-33 -18 -78 -32 -104 -22 -38 -23 -45 -9 -45 12 0 15 -6 10 -20 -7 -21 9 -28
20 -9 4 6 17 14 29 19 17 7 17 9 4 9 -70 3 99 111 172 111 13 0 17 6 13 19 -4
16 3 22 39 31 23 7 48 16 53 20 12 10 67 7 105 -5 14 -4 45 -28 69 -54 29 -30
46 -41 49 -33 8 25 -52 122 -76 122 -8 0 -26 8 -40 19 -36 24 -82 35 -82 19 0
-9 -3 -9 -12 0 -7 7 -14 11 -17 10 -4 0 -53 -4 -111 -8z"/>
<path d="M2950 3486 c0 -1 16 -19 35 -41 20 -21 33 -40 31 -42 -3 -3 -30 4
-61 16 -66 25 -132 27 -201 6 -52 -15 -114 -68 -95 -79 6 -4 16 -2 23 4 44 36
62 50 67 50 3 0 12 -13 19 -29 18 -41 73 -59 107 -37 13 8 26 25 30 36 3 11
10 20 14 20 18 0 33 -31 27 -54 -5 -19 -1 -25 18 -30 39 -10 100 15 104 42 2
13 -3 25 -12 28 -9 3 -16 14 -16 23 0 30 -37 78 -64 83 -14 3 -26 4 -26 4z
m-110 -76 c0 -5 -4 -10 -10 -10 -5 0 -10 5 -10 10 0 6 5 10 10 10 6 0 10 -4
10 -10z"/>
<path d="M2690 3450 c-8 -5 -10 -10 -5 -10 6 0 17 5 25 10 8 5 11 10 5 10 -5
0 -17 -5 -25 -10z"/>
<path d="M2901 3311 c-8 -5 -9 -11 -3 -15 5 -3 15 1 22 9 14 16 3 20 -19 6z"/>
<path d="M2750 3260 c0 -12 95 -40 136 -40 18 0 45 5 61 12 26 11 21 12 -57
19 -47 4 -97 10 -112 13 -16 3 -28 1 -28 -4z"/>
<path d="M2187 2946 c-9 -22 10 -87 30 -101 10 -8 36 -15 59 -15 26 0 60 -11
95 -30 30 -16 64 -30 76 -30 12 0 25 -4 28 -10 11 -18 31 -10 74 29 32 30 52
40 88 44 52 6 73 25 73 68 0 26 -3 27 -59 34 -53 6 -63 4 -100 -20 -35 -23
-47 -27 -83 -21 -24 4 -62 20 -85 36 -39 28 -43 29 -70 15 -36 -19 -73 -19
-100 0 -17 12 -22 12 -26 1z"/>
<path d="M1440 2821 c0 -23 30 -71 45 -71 24 0 17 24 -15 55 -16 16 -30 23
-30 16z"/>
<path d="M2305 2811 c-3 -5 -1 -12 5 -16 5 -3 10 1 10 9 0 18 -6 21 -15 7z"/>
<path d="M2334 2782 c-9 -14 -15 -15 -37 -5 -20 9 -28 9 -33 1 -4 -7 -2 -14 4
-16 6 -2 8 -10 5 -18 -3 -9 2 -14 16 -14 12 0 21 5 21 11 0 6 10 19 23 29 12
10 20 21 17 24 -3 3 -10 -3 -16 -12z"/>
<path d="M2570 2785 c0 -8 5 -15 10 -15 6 0 10 7 10 15 0 8 -4 15 -10 15 -5 0
-10 -7 -10 -15z"/>
<path d="M3252 2750 c0 -19 2 -27 5 -17 2 9 2 25 0 35 -3 9 -5 1 -5 -18z"/>
<path d="M2631 2761 c-8 -6 -9 -11 -3 -15 6 -3 14 -1 17 5 9 14 2 20 -14 10z"/>
<path d="M2221 2734 c0 -11 3 -14 6 -6 3 7 2 16 -1 19 -3 4 -6 -2 -5 -13z"/>
<path d="M3232 2720 c0 -14 2 -19 5 -12 2 6 2 18 0 25 -3 6 -5 1 -5 -13z"/>
<path d="M2146 2711 c-4 -7 -5 -15 -2 -18 9 -9 19 4 14 18 -4 11 -6 11 -12 0z"/>
<path d="M2080 2700 c0 -5 -8 -10 -18 -10 -10 0 -23 -5 -30 -12 -8 -8 -15 -8
-26 1 -23 19 -56 -20 -56 -66 0 -82 48 -178 51 -104 1 17 2 44 3 60 0 16 -3
27 -7 24 -5 -3 -7 7 -5 23 2 15 9 30 17 32 8 3 11 0 7 -7 -8 -12 21 -4 42 12
22 18 13 -10 -12 -34 -30 -29 -25 -39 22 -40 20 -1 48 -4 62 -8 14 -4 44 -2
67 5 48 15 440 11 509 -4 22 -5 49 -6 60 -2 10 4 36 10 57 13 32 5 37 3 37
-14 0 -10 4 -19 9 -19 5 0 7 -21 5 -47 -2 -27 -1 -39 2 -28 4 11 10 25 14 30
4 6 11 29 15 52 5 31 2 48 -11 70 -26 42 -44 54 -64 43 -15 -8 -17 -6 -13 9 5
21 -17 33 -38 20 -12 -7 -12 -12 -1 -30 22 -35 2 -42 -62 -24 -40 12 -61 14
-69 6 -12 -10 -136 -28 -167 -24 -8 1 -48 4 -89 7 -41 3 -80 11 -88 17 -9 8
-32 9 -71 4 -94 -12 -117 -11 -114 3 3 17 -16 52 -28 52 -6 0 -10 -4 -10 -10z
m783 -67 c-3 -7 -8 -13 -12 -13 -4 0 -15 6 -25 13 -17 13 -16 14 12 14 21 0
29 -4 25 -14z"/>
<path d="M2226 2441 c-3 -5 12 -25 34 -45 l41 -37 107 7 c59 3 128 13 154 22
57 19 72 42 28 42 -17 0 -30 5 -30 11 0 12 -258 7 -279 -5 -6 -4 -19 -2 -30 4
-11 6 -22 6 -25 1z"/>
<path d="M1115 598 c-58 -15 -105 -20 -170 -18 -179 5 -191 4 -216 -13 -13 -9
-31 -17 -41 -17 -18 0 -25 -25 -9 -34 4 -3 27 4 51 15 38 18 53 20 151 13 96
-6 120 -4 192 16 105 28 137 40 137 51 0 11 0 11 -95 -13z"/>
<path d="M230 156 c8 -8 26 -17 40 -21 l25 -7 -27 21 c-30 24 -62 30 -38 7z"/>
<path d="M180 14 c0 -9 11 -14 35 -14 47 0 47 24 0 27 -25 1 -35 -3 -35 -13z"/>
</g>
</svg>
