<?xml version="1.0" standalone="no"?>
<!DOCTYPE svg PUBLIC "-//W3C//DTD SVG 1.1//EN" "http://www.w3.org/Graphics/SVG/1.1/DTD/svg11.dtd">
<svg xmlns="http://www.w3.org/2000/svg" xmlns:xlink="http://www.w3.org/1999/xlink" version="1.1" id="Layer_1" x="0px" y="0px" viewBox="0 0 660.4 591" style="enable-background:new 0 0 660.4 591;" xml:space="preserve" width="660.4000244140625" height="591">
<style type="text/css">
	.st0{fill:#F4F2EC;}
	.st1{fill:#8E7E34;}
	.st2{fill:#0F4415;}
</style>
<g id="Layer_2_1_">
	<g id="Layer_1-2">
		<path class="st0" d="M326.6,232.5c1.4,2.4,4.2,3.7,6.9,3.3c1.2-0.1,2.4-0.2,3.6-0.5c5.5-1.5,8.6-9.7,4.9-13.8s-11.1-6.2-16.7-1.8    c-3,2.4-3.4,4.9-1.6,8.4C324.6,229.7,325.6,231,326.6,232.5z"/>
		<path class="st1" d="M361.2,212.8c-0.5-1.3-1.2-3.2-2.3-3.6c-3-1-6-1.8-9.2-2.3c-2.6-0.5-3.9,1.7-5.5,3.2    c-1.4,1.4-2.6,2.8-4.1,4.4c-0.9-0.3-1.8-0.7-2.6-1.1c-3.5-2.4-7.1-1.7-10.5,0.1c-2.4,1.3-4.6,2.9-6.5,4.7    c-3.5,3.2-4.6,9.1-2.6,12.9c2.2,3.9,5.7,6.9,9.9,8.4c6.4,2.7,16.4-1.2,18.8-7.7c1.5-4.1,3.9-5.8,7.6-6.7c0.5-0.1,0.9-0.3,1.4-0.5    C359.5,222.8,362.5,216.5,361.2,212.8z M337.1,235.3c-1.2,0.2-2.4,0.4-3.6,0.5c-2.8,0.5-5.5-0.8-6.9-3.3c-0.9-1.4-2-2.8-2.8-4.3    c-1.8-3.5-1.4-6,1.6-8.4h0c5.5-4.4,12.9-2.3,16.7,1.8C345.8,225.6,342.6,233.7,337.1,235.3z M354.4,217.6c0.2-0.4,0.3-0.7,0.3-1.1    c0,0,0,0,0,0C354.6,216.9,354.5,217.2,354.4,217.6z"/>
		<path class="st2" d="M190.7,200.9c-3.7-5.1-7.3-10.2-11-15.2C183.4,190.7,187,195.9,190.7,200.9z"/>
		<path class="st2" d="M299.5,246.1c-1.5-0.5-2.9-1.4-3.9-2.7c-0.7-0.8-1.4-1.7-2.2-2.5c0.8,0.8,1.5,1.7,2.2,2.5    C296.5,244.6,297.9,245.6,299.5,246.1z"/>
		<path class="st2" d="M418.4,258.4c9.2-3.5,17.6-8.6,25.8-14.1c4.1-2.8,8.3-5.3,12.5-7.9c-4.2,2.5-8.4,5.1-12.5,7.9    C436,249.8,427.6,254.9,418.4,258.4c-12.9,5-26,9.2-39.8,9.8C392.4,267.6,405.5,263.4,418.4,258.4z"/>
		<path class="st2" d="M268.4,228.8c-4.8-2.1-9.4-4.7-13.7-7.8c-2.6-1.9-5.1-3.8-7.7-5.7c2.6,1.9,5.1,3.8,7.7,5.7    C258.9,224.1,263.5,226.7,268.4,228.8z"/>
		<path class="st2" d="M246.9,215.4c-2.6-1.9-5.2-3.7-7.9-5.5c-3.6-2.3-7-4.9-10.2-7.7c3.2,2.8,6.7,5.4,10.2,7.7    C241.7,211.6,244.3,213.5,246.9,215.4z"/>
		<path class="st2" d="M292.2,239.7c-0.4-0.3-0.8-0.7-1.3-0.9c-3.1-1.7-6.3-3.1-9.6-4.4c3.3,1.3,6.5,2.7,9.6,4.4    C291.4,239,291.8,239.3,292.2,239.7z"/>
		<path class="st2" d="M228.8,202.2c-3.2-2.8-6.2-5.7-9-8.9C222.6,196.4,225.6,199.4,228.8,202.2z"/>
		<path class="st2" d="M190.7,200.9c3.7,5.1,7.4,10.1,11.4,14.9c0.9,1.1,1.8,2.1,2.7,3.2c-0.9-1-1.8-2.1-2.7-3.2    C198.1,211,194.4,206,190.7,200.9z"/>
		<path class="st2" d="M309.5,247.8c1.1,0.4,2.2,0.9,3.2,1.4C311.7,248.7,310.6,248.2,309.5,247.8z"/>
		<path class="st2" d="M210.5,225c-2-1.9-3.9-3.9-5.7-6C206.6,221.1,208.5,223.1,210.5,225z"/>
		<path class="st1" d="M597.6,183.8c-1.1-0.7-2.2-1.3-3.2-1.9c-4.8-2.6-9.9-4.5-15.3-5.7c-10-2-20.2-3.2-30.4-3.6    c-7.7-0.3-15.5-0.1-22.8,2.4c-3.1,1.1-6.1,2.4-9,3.9l-16.5,8.1c-2,0.9-3.8,1.9-5.6,3.1c-5.8,4.1-10.2,10.2-15.6,14.8    s-11,9.1-16.1,14s-11.3,8.6-17.2,12.6c-10.5,7.2-21.5,13.6-33,19.1c-10,4.8-20.6,8.1-31.5,9.9c-5.1,0.9-10.3,0.9-15.4-0.1    c-4.3-1-8.7-1.2-13.1-1.7s-8.5-2.2-12.6-3.7c-9.2-3.3-18.1-7.4-26.6-12.4c-4.7-2.8-9.9-4.5-15.2-5.1c-1.7-0.2-3.3-0.7-4.8-1.5    c-10.8-5.8-21.6-11.6-32.2-17.7c-3.4-1.9-6.3-4.6-9.4-7c-5-3.9-10-7.9-15-11.8c-1.4-1.1-2.7-2.1-4-3.3    c-12.8-11.6-22.8-25.8-29.5-41.7c-3.6-8.6-6.6-17.4-10.1-26c-3.1-7.6-6.4-15.1-9.6-22.6c-1.2-2.9-1.4-5.8-2.5-8.7    c-2.9-7.9-9.3-13.9-15.8-19.1c-5.3-4.3-10.6-6.5-16.9-9c-3.7-1.6-7.5-2.9-11.4-4c-2.8-0.7-5.6-1.2-8.5-1.6L106,60    c-4.4-0.8-8.8-1.3-13.2-1.6c-4-0.1-7.9,0-11.8,0.3c-4.2,0.3-8.5,0.7-12.5,2.2c-4.4,1.7-6.2,4-8,8.2c-2.3,5.7-2,7.8,2.3,11.7    c3.2,3,7.1,5.3,11.2,6.7c4.6,1.7,9.5,2.6,14.4,2.6c1.5,0,3,0,4,1.4c2.5,3.6,6.2,5.6,10.1,7c2.3,0.8,4.2,2.6,5.1,4.9    c1.1,2.5,2.6,4.7,4.4,6.7c5.8,6.3,12.9,9.8,21.7,8.6c2.3-0.3,3.5,0.4,4.8,2.4c3.3,4.9,6.1,10,8.4,15.5c4.5,11.4,9.1,22.8,14.2,34    c4.6,10,9.2,20.2,15.1,29.5s13.2,17.7,20.1,26.4c6,7.6,14,13.1,21.8,18.6c7.6,5.4,15.7,10.1,24.2,13.9    c10.4,4.5,20.8,8.8,31.2,13.2c2.9,1.3,5.7,2.8,8.4,4.5c3.1,1.9,5.1,4.7,5.2,8.4c0.1,7.4,1.2,14.7-0.5,22.1    c-0.9,3.8-1,7.8-1.3,11.7c-1.1,11.5-4.3,22.6-7.6,33.6c-0.7,2.3-1.7,4.6-2.3,7c-1.1,4.8-1.7,9.7-3,14.4    c-1.9,6.8-4.2,13.5-6.1,20.3c-1.1,3.8-1.8,7.6-2.5,11.5c-0.8,4.3-1.3,8.7-2.1,13s-1.9,8.6-2.7,13c-1.2,6.3-3.1,12.5-3.3,18.8    c-0.3,8.9-3.3,17.4-2.8,26.3c-3.1,11-1.5,22.5-3.5,33.6c-1,5.8-1.6,11.7-1.8,17.6c-0.3,8.6-2.7,17-1.6,25.7    c0.3,2.3-0.5,3.8-2.7,4.5c-1.6,0.6-3.2,1.3-4.8,1.8c-7,2.3-12.4,7-17.7,11.7c-4.7,4.2-4.9,8.9-1,13.5c1.6,1.9,3.8,3.4,5.9,5.1    c-0.1,0.1-0.3,0.3-0.5,0.5c1.2-0.2,2.4-0.5,3.6-0.8c3.4-0.9,6.7-1.7,10-2.7c14.2-4.3,27.4-11.3,39-20.5c-0.4-0.4-0.4-1.1-0.2-2.2    c1.8-8.7,3.6-17.3,5.2-26c0.9-4.8,1.5-9.7,1.8-14.6c0.6-8.6,0.6-17.2,1.4-25.7c1.7-18,2.5-36.2,8.8-53.5c1.1-3.2,2.5-6.3,4.1-9.3    c2.9-5.2,4.7-5.3,8.3-0.5c2.9,3.7,4.9,8,5.8,12.6c2.1,12.4,7.7,23.4,15.5,32.9c6.9,8.4,15.9,13.6,27.2,14.4    c4.8,0.4,9.7,0.3,14.5-0.4c3.1-0.5,6.2-1.4,9-2.9c6.8-3.4,13.7-6.9,20.2-11s11.8-9.2,19.1-11.5c-1.5,3.1,0,7,2.2,9.6    c0.7,1,1.8,1.8,2.9,2.2c1.9,0.7,4.1-0.1,5.8-1.3c3.3-2.3,5.9-5.4,7.5-9c1.7-3.4,2.2-7.4,3.9-10.6c1.4-2.6,2.7-4.5,3-7.6    c0.5-5.4-1.5-11.2-6.2-14.1c-5.9-3.7-11.8-3-18.3-1.7c-3.8,0.8-7.1,3.3-10.5,5.1c-3.9,2.1-7.9,4.1-11.7,6.4    c-5.8,3.5-11.9,5.6-18.2,7.7c-5.8,1.9-11.6,2.1-17.5,1.8c-8.4-0.5-14.3-4.6-17.4-12.5c-0.2-0.7-0.5-1.4-0.8-2.1    c-3-5.7-4.3-12-5.6-18.2c-0.7-3.5,0.1-3.7,2.5-4.1c1.7-0.3,3.4-0.7,5-1.2c3-1,6.4-1.6,8.9-3.4c10.9-7.9,14.5-17.8,7.2-29.9    c-1.1-1.6-2.5-3.1-4-4.4c-1.7-1.7-3.5-3.4-5.4-5c-2.1-1.8-2.6-3.9-1.8-6.6c1.2-4,2.6-8,3-12.1c0.6-8.3,1.9-16.6,1.3-25    c-0.4-6.1-0.6-12.3-0.5-18.5c0.2-3.9,0.6-7.8,1.2-11.6c0.2-1.5,1.1-1.9,2.6-1.5c1.9,0.4,3.8,0.7,5.8,0.7    c6.6-0.1,13.3-0.2,19.9-0.4c13.5-0.2,26.9-3.1,39.4-8.4c5.4-2.4,10.8-4.7,16-7.4c9-4.6,18.1-8.9,26.5-14.4    c9.7-6.4,20.1-11.2,30.7-15.8c7-3.1,14.4-4.9,22.1-5.4c3.9-0.3,7.8-1.2,11.4-2.7c3.9-1.6,7.6-3.6,11.6-4.7c3.4-0.9,5.2-2.4,5.1-6    c-0.1-1.5,0.9-2.2,2.3-2.2c3-0.1,5.9,0,8.9-0.1c5.5-0.3,10.6-1.3,14.7-5.6c2.2-2.2,5.2-3.7,6.1-7.1c2.9-1.2,6-2,8.7-3.6    c2.1-1.3,3.9-3.1,5.2-5.1c1.2-1.7,2.3-2,4.2-1.9c4.3,0.3,10.4-0.2,12-4.9c1.5-5.2,0.7-10.8-2.3-15.3    C603.6,188.3,600.8,185.7,597.6,183.8z M602.5,203.3c-0.1,0.3-0.2,0.6-0.5,0.8c-0.2,0.2-0.4,0.4-0.7,0.6c-0.5,0.4-1,0.6-1.6,0.8    c-0.3,0.1-0.5,0.1-0.8,0.1c-0.2,0-0.5-0.1-0.7-0.1c-1.9-0.3-3.8-0.8-5.6-1.6c-5.8-2.5-11.7-5.2-17.4-8c-1.4-0.7-2.8-1.3-4.3-1.8    c-4.3-1.5-8.9-2-13.5-1.6c-1.2,0.2-2.2,0.9-2.8,1.9c-0.1,0.2-0.2,0.4-0.3,0.6c-0.2,0.6-0.1,1.2,0.2,1.8c0.1,0.3,0.3,0.5,0.5,0.7    c0.3,0.3,0.5,0.5,0.8,0.7c0.8,0.5,1.7,1,2.6,1.4c0.9,0.4,1.8,0.7,2.7,1.1c1.6,0.5,3.3,0.9,5,1l0.4,0.1c1.3,0.2,2.6,0.4,3.8,0.7    l1.5,0.4c1.3,0.4,2.6,0.9,3.8,1.4s2.2,1,3.3,1.4c1.9,0.9,3.8,1.7,5.7,2.5c0.1,0,0.2,0.1,0.2,0.2c0.2,0.2,0.3,0.4,0.3,0.7    c0,0.1,0,0.2,0,0.3c0,0.1,0,0.2-0.1,0.3c-0.1,0.3-0.4,0.6-0.7,0.8c-1.2,0.4-2.5,0.7-3.8,1c-1.2,0.3-2.5,0.5-3.8,0.6    c-1.3,0.1-2.5,0.1-3.8,0c-1.3-0.1-2.6-0.4-3.8-0.9c-3.7-1.3-7.4-2.7-11.1-3.9c-4.7-1.5-9.3-3-14-4.3c-0.6-0.2-1.2-0.2-1.8-0.2    c-0.6,0-1.2,0.1-1.8,0.2c-0.4,0.1-0.8,0.2-1.2,0.5c-0.3,0.3-0.6,0.6-0.7,1c-0.3,0.8-0.2,1.7,0.2,2.5c0.5,0.7,1,1.4,1.6,2.1    c1.2,1.2,2.5,2.2,4.1,2.9c0.8,0.4,1.6,0.7,2.4,0.9l1.5,0.4c2.3,0.6,4.6,1.3,6.9,1.9c0.5,0.1,1,0.3,1.5,0.4    c0.3,0.1,0.6,0.2,0.9,0.3c1.8,0.6,3.5,1.3,5.2,2.2c0.7,0.3,1.1,0.9,1.1,1.7c-0.1,0.8-0.6,1.4-1.2,1.8c-1.6,1-3.3,1.8-5.1,2.3    c-2.9,0.9-6,1.1-9.1,0.6c-2.9-0.5-5.7-1.4-8.6-1.9c-5.8-1.1-11.5-2.1-17.3-2.9c-1.1,0-2.1,0.3-3.1,0.8c-0.3,0.2-0.7,0.4-1,0.5    c-1.1,0.6-1.6,2-1,3.1c0,0,0.1,0.1,0.1,0.1c0.2,0.4,0.6,0.7,1,0.9c2.8,1.5,5.7,2.8,8.7,4c0.4,0.2,0.8,0.3,1.3,0.4    c1.8,0.7,3.7,1.2,5.6,1.8c-0.2,0.9-0.8,1.7-1.6,2.3c-0.7,0.5-1.5,0.8-2.3,1c-0.5,0.1-1,0.3-1.5,0.5c-3.6,1.5-7.3,2.7-11.1,3.9    c-1.4,0.5-2.8,0.8-4.3,0.9c-1.3,0-2.6,0.1-3.9,0.3c-3.8,0.5-7.5,1.4-11.2,2.6c-2.4,0.8-4.9,1.6-7.2,2.6c-1.2,0.5-2.4,1-3.6,1.5    l-3.5,1.5c-2.6,1.1-5.2,2.4-7.8,3.7c-5.1,2.6-10.1,5.5-15,8.6c-2.4,1.5-4.9,3.1-7.2,4.8c-6.2,4.2-12.8,8-19.6,11.3    c-4.5,2.2-9.1,4.1-13.8,5.8c-7.1,2.6-14.4,4.6-21.8,6.1c-5.3,1.1-10.6,2-15.9,2.8c-0.5,0.1-1,0.1-1.4,0.1c-1,0-2-0.1-2.9-0.2    c-0.5,0-1-0.1-1.5-0.1c-6.4-0.1-12.7-0.4-19.1-0.3c-0.5,0-1,0-1.5,0.1c-1,0.1-1.9,0.3-2.9,0.6l-1.4,0.4c-1.4,0.4-2.6,1-3.8,1.9    c-1.5,1.3-2.1,3.1-2.4,6.1c-1.2,13.9-2.2,27.9-3.6,41.8c-0.2,1.7-0.4,3.4-0.6,5.1c-0.5,3.4-1,6.8-1.5,10.2    c-0.2,1.7-0.5,3.4-0.7,5.1c-0.2,1.9-0.4,3.9-0.6,5.9s-0.2,3.9-0.2,5.9c0,4.3,1.1,7.7,6,9.7l1.3,0.6c0.9,0.4,1.8,0.9,2.6,1.4    c0.4,0.3,0.9,0.6,1.2,0.9c0.8,0.6,1.5,1.3,2.1,2c0.4,0.4,0.7,0.9,1,1.4c0.3,0.5,0.6,1,0.8,1.5c0.2,0.4,0.3,0.8,0.5,1.2    c0.5,1.4,0.8,2.8,0.8,4.3c0,3-1.2,6-3.2,8.2c-1.6,1.9-3.4,3.5-5.3,5c-2,1.5-4.1,2.7-6.4,3.7c-0.6,0.3-1.2,0.6-1.8,0.9    c-0.6,0.3-1.1,0.7-1.7,1c-1.1,0.7-2.3,1.4-3.4,2.1c-0.5,0.3-1,0.6-1.4,0.9c-2.5,2-3,4.7-2.5,7.6c0.1,0.5,0.2,1,0.3,1.5    c0.6,2.3,1.3,4.6,2,6.9c0.4,1.2,0.8,2.4,1.2,3.5c1.4,4.2,3,8.3,4.9,12.3c1.1,2.2,2.4,4.3,3.9,6.2c1.4,1.8,3.1,3.5,4.9,4.9    c1.5,1.2,3.1,2.3,4.8,3.2c1.4,0.8,2.9,1.4,4.5,2c1.2,0.4,2.4,0.8,3.6,1.1c1.9,0.5,3.9,0.8,5.9,1c5.9,0.4,11.5-0.8,17.2-2.6    c1.6-0.5,3.2-1,4.8-1.6c1.6-0.6,3.1-1.2,4.6-1.9c4.5-2,8.9-4.3,13-7c2.8-1.8,5.5-3.7,8.1-5.8c1.3-1,2.6-2.1,3.9-3.2    c0.8-0.6,1.6-1.2,2.3-1.9c2.4-2.6,6-3.9,9.6-3.4c2.1,0.3,4.2,0.8,6.1,1.5c0.4,0.1,0.7,0.3,1.1,0.6c1.8,1.1,2.4,2.9,1.9,5.3    c-0.6,2.9-1.2,5.7-1.8,8.6c-0.4,1.1-1,2.1-1.9,2.9c-1.6,1.6-3.8,2.8-5.2,2.5c-0.6-0.1-1.2-0.4-1.6-0.8c-0.3-0.2-0.5-0.4-0.8-0.7    c-0.8-0.9-1.9-1.6-3.1-1.9c-0.3-0.1-0.7-0.2-1.1-0.2c-0.7,0-1.5,0-2.2,0.3c-0.8,0.2-1.6,0.6-2.3,1c-6.6,3.7-13.2,7.3-19.8,11    c-3.5,1.8-6.8,3.8-10,6c-1.3,0.9-2.6,1.7-4,2.3c-1.4,0.7-2.8,1.2-4.2,1.8c-2.1,0.8-4.3,1.5-6.4,2.4c-0.7,0.3-1.4,0.6-2.1,0.9    c-0.4,0.2-0.9,0.4-1.4,0.5c-0.5,0.1-1,0.2-1.5,0.2c-2.9,0.2-5.9,0.5-8.8,0.5c-2.1,0-4.2,0-6.2-0.2c-1.6-0.1-3.3-0.4-4.9-0.7    c-1.1-0.2-2.3-0.5-3.4-0.8c-1.2-0.3-2.3-0.8-3.5-1.3c-3.4-1.5-6.5-3.7-9-6.4c-0.9-0.9-1.7-1.9-2.5-2.9c-2.4-2.9-4.5-6-6.2-9.4    c-2.3-4.5-3.8-9.3-4.6-14.2c-0.5-3.1-1.3-6.1-2.4-9.1c-0.7-2-1.4-3.9-2.3-5.8c-0.7-1.6-1.5-3.1-2.3-4.7c-0.6-1.2-1.3-2.4-2-3.6    c-0.9-1.6-2.1-2.9-3.7-3.8c-2.5-1.4-5.3-2.2-8.2-2.4c-0.2,0-0.5,0-0.7,0.1c-0.8,0.5-1.5,1.1-2,1.9c-2.9,4.8-5.8,9.6-7.2,15.2    c-0.5,1.8-0.9,3.7-1.5,5.5c-1.5,5.5-3.2,10.9-4.5,16.5c-1.3,5.5-2.3,11-3,16.6c-0.7,5.6-1.2,11.2-1.7,16.8    c-0.3,3.4-1,6.8-1.3,10.2c-0.9,10.2-2,20.5-2.9,30.7c-0.2,2.2-0.4,4.4-0.5,6.6s-0.4,4.4-0.6,6.6s-0.5,4.4-1,6.5    c-0.4,2.2-0.9,4.3-1.5,6.4c-0.5,1.7-1,3.3-1.6,4.9c-0.4,0.9-0.9,1.7-1.6,2.3c-0.7,0.7-1.6,1.2-2.5,1.6c-3.9,1.7-7.8,3.5-11.7,5.3    s-7.8,3.6-11.7,5.3c-1.6,0.7-3.2,1.2-4.8,1.7c-1.6,0.5-3.3,1-4.9,1.5c-0.4,0.2-0.8,0.4-1.1,0.6c-1.1,0.8-2,1.8-3.4,1    c-0.5-0.3-0.9-0.8-1.2-1.3c-0.2-0.5-0.2-1-0.2-1.5c0-0.3,0.1-0.5,0.1-0.8c0.2-0.8,0.3-1.6,0.3-2.5c0-0.5,0.1-1,0.2-1.5    c0.4-0.9,1-1.7,1.7-2.3c0.4-0.3,0.7-0.7,1.1-1c1.4-1.2,2.8-2.4,4.3-3.5c2.2-1.6,4.5-3,7-4.2c1.7-0.8,3.4-1.5,5.1-2    c0.9-0.3,1.8-0.5,2.7-0.7s1.9-0.5,2.7-0.7c0.2-0.7,0.5-1.2,0.3-1.5c-0.5-1.2-0.7-2.5-0.9-3.7c-0.3-3.1,0.4-6.1,0.9-9.2    c0.1-0.6,0.2-1.2,0.3-1.9c0.5-3.2,1.1-6.4,1.6-9.6c0.9-4.8,1.7-9.6,2.4-14.4s1.3-9.7,1.6-14.5s1-9.9,1.7-14.8    c0.2-1.6,0.5-3.3,0.7-4.9c0.6-4.5,1.1-9,1.7-13.5s1.2-9,2-13.5c1.2-7.5,2.9-14.9,4.5-22.4c3-14.1,6-28.3,9-42.4    c0.5-2.2,0.9-4.3,1.4-6.5s1.1-4.3,1.8-6.4c0.8-2.3,1.4-4.6,2-6.9s1.1-4.6,1.6-7c1-4.7,1.9-9.4,2.8-14c1.2-5.8,2.9-11.4,4.3-17.1    c0.7-2.6,1.2-5.3,1.5-7.9c0.1-2,0.4-4,0.7-6c0.7-4,1.7-7.9,2.2-11.9c0.3-2,0.4-4,0.3-6.1c-0.2-6.1,0-12.3-0.3-18.5    c-0.1-2.5-0.7-5-1.7-7.3c-0.7-1.5-1.5-2.9-2.4-4.2c-1.4-2-3-4-4.7-5.8c-0.1-0.2-0.3-0.3-0.5-0.4c0,0-0.1-0.1-0.1-0.1    c-3.4-0.7-6.1-2.5-8.8-4.4c-0.9-0.6-1.7-1.2-2.6-1.8s-1.8-1.2-2.8-1.8c-1-0.6-2-1.1-3-1.5c-0.7-0.2-1.4-0.6-2-1    c-1.8-1.5-3.8-2.8-5.8-4c-2-1.2-4.1-2.3-6.1-3.3c-4.2-2.1-8.4-3.9-12.6-6.1c-3.2-1.7-6.3-3.8-9.4-5.8c-2.1-1.3-4-2.9-6.2-4    c-6.1-3.3-11.7-7.4-16.7-12.2c-2-1.9-3.9-3.9-5.7-6c-0.9-1-1.8-2.1-2.7-3.2c-3.9-4.9-7.7-9.9-11.4-14.9s-7.3-10.2-11-15.2    c-1.1-1.5-2-3-2.9-4.6c-0.4-0.8-0.9-1.5-1.3-2.3c-4.8-10.2-9.5-20.5-14.1-30.8c-3.2-7.2-6.1-14.5-9.6-21.6c-0.5-1-1.1-2.1-1.6-3.1    s-1.2-2-1.8-3c-1.3-2-2.6-3.9-3.9-5.8c-0.4-0.6-0.9-1.2-1.4-1.7c-1.6-1.5-3.9-2.2-6.1-1.8c-5.3,0.7-10.2-0.8-14.8-3.3    c-1-0.5-1.9-1.1-2.7-1.8c-0.9-0.7-1.7-1.4-2.6-2.1c-0.3-0.2-0.5-0.5-0.6-0.8c-0.1-0.2-0.1-0.3-0.2-0.5c0-0.1,0-0.3,0-0.4    c0-0.1,0.1-0.2,0.2-0.3c0.4-0.4,0.9-0.6,1.4-0.6c4.4-0.1,8.8-0.2,13.3-0.2c0.5,0.1,0.9,0,1.4-0.2c0.1-0.1,0.1-0.3,0.1-0.5    c0-0.2,0-0.4-0.2-0.6l-0.4-0.4c-0.2-0.3-0.5-0.5-0.9-0.7c-0.1-0.1-0.3-0.1-0.4-0.1c-1.6-0.1-3.2-0.4-4.8-0.8    c-1.5-0.4-3.1-0.8-4.6-1.3c-3-1-5.9-2.2-8.9-3.1c-0.1-1.1,0.2-1.6,0.7-1.8s1.1-0.2,1.6-0.4c2.5-0.9,4.9-1.9,7.3-3.2    c0.6-0.4,1-1,1.2-1.6c0.3-0.7,0.4-1.4,0.4-2.1c0-0.3-0.5-0.7-1-1c-0.6-0.3-1.2-0.6-1.8-0.8c-0.9-0.2-1.8-0.2-2.7-0.1    c-0.3,0-0.6,0-0.9,0l0,0c-4.8,0-9.5,0.1-14.3,0.2c-4.6,0.1-9.2,0.1-13.7,0c-2,0-3.9-0.1-5.9-0.3l-0.8-0.1c-1.9-0.2-3.8-0.6-5.7-1    c-1.4-0.3-2.8-0.9-4-1.7c-1.2-0.8-2.1-1.9-2.7-3.2c-0.4-1-0.7-2-0.8-3.1c-0.1-0.8,0.1-1.5,0.5-2.2c0.4-0.6,1.1-0.9,1.8-1    c0.8-0.1,1.7-0.2,2.5-0.2c0.9,0,1.7,0.1,2.6,0.2l1.2,0.1c14,1.7,28.1,2.3,42.2,1.9c0.6,0,1.2,0,1.8,0c0.6,0,1.2,0.1,1.8,0.2    c2.8,0.6,5.6,1.4,8.5,2.1c1.2,0.3,2.4,0.5,3.7,0.7c4.8,0.7,9.1,3,13.5,4.7c1.5,0.6,3,1.1,4.5,1.5c1.1,0.3,2.1,1.3,3.1,2.2    c0.3,0.3,0.6,0.6,1,0.8c3.3,2.2,6.4,4.6,9.2,7.4c4.5,4.5,8.3,9.6,11.3,15.2c1.3,2.3,2.4,4.7,3.4,7.2c1,2.3,1.9,4.7,2.7,7.1    c1.2,3.7,2.5,7.4,3.9,11.1c1.3,3.7,2.7,7.4,4.1,11c1.9,4.8,4.1,9.4,6.2,14.1c1.1,2.6,2.2,5.2,3.3,7.8s2.2,5.2,3.6,7.6    c4,7.5,8.8,14.5,14.4,20.9c5.6,6.4,12.1,12,19.2,16.7c2.7,1.7,5.3,3.6,7.9,5.5s5.1,3.8,7.7,5.7c4.3,3.1,8.9,5.7,13.7,7.8    c3.7,1.7,7.5,3.2,11.2,4.8l1.8,0.7c3.3,1.3,6.5,2.7,9.6,4.4c0.5,0.3,0.9,0.6,1.3,0.9c0.4,0.4,0.8,0.7,1.2,1.1    c0.8,0.8,1.5,1.7,2.2,2.5c1,1.3,2.3,2.2,3.9,2.7c0.6,0.1,1.1,0.2,1.7,0.2c1.4,0,2.9,0.1,4.3,0.4c1.4,0.3,2.7,0.7,4.1,1.1    c1.1,0.4,2.2,0.9,3.2,1.4c0.6,0.3,1.1,0.6,1.7,0.9c0.9,0.5,1.7,1,2.6,1.5c9.9,6.2,20.6,10.3,31.5,14.1c1.8,0.6,3.7,1,5.6,1.2    c0.8,0.1,1.5,0.2,2.3,0.2c2.7,0.2,5.4,0.5,8.1,0.7s5.4,0.3,8.1,0.4c2,0.1,4,0,6,0c13.8-0.6,26.9-4.8,39.8-9.8    c9.2-3.5,17.6-8.6,25.8-14.1c4.1-2.8,8.3-5.3,12.5-7.9c2.4-1.5,4.8-3,7.1-4.7c6.8-5,13.1-10.7,18.7-17.1    c8.4-9.3,17.9-17.6,28.4-24.5c1.9-1.2,3.9-2.1,5.9-2.9c0.7-0.3,1.3-0.5,2-0.8c1.1-0.5,2.2-0.9,3.4-1.4c1.1-0.4,2.3-0.8,3.4-1.2    c4-1.1,8-2.5,12-2.8c2.1-0.1,4.2-0.3,6.2-0.4c4.2-0.2,8.4-0.2,12.5-0.3c2.1,0,4.2-0.1,6.3-0.1c0.9,0,1.7,0,2.6,0.1    c2.1,0.2,4.1,0.8,5.9,1.8c0.4,0.2,0.9,0.5,1.3,0.7c0.4,0.2,0.9,0.4,1.3,0.6c2.7,0.6,5.3,1.5,7.8,2.7c2.7,1.3,5.3,2.8,7.8,4.5    c1.9,1.3,3.8,2.7,5.6,4.2c2.1,1.7,4.1,3.6,6,5.4c0.2,0.2,0.4,0.3,0.5,0.5c0.3,0.3,0.5,0.7,0.7,1.1    C602.4,202.4,602.6,202.9,602.5,203.3z"/>
		<path class="st0" d="M227.5,585.3c1.4,0.9,2.4-0.2,3.4-1c0.3-0.3,0.7-0.5,1.1-0.6c1.6-0.6,3.3-1,4.9-1.5c1.6-0.5,3.3-1,4.8-1.7    c3.9-1.7,7.8-3.5,11.7-5.3s7.8-3.6,11.7-5.3c0.9-0.4,1.8-0.9,2.5-1.6c0.7-0.7,1.2-1.5,1.6-2.3c0.6-1.6,1.2-3.2,1.6-4.9    c0.6-2.1,1.2-4.3,1.5-6.4c0.4-2.2,0.7-4.3,1-6.5s0.4-4.4,0.6-6.6s0.3-4.4,0.5-6.6c0.9-10.2,2-20.5,2.9-30.7    c0.3-3.4,1-6.8,1.3-10.2c0.5-5.6,1-11.2,1.7-16.8c0.7-5.6,1.7-11.2,3-16.6c1.3-5.5,3-11,4.5-16.5c0.5-1.8,1-3.7,1.5-5.5    c1.4-5.6,4.3-10.4,7.2-15.2c0.5-0.8,1.2-1.5,2-1.9c0.2-0.1,0.5-0.2,0.7-0.1c2.9,0.2,5.7,1,8.2,2.4c1.5,0.9,2.8,2.2,3.7,3.8    c0.7,1.2,1.3,2.4,2,3.6c0.8,1.5,1.6,3.1,2.3,4.7c0.9,1.9,1.6,3.8,2.3,5.8c1,3,1.8,6,2.4,9.1c0.8,5,2.4,9.8,4.7,14.2    c1.7,3.3,3.8,6.5,6.2,9.4c0.8,1,1.6,1.9,2.5,2.9c2.5,2.7,5.6,4.9,9,6.4c1.1,0.5,2.3,0.9,3.5,1.3c1.1,0.3,2.3,0.6,3.4,0.8    c1.6,0.3,3.2,0.5,4.9,0.7c2.1,0.2,4.2,0.2,6.2,0.2c2.9,0,5.9-0.3,8.8-0.5c0.5,0,1-0.1,1.5-0.2c0.5-0.1,0.9-0.3,1.4-0.5    c0.7-0.3,1.4-0.6,2.1-0.9c2.1-0.9,4.3-1.6,6.4-2.4c1.4-0.5,2.9-1.1,4.2-1.8c1.4-0.7,2.7-1.4,4-2.3c3.2-2.2,6.6-4.2,10-6    c6.6-3.7,13.2-7.3,19.8-11c1.4-0.8,3-1.7,4.4-0.8s1.7,2.8,1.5,4.2c-0.2,2.1-1.3,4-1.6,6s0.5,4.6,2.5,5.1c1.8,0.4,3.5-1.1,4.7-2.6    c2.7-3.4,4.7-7.2,6.1-11.3c1.3-4,1.6-8.2,2.4-12.3c0.5-2.4-0.1-4.2-1.9-5.3c-0.3-0.2-0.7-0.4-1.1-0.6c-2-0.7-4.1-1.2-6.1-1.5    c-3.6-0.5-7.1,0.8-9.6,3.4c-0.7,0.7-1.5,1.2-2.3,1.9c-1.3,1.1-2.6,2.1-3.9,3.2c-2.6,2-5.3,4-8.1,5.8c-4.1,2.7-8.5,5-13,7    c-1.5,0.7-3,1.3-4.6,1.9s-3.1,1.1-4.8,1.6c-5.7,1.7-11.3,3-17.2,2.6c-2-0.1-4-0.4-5.9-1c-1.2-0.3-2.4-0.7-3.6-1.1    c-1.5-0.6-3-1.2-4.5-2c-1.7-0.9-3.3-1.9-4.8-3.1c-1.8-1.4-3.5-3.1-4.9-4.9c-1.5-1.9-2.8-4-3.9-6.2c-1.9-4-3.5-8.1-4.9-12.3    c-0.4-1.2-0.8-2.4-1.2-3.5c-0.8-2.3-1.5-4.6-2-6.9c-0.1-0.5-0.2-1-0.3-1.5c-0.5-3,0-5.7,2.5-7.6c0.4-0.3,0.9-0.7,1.4-0.9    c1.2-0.6,2.3-1.4,3.4-2.1c0.6-0.4,1.1-0.7,1.7-1c0.6-0.3,1.2-0.6,1.8-0.9c2.3-1,4.4-2.2,6.4-3.7c1.9-1.5,3.7-3.1,5.3-5    c2-2.2,3.2-5.2,3.2-8.2c0-1.5-0.3-2.9-0.8-4.3c-0.1-0.4-0.3-0.8-0.5-1.2c-0.2-0.5-0.5-1-0.8-1.5c-0.3-0.5-0.7-1-1-1.4    c-0.6-0.7-1.4-1.4-2.1-2c-0.4-0.3-0.8-0.6-1.2-0.9c-0.8-0.5-1.7-1-2.6-1.4l-1.3-0.6c-4.9-2-6-5.4-6-9.7c0-2,0.1-3.9,0.2-5.9    c0.1-2,0.3-3.9,0.6-5.9c0.2-1.7,0.4-3.4,0.7-5.1c0.5-3.4,1-6.8,1.5-10.2c0.2-1.7,0.4-3.4,0.6-5.1c1.4-13.9,2.4-27.9,3.6-41.8    c0.2-2.9,0.9-4.8,2.4-6.1c1.1-0.9,2.4-1.5,3.8-1.9l1.4-0.4c1-0.3,1.9-0.5,2.9-0.6c0.5-0.1,1-0.1,1.5-0.1c6.4,0,12.7,0.2,19.1,0.3    c0.5,0,1,0,1.5,0.1c1,0.1,2,0.2,2.9,0.2c0.5,0,1,0,1.4-0.1c5.3-0.8,10.6-1.7,15.9-2.8c7.4-1.5,14.6-3.6,21.6-6.2    c4.7-1.7,9.3-3.6,13.8-5.8c6.8-3.3,13.4-7.1,19.6-11.3c2.4-1.6,4.8-3.2,7.2-4.8c4.9-3.1,9.9-6,15-8.6c2.6-1.3,5.2-2.5,7.8-3.7    l3.5-1.5c1.2-0.5,2.4-1,3.6-1.5c2.4-0.9,4.8-1.8,7.2-2.6c3.7-1.2,7.4-2,11.3-2.5c1.3-0.1,2.6-0.2,3.9-0.3c1.5-0.1,2.9-0.4,4.3-0.9    c3.7-1.2,7.5-2.4,11.1-3.9c0.5-0.2,1-0.4,1.5-0.5c0.8-0.2,1.6-0.6,2.3-1c0.2-0.2,0.4-0.4,0.6-0.6c0.4-0.5,0.8-1.1,0.9-1.7    c-1.9-0.6-3.8-1.2-5.6-1.8c-0.4-0.1-0.9-0.3-1.3-0.4c-3-1.2-5.8-2.6-8.7-4c-0.4-0.2-0.8-0.5-1-0.9c-0.7-1.1-0.3-2.5,0.8-3.2    c0,0,0.1-0.1,0.1-0.1c0.3-0.2,0.6-0.4,1-0.5c0.9-0.6,2-0.8,3.1-0.8c5.8,0.8,11.6,1.8,17.3,2.9c2.9,0.5,5.7,1.4,8.6,1.9    c3,0.5,6.1,0.3,9.1-0.6c1.8-0.6,3.5-1.3,5.1-2.3c0.7-0.4,1.1-1,1.2-1.8c0-0.7-0.4-1.4-1.1-1.7c-1.7-0.8-3.4-1.6-5.2-2.2    c-0.3-0.1-0.6-0.2-0.9-0.3c-0.5-0.2-1-0.3-1.5-0.4c-2.3-0.7-4.6-1.3-6.9-1.9l-1.5-0.4c-0.8-0.2-1.6-0.5-2.4-0.9    c-1.5-0.7-2.9-1.7-4.1-2.9c-0.6-0.7-1.1-1.4-1.6-2.1c-0.5-0.7-0.6-1.7-0.2-2.5c0.1-0.4,0.4-0.7,0.7-1c0.3-0.3,0.7-0.4,1.2-0.5    c0.6-0.1,1.2-0.1,1.8-0.2c0.6,0,1.2,0,1.8,0.2c4.7,1.3,9.4,2.8,14,4.3c3.7,1.2,7.4,2.6,11.1,3.9c1.2,0.4,2.5,0.7,3.8,0.9    c1.3,0.1,2.5,0.1,3.8,0c1.3-0.1,2.5-0.3,3.8-0.6c1.2-0.3,2.5-0.6,3.8-1c0.3-0.2,0.6-0.4,0.7-0.8c0-0.1,0.1-0.2,0.1-0.3    c0-0.1,0-0.2,0-0.3c-0.1-0.2-0.2-0.5-0.3-0.7c-0.1-0.1-0.1-0.1-0.2-0.2c-1.9-0.8-3.8-1.7-5.7-2.5c-1.1-0.5-2.2-1-3.3-1.4    s-2.5-1-3.8-1.4c-0.5-0.1-1-0.3-1.5-0.4c-1.3-0.3-2.5-0.6-3.8-0.7c-0.1,0-0.3-0.1-0.4-0.1c-1.7-0.1-3.4-0.5-5-1    c-0.9-0.3-1.8-0.6-2.7-1c-0.9-0.4-1.8-0.9-2.6-1.4c-0.3-0.2-0.6-0.4-0.8-0.7c-0.2-0.2-0.4-0.5-0.5-0.7c0-0.1-0.1-0.2-0.2-0.3    c-0.2-0.5-0.2-1-0.1-1.5c0.1-0.2,0.2-0.4,0.3-0.6c0.6-1,1.7-1.7,2.8-1.9c4.6-0.5,9.2,0.1,13.5,1.6c1.5,0.5,2.9,1.1,4.3,1.8    c5.7,2.8,11.5,5.4,17.4,8c1.8,0.8,3.7,1.3,5.6,1.6c0.2,0,0.5,0.1,0.7,0.1c0.3,0,0.5,0,0.8-0.1c0.6-0.2,1.1-0.4,1.6-0.8    c0.2-0.2,0.5-0.3,0.7-0.6c0.2-0.2,0.4-0.5,0.5-0.8c0.1-0.5,0-0.9-0.2-1.3c-0.2-0.4-0.4-0.8-0.7-1.1c-0.2-0.2-0.3-0.4-0.5-0.5    c-2-1.9-4-3.7-6-5.4c-1.8-1.5-3.7-2.9-5.6-4.2c-2.5-1.7-5.1-3.2-7.8-4.5c-2.5-1.1-5.1-2.1-7.8-2.7c-0.5-0.1-0.9-0.3-1.3-0.6    c-0.4-0.2-0.9-0.5-1.3-0.7c-1.8-1-3.8-1.6-5.9-1.8c-0.9-0.1-1.7-0.1-2.6-0.1c-2.1,0.1-4.2,0.1-6.3,0.1c-4.2,0.1-8.4,0.1-12.5,0.3    c-2.1,0.1-4.2,0.2-6.2,0.4c-4.1,0.3-8.1,1.7-12,2.8c-1.2,0.3-2.3,0.7-3.4,1.2s-2.2,0.9-3.4,1.4c-0.7,0.3-1.4,0.6-2,0.8    c-2.1,0.7-4.1,1.7-5.9,2.9c-10.4,7-19.9,15.2-28.4,24.5c-5.6,6.4-11.9,12.1-18.7,17.1c-2.3,1.7-4.7,3.2-7.1,4.7    c-4.2,2.5-8.4,5.1-12.5,7.9c-8.2,5.5-16.6,10.6-25.8,14.1c-12.9,5-26,9.2-39.8,9.8c-2,0.1-4,0.1-6,0c-2.7-0.1-5.4-0.2-8.1-0.4    s-5.4-0.4-8.1-0.7c-0.8-0.1-1.5-0.1-2.3-0.2c-1.9-0.2-3.8-0.6-5.6-1.2c-10.9-3.8-21.6-7.9-31.5-14.1c-0.9-0.5-1.7-1-2.6-1.5    c-0.6-0.3-1.1-0.6-1.7-0.9c-1-0.5-2.1-1-3.2-1.4c-1.3-0.5-2.7-0.9-4.1-1.1c-1.4-0.3-2.9-0.4-4.3-0.4c-0.6,0-1.2-0.1-1.7-0.2    c-1.5-0.5-2.9-1.4-3.9-2.7c-0.7-0.8-1.4-1.7-2.2-2.5c-0.4-0.4-0.8-0.8-1.2-1.1c-0.4-0.3-0.8-0.7-1.3-0.9c-3.1-1.7-6.3-3.1-9.6-4.4    l-1.8-0.7c-3.8-1.5-7.5-3.1-11.2-4.8c-4.8-2.1-9.4-4.7-13.7-7.8c-2.6-1.9-5.1-3.8-7.7-5.7s-5.2-3.7-7.9-5.5    c-3.6-2.3-7-4.9-10.2-7.7c-3.2-2.8-6.2-5.7-8.9-8.9c-5.6-6.4-10.4-13.4-14.4-20.9c-1.3-2.5-2.5-5-3.6-7.6s-2.1-5.2-3.3-7.8    c-2.1-4.7-4.3-9.3-6.2-14.1c-1.4-3.7-2.8-7.3-4.1-11c-1.3-3.7-2.6-7.4-3.9-11.1c-0.8-2.4-1.7-4.8-2.7-7.1c-1-2.4-2.2-4.8-3.4-7.2    c-3-5.6-6.8-10.7-11.3-15.2c-2.8-2.8-5.9-5.2-9.2-7.4c-0.4-0.2-0.7-0.5-1-0.8c-0.8-1-1.9-1.7-3.1-2.2c-1.5-0.4-3-0.9-4.5-1.5    c-4.4-1.8-8.7-4-13.5-4.7c-1.2-0.2-2.5-0.4-3.7-0.7c-2.8-0.6-5.6-1.5-8.5-2.1c-0.6-0.1-1.2-0.2-1.8-0.2c-0.6,0-1.2,0-1.8,0    C106,72,91.9,71.3,77.9,69.7l-1.2-0.1c-0.8-0.1-1.7-0.2-2.6-0.2c-0.9,0-1.7,0.1-2.5,0.2c-0.7,0.1-1.4,0.4-1.8,1    c-0.4,0.6-0.6,1.4-0.5,2.2c0.1,1.1,0.3,2.1,0.8,3.1c0.6,1.3,1.5,2.4,2.7,3.2c1.2,0.8,2.6,1.4,4,1.7c1.9,0.4,3.8,0.8,5.7,1l0.8,0.1    c2,0.2,3.9,0.3,5.9,0.3c4.6,0.1,9.2,0,13.7,0c4.8-0.1,9.5-0.1,14.3-0.2c0.3,0,0.6,0,0.9,0c0.9-0.1,1.8,0,2.7,0.2    c0.6,0.2,1.2,0.5,1.8,0.8c0.6,0.3,1,0.7,1,1c0,0.7-0.1,1.4-0.4,2.1c-0.2,0.6-0.6,1.2-1.1,1.6c-2.3,1.3-4.8,2.4-7.3,3.3    c-0.5,0.2-1.1,0.2-1.6,0.4s-0.8,0.7-0.7,1.8c3,0.9,5.9,2.1,8.9,3.1c1.5,0.5,3,1,4.6,1.3c1.6,0.4,3.1,0.6,4.8,0.8    c0.2,0,0.3,0.1,0.4,0.1c0.3,0.2,0.6,0.4,0.9,0.7l0.4,0.4c0.1,0.2,0.2,0.4,0.2,0.6c0,0.2,0,0.5-0.1,0.5c-0.4,0.2-0.9,0.2-1.4,0.2    c-4.4,0.1-8.8,0.1-13.3,0.2c-0.5,0-1,0.3-1.4,0.6c-0.1,0.1-0.2,0.2-0.2,0.3c0,0.1,0,0.3,0,0.4c0,0.2,0.1,0.3,0.2,0.5    c0.1,0.3,0.4,0.6,0.6,0.8c0.8,0.7,1.7,1.4,2.6,2.1c0.9,0.7,1.8,1.3,2.7,1.8c4.6,2.5,9.5,4,14.8,3.3c2.2-0.4,4.5,0.3,6.1,1.8    c0.5,0.5,1,1.1,1.4,1.7c1.3,1.9,2.7,3.8,3.9,5.8c0.6,1,1.2,2,1.8,3s1.1,2,1.6,3.1c3.4,7,6.3,14.4,9.6,21.6    c4.6,10.3,9.3,20.6,14,30.8c0.4,0.8,0.8,1.6,1.3,2.3c0.9,1.6,1.9,3.1,2.9,4.6c3.7,5.1,7.3,10.2,11,15.2s7.4,10.1,11.4,14.9    c0.9,1.1,1.8,2.1,2.7,3.2c1.8,2.1,3.7,4.1,5.7,6c5,4.8,10.7,8.9,16.8,12.2c2.2,1.1,4.1,2.7,6.2,4c3.1,2,6.2,4,9.4,5.8    c4.1,2.2,8.4,4,12.6,6.1c2.1,1,4.2,2.1,6.2,3.3c2,1.2,4,2.5,5.8,4c0.6,0.4,1.3,0.8,2,1c1.1,0.4,2.1,0.9,3,1.5    c1,0.5,1.9,1.1,2.8,1.8l2.6,1.8c2.7,1.9,5.5,3.7,8.8,4.4c0,0,0.1,0,0.1,0.1c0.2,0.1,0.3,0.2,0.5,0.4c1.7,1.8,3.3,3.8,4.7,5.8    c0.9,1.3,1.7,2.8,2.4,4.2c1,2.3,1.6,4.8,1.7,7.3c0.2,6.1,0.1,12.3,0.3,18.5c0.1,2-0.1,4.1-0.3,6.1c-0.5,4-1.5,7.9-2.2,11.9    c-0.4,2-0.6,4-0.7,6c-0.3,2.7-0.8,5.3-1.5,7.9c-1.4,5.7-3.1,11.4-4.3,17.1c-1,4.7-1.8,9.4-2.8,14c-0.5,2.3-1,4.7-1.6,7    s-1.3,4.6-2,6.9c-0.7,2.1-1.3,4.2-1.8,6.4s-1,4.3-1.4,6.5c-3,14.1-6,28.3-9,42.4c-1.6,7.4-3.3,14.9-4.5,22.4    c-0.7,4.5-1.4,9-2,13.5s-1.1,9-1.7,13.5c-0.2,1.6-0.4,3.3-0.7,4.9c-0.7,4.9-1.4,9.8-1.7,14.8c-0.3,4.9-0.9,9.7-1.6,14.5    s-1.6,9.6-2.4,14.4c-0.6,3.2-1.1,6.4-1.6,9.6c-0.1,0.6-0.2,1.3-0.3,1.9c-0.6,3.1-1.2,6.1-0.9,9.2c0.1,1.3,0.4,2.5,0.9,3.7    c0.1,0.3-0.2,0.9-0.3,1.5c-0.8,0.2-1.7,0.5-2.7,0.7s-1.8,0.4-2.7,0.7c-1.8,0.5-3.5,1.2-5.1,2c-2.5,1.2-4.8,2.6-7,4.2    c-1.5,1.1-2.9,2.3-4.3,3.5c-0.4,0.3-0.8,0.7-1.1,1c-0.7,0.6-1.3,1.4-1.7,2.3c-0.2,0.5-0.3,1-0.2,1.5c0,0.8-0.1,1.6-0.3,2.5    c-0.1,0.3-0.1,0.5-0.1,0.8c-0.1,0.5,0,1.1,0.2,1.5C226.5,584.6,226.9,585.1,227.5,585.3z"/>
		<path class="st0" d="M107.5,55.8c5.9,0.8,11.9,1,17.9,0.6c2.4-0.1,4.8-0.3,7.2-0.4l3.6-0.3c1.1,0,2.2-0.4,3.1-1.1    c0.4-0.3,0.7-0.8,0.9-1.2c0.2-0.5,0.4-1.1,0.4-1.7c0.3-2.5,0.6-5.1,0.8-7.7s0.4-5.1,0.5-7.7c0-0.8,0-1.7,0-2.5    c-0.3-4.1-1.3-8.2-2.9-12c-0.6-1.5-1.3-3.1-2-4.6c-0.4-0.9-1.1-1.6-2.1-1.9c-3-0.5-6-0.9-9.1-1c-1,0-2.1,0-3.2,0.1    c0.1,0.4,0.2,0.7,0.2,1c0.2,0.8,0.4,1.6,0.5,2.4c0.1,1.1,0.2,2.2,0.3,3.2c0.2,7.4-2.6,13.5-9.3,17.7c-1.6,1-3.3,1.9-5.1,2.7    c-0.9,0.4-1.7,0.7-2.6,1c-1.8,0.6-3.6,1-5.4,1.1c-1.9,0.1-3.8,0-5.7-0.4c-1-0.2-2-0.5-2.9-0.9c-3-1.1-5.6-3.1-7.4-5.7    c-1.1-1.6-2.1-3.2-2.8-5l-0.3-0.8c-0.4-1-0.6-2-0.7-3.1c0-0.5,0-1,0.1-1.4c0.2-1.4,0.7-2.8,1.4-4c0.4-0.9,0.9-1.7,1.4-2.5    c1.9-3.1,4-6.1,6.2-9.3l-0.7-0.2c-1.7-0.5-3.5-0.9-5.2-1.2c-1.9-0.3-3.9-0.5-5.9-0.6c-2-0.1-3.9-0.1-5.8-0.1s-3.9,0.1-5.8,0.2    c-1.3,0.1-2.5,0.3-3.7,0.6c-1.7,0.5-3.4,1.4-4.8,2.4c-1.4,1.1-2.7,2.4-3.7,3.9c-2.9,4.1-3.9,9.3-2.7,14.1    c1.5,5.7,4.8,10.9,9.2,14.8c0.6,0.6,1.3,1.1,2,1.7c1.3,1,2.7,1.9,4.1,2.8c1,0.5,2,1.1,3,1.5C72,51,73.5,51.6,75,52    c1.5,0.4,3.1,0.7,4.7,0.8C89,53.7,98.3,54.5,107.5,55.8z"/>
		<path class="st1" d="M172.2,13.6c1,2.6,2.2,5.2,3.1,7.8c0.5,1.3,0.9,2.6,1.2,4c0.3,1.4,0.5,2.8,0.6,4.2l0,0    c0.1,1.2,0.1,2.3,0.1,3.5c0,3.5-0.2,7-0.1,10.5c0.1,1.8-1,3.8-1.1,5.5c-0.2,1.1,0.3,2.1,1.2,2.7c0.8,0.6,1.8,0.9,2.8,1    c0.4,0,0.7,0.1,1.1,0.1c1.1,0.1,2.3,0.1,3.4,0.2c0.4,0,0.7,0.1,1.1,0.1l0.4,0.1c0.1,0,0.2,0,0.3,0c0.5-0.3,1.1-0.5,1.6-0.8    c0.5-0.2,0.9-0.5,1.2-1c1.6-3.1,3-6.3,4-9.6c1.8-5.5,2.3-11.4,1.5-17.1c-0.1-0.8-0.3-1.7-0.5-2.5c-0.6-2.5-1.5-4.9-2.2-7.4    c0-0.1,0-0.1,0-0.2c-0.2-1.2-0.5-2.4-0.9-3.5c-0.1-0.3-0.4-0.6-0.6-0.9c-0.3-0.2-0.7-0.4-1.2-0.5c-1.2-0.1-2.5-0.2-3.7-0.2    c-0.6,0-1.2,0-1.8,0l-1.8,0.1l0,0c-2.4,0-4.9,0-7.3,0.2c-0.8,0-1.5,0.2-2.2,0.6c-0.6,0.5-0.7,1.2-0.4,2.3    C172,13,172.1,13.3,172.2,13.6z"/>
		<path class="st0" d="M225.3,86.1c0,0.7,0.1,1.3,0.2,2c0,0.1,0,0.1,0,0.2c1.1,2.2,2.2,4.3,3.3,6.4s2.3,4.4,3.4,6.6    c0.3,0.6,0.8,1,1.3,1.3c0.4,0.2,0.9,0.4,1.4,0.4c0.4,0,0.7-0.1,1.1-0.2c1.6-0.6,3.2-1.2,4.8-1.8c1.6-0.6,3.1-1.4,4.5-2.3    c1.9-1.3,3.8-2.7,5.5-4.2c1.2-1.1,2.4-2.3,3.4-3.6c0.3-0.4,0.6-0.9,0.9-1.3c0.9-1.3,1.6-2.8,2.2-4.3c0.4-1.1,0.6-2.1,0.8-3.2    c0.3-1.8,0.3-3.7,0-5.6c0-0.3,0-0.5,0-0.8c0-0.2,0.1-0.5,0.2-0.7c0.7-1.1,0.7-2.4,0.1-3.6c-0.1-0.2-0.2-0.4-0.3-0.7    c-0.2-0.4-0.5-0.8-0.7-1.3c-0.9-1.7-1.9-3.5-2.9-5.1c-0.2-0.4-0.5-0.8-0.7-1.3c-0.3-0.7-0.7-1.3-1.1-1.8c-0.5-0.5-1.1-0.9-1.8-1    l-0.2-0.1c-1.4,4.6-3.5,9-6.3,12.9C240.1,79.3,233.7,83.7,225.3,86.1z"/>
		<path class="st1" d="M299.2,153.4l-0.7,1.3c4.9-0.9,8.9-1.6,12.9-2.5c2-0.4,3.9-1.3,5.5-2.7c1.5-1.4,2.8-3.1,3.6-5    c0.7-1.5,1.4-3,2-4.5c2-4.5,3.2-9.4,3.6-14.3c0.1-1,0.2-2.1,0.3-3.1c0.2-1.5,0.2-3.1,0.2-4.6c0-0.5-0.1-1-0.2-1.5    c-0.2-1.1-0.5-2.1-0.9-3.1c-1-2.3-1.5-3.2-2.5-3.2c-0.5,0.1-1.1,0.3-1.5,0.5c-0.3,0.2-0.7,0.4-1.1,0.6c-1.7,1-3.4,1.9-5,3    s-3.6,1.2-5.3,1.8c-0.7,0.2-1.2,0.7-1.7,1.2c-0.2,0.3-0.4,0.6-0.5,1c-0.2,0.7-0.4,1.4-0.5,2.1c-0.1,0.7-0.1,1.5-0.1,2.2l0,0    c0,1.5,0.1,3,0.1,4.5c0,2.1-0.1,4.2-0.3,6.3c-0.7,6.2-2.9,12.2-6.4,17.4C300.2,151.4,299.8,152.2,299.2,153.4z"/>
		<path class="st0" d="M330,108c0.3,0.7,0.7,1.3,1,1.9c0.4,0.6,0.7,1.3,0.9,2c0.5,1.5,1,3,1.5,4.5c0.5,1.5,0.9,3,1.2,4.5    c0.3,1.5,0.5,3.1,0.5,4.7c0,1.6-0.1,3.3-0.5,4.8c-0.9,3.9-0.9,8.1-1.3,12.4c3.9-1.3,7.3-3.6,9.9-6.7c2.4-3,4.4-6.4,5.7-10    c1-2.4,1.7-5,2-7.6c0.1-1.2,0.2-2.5,0.2-3.8c0-1.4-0.1-2.9-0.3-4.3c-0.3-2.3-0.8-4.6-1.4-6.9c-0.7-2.5-1.6-4.9-2.5-7.3    c-0.2-0.5-0.4-0.9-0.7-1.3c0-0.1-0.1-0.1-0.2-0.1c-0.4-0.5-1.1-0.7-1.8-0.6c-0.5,0.2-0.9,0.4-1.3,0.7c-2,1.4-4,2.8-6,4.2    s-3.9,2.9-5.9,4.3c-0.7,0.5-1.3,1.2-1.5,2C329.4,106.4,329.6,107.3,330,108z"/>
		<path class="st0" d="M378.6,99c1,3.4,1.4,7,1.3,10.5c-0.1,3.5,0.1,5.4,1.3,6.4c0.7,0.5,1.4,0.8,2.2,0.8l0.4,0.1    c1.4,0.1,2.8,0.1,4.2,0c0.7,0,1.5-0.1,2.2-0.1c0.6,0,1.1-0.2,1.7-0.3c1-0.4,1.9-1,2.5-1.9c0.4-0.4,0.7-0.9,0.9-1.4    c1-1.9,1.6-3.9,1.9-5.9c0.3-2,0.3-4.1,0.1-6.1v0c-0.1-1.7-0.4-3.3-0.8-4.9c-0.4-1.6-0.9-3.1-1.5-4.6c-0.3-0.7-0.7-1.4-1.1-2.1    c-1.3-2.2-3-4.1-5-5.6l-0.3-0.2c-1-0.8-2.2-1.4-3.5-1.8c-0.5-0.1-1-0.1-1.5-0.1c-3.1,0.2-6.2,0.4-9.6,0.7l-3.6,0.2    c1.5,2.2,2.9,4.4,4.1,6.6C376.2,92.3,377.6,95.6,378.6,99z"/>
		<path class="st1" d="M258.5,127c-2.9,1.4-6.1,2.3-9.4,2.5c-0.7,0-1.4,0.4-1.7,1c-0.1,0.3-0.2,0.7-0.1,1c0,0.1,0.1,0.3,0.1,0.4    c0.1,0.3,0.2,0.5,0.3,0.8c1.7,3,3.6,5.8,5.6,8.6c0.6,0.8,1.2,1.6,1.9,2.4c0.8,1,2.3,1.3,3.5,0.8c0.8-0.2,1.7-0.6,3-1.1    c3.4-1.3,6.6-3.3,9.4-5.7c0.9-0.8,1.8-1.6,2.6-2.5l1.4-1.5c1-1,1.9-2.1,2.8-3.1c1.4-1.6,2.6-3.3,3.6-5.1c0.7-1.2,1.3-2.5,1.8-3.9    c0.3-0.8,0.5-1.7,0.7-2.6c0.1-0.4,0.1-0.8,0.1-1.2c0-0.4,0-0.8-0.1-1.2c-0.1-0.8-0.4-1.5-0.9-2.2c-0.2-0.4-0.5-0.7-0.8-1    c-0.4-0.3-0.7-0.7-1.1-0.9c-1.1-0.8-2.2-1.7-3.1-2.7l-1.2-1.1c-1.2,1.6-2.3,3-3.3,4.3s-2,2.6-3,3.8c-0.7,0.9-1.4,1.7-2.1,2.5    C265.6,122.5,262.3,125.1,258.5,127z"/>
		<path class="st0" d="M203.6,60.5c0.9,0.6,1.9,1.1,3,1.5c0.5,0.1,1,0,1.4-0.2c0.3-0.1,0.5-0.3,0.7-0.5c0.6-0.5,1.2-1.1,1.8-1.7    c1.7-1.8,3.2-3.8,4.9-5.5c0.4-0.3,0.7-0.7,1-1.2c0.5-0.8,0.9-1.7,1.1-2.6c0.1-0.5,0.2-1,0.2-1.5c0.5-5.9,1-11.7,1.7-17.5    c0.1-0.6,0.2-1.2,0.4-1.8c0.4-1.2,0.7-2.4,0.9-3.6c0.1-0.6,0.1-1.1,0-1.7c-0.2-1-0.8-1.8-1.7-2.3c-0.6-0.3-1.2-0.6-1.9-0.9    c-1-0.3-1.9-0.8-2.8-1.4c-0.6-0.5-1.3-1.1-2-1.6c-2.2-1.7-4.8-2.9-7.6-3.4c0.3,1.9,0.5,3.5,0.8,5.1c1.1,6.2,1.8,12.4,0.4,18.5    c-0.5,2.1-1.2,4.1-2.1,6c-1.1,2.2-1.8,4.6-3,6.7c-0.5,0.9-0.9,1.6-1.3,2.3c-0.6,0.9-0.9,1.9-1,3C198.7,58.1,200.6,58.6,203.6,60.5    z"/>
		<path class="st1" d="M466.7,182.4c-0.3,0.4-0.5,0.9-0.4,1.4c0.2,0.5,0.5,0.8,1,0.9c1.2,0.4,2.5,0.6,3.9,0.6c0.4,0,0.8-0.1,1.1-0.2    c2.9-1.1,5.6-2.5,8.3-4.1c0.9-0.5,1.7-1.1,2.5-1.8c8.5-7,12.1-16.1,10.4-27.1c-0.4-2.4-0.6-3.6-1.2-4.2c-0.2-0.2-0.5-0.3-0.8-0.4    c-1-0.2-2.1-0.3-3.2-0.3c-0.6,0-1.2,0-1.9,0s-1.4,0.1-2.3,0.1l-4.9,0.3l-1.8,0.1c-0.3,0-0.7,0.1-1,0.2c-0.8,0.4-1.2,1.4-0.9,2.2    l0,0c0.3,1.4,0.7,2.9,0.9,4.3c0.3,2,0.5,4.1,0.5,6.1c0,2-0.3,3.9-0.7,5.9c-0.7,2.9-1.9,5.7-3.5,8.2c-0.6,0.9-1.2,1.7-1.8,2.6    C469.5,179,468,180.7,466.7,182.4z"/>
		<path class="st1" d="M217.4,64.9c-1.2,1.2-2.4,2.4-3.6,3.6c0.5,0.6,1,1.2,1.4,1.7c1.4,1.5,2.7,3.1,3.8,4.8    c0.2,0.4,0.5,0.8,0.9,1.1c0.6,0.5,1.3,0.8,2.1,0.8c0.4,0,0.9-0.1,1.3-0.2c0.9-0.2,1.9-0.5,2.8-0.9c1.7-0.7,3.3-1.6,4.8-2.6    c2.1-1.6,3.9-3.6,5.3-5.9c1-1.6,1.7-3.3,2.3-5.1c0.2-0.7,0.5-1.5,0.6-2.3c0.5-2.3,0.7-4.8,0.9-7.1c1-8.2-1.6-14.8-8.7-19.7    c0.2,3.1,0,6.1-0.8,9.1c-0.8,2.9-1.8,5.7-3.1,8.4c-0.8,1.8-1.7,3.6-2.6,5.4c-0.2,0.5-0.5,1-0.8,1.4c-1,1.3-2,2.6-3.2,3.8    C219.8,62.5,218.6,63.7,217.4,64.9z"/>
		<path class="st1" d="M355.5,98.7c1.7,4,2.9,8.3,3.5,12.6c0.3,2.2,0.4,4.4,0.5,6.7c0,0.4,0,0.8,0,1.3s0,0.9,0,1.3    c0,0.9,0,1.9,0.1,3c1.8-0.8,3.5-1.7,5.1-2.5c1.5-0.8,3.1-1.4,4.7-2c2.3-0.5,3.8-2.6,3.5-4.9c0-1.3-0.1-2.7-0.1-4.1s-0.1-2.7-0.1-4    c-0.1-2.7-0.3-5.4-0.6-8.1c-0.1-0.7-0.2-1.3-0.4-2c-0.3-1.3-0.8-2.6-1.5-3.8c-0.3-0.6-0.7-1.2-1.1-1.7c-0.8-1.1-1.8-2.2-2.8-3.2    c-1.2-1.3-2.8-2.1-4.5-2.4c-2-0.1-4,0.5-5.6,1.6c-0.8,0.5-1.7,1-2.6,1.5c-0.5,0.3-1,0.6-1.5,1c-0.3,0.2-0.5,0.6-0.6,0.9    c0,0.2,0,0.3,0,0.5c0.2,0.8,0.5,1.5,1,2.2C353.6,94.7,354.6,96.7,355.5,98.7z"/>
		<path class="st0" d="M149.5,16.6c0.6,1.6,1.2,3.1,1.7,4.7c0.5,1.6,0.9,3.1,1.3,4.8c0.7,3.2,1,6.5,0.8,9.8    c-0.4,5.8-1,11.6-1.6,18.1l6.1-0.1c2,0,3.9-0.1,5.8-0.2c0.4,0,0.9-0.1,1.3-0.2c1-0.4,1.3-1.4,1.1-3.3c-0.1-1.3-0.2-2.6-0.3-3.8    c-0.2-2.6-0.5-5.1-0.6-7.7c0-1.3,0-2.5,0.1-3.8c0.1-0.9,0.1-1.9,0-2.8c0-0.1,0-0.1,0-0.2c-0.1-1.6-0.3-3.2-0.7-4.8    c-0.4-2.1-1-4.2-1.5-6.2c-0.4-1.6-0.8-3.2-1-4.9c-0.1-0.9-0.2-1.8-0.3-2.7c0-0.2-0.3-0.5-0.6-0.7c-0.3-0.2-0.6-0.4-1-0.4    c-2.9,0.2-5.8,0.6-8.7,1C149.1,13.4,148.6,14.4,149.5,16.6z"/>
		<path class="st1" d="M521.3,149.3c0.2,0.7,0.4,1.5,0.6,2.2c1.3,4.4,2.3,8.9,1.4,13.5c-0.2,0.8-0.4,1.6-0.6,2.3    c-0.5,1.4-1,2.8-1.4,4.2c-0.1,0.4-0.1,0.8,0,1.2c0.2,1,1.3,1.5,2.6,1c2.7-1.1,5.4-2.4,8.1-3.4c3.2-1.1,4.6-3.6,5.2-6.5    c0.5-2.3,0.9-4.7,1.2-7.1c0.1-0.8,0.1-1.6,0.2-2.4c0-0.6,0-1.2,0.1-1.8c0-1.2,0.1-2.4,0.1-3.6c0-0.6-0.1-1.2-0.1-1.8    c-0.1-0.6-0.2-1.2-0.3-1.8c-0.5-1.9-1.4-3.6-2.8-4.9c-0.7-0.7-1.4-1.3-2.3-1.9c-0.8-0.5-1.8-0.7-2.8-0.6c-2.6,0.5-5.3,1-7.9,1.4    c-1.3,0.1-2.5,0.4-3.7,0.8c-0.4,0.2-0.6,0.6-0.6,1c0.2,1.2,0.6,2.3,1.1,3.4C520.2,146.1,520.8,147.7,521.3,149.3z"/>
		<path class="st0" d="M401.9,91.7c0.7,1.6,1.3,3.2,1.8,4.8c0.2,0.8,0.4,1.6,0.6,2.4c0.3,1.6,0.5,3.3,0.6,5c0,1.7,0,3.3-0.3,5    c-0.1,0.8-0.3,1.7-0.4,2.6c-0.8,3.6-2.1,7.2-3.8,10.5c0.8,0.7,1.5,1.3,2.1,1.9s1.3,1.2,2,1.7c0.7,0.7,1.6,1.2,2.5,1.5    c0.1,0.1,0.3,0.1,0.4,0.1c1.3,0.3,2.3-0.5,3.6-2.4c2.6-3.7,4.4-7.9,5.3-12.3c0.8-4.5,0.6-9.1-0.7-13.5c-2.3-8.1-3.5-11.7-5.7-13.5    l-0.2-0.2c-0.7-0.5-1.4-0.9-2.1-1.1c-2.2-0.8-5.2-1.2-9.8-2.3c-0.4-0.1-0.9,0.2-1.7,0.4c1.8,2.2,3.4,4.5,4.8,7    C401.1,90.1,401.5,90.9,401.9,91.7z"/>
		<path class="st0" d="M88.7,19.4c-1.1,1.2-1.9,2.7-2.4,4.2c-0.8,2.7-0.5,5.7,0.9,8.2c0.2,0.4,0.5,0.8,0.7,1.2    c1.6,2.2,4.1,3.6,6.9,3.8c0.4,0,0.8,0.1,1.3,0.2c1,0.2,2.2,0.4,3.5,0.7l2.3-0.7c2.4-0.6,4.8-1.4,7.2-2.3c0.8-0.3,1.6-0.7,2.3-1.2    c0.7-0.5,1.3-1,1.9-1.7c1.5-1.7,2.5-3.7,3.1-5.8c0.1-0.4,0.2-0.9,0.2-1.3c0.1-1-0.1-2.1-0.5-3c-0.2-0.5-0.5-0.9-0.8-1.3    c-0.3-0.4-0.6-0.7-0.9-1c-0.4-0.3-0.8-0.7-1.2-1c-1-0.7-2-1.4-3-2.1c-1-0.8-2.1-1.4-3.3-2c-1-0.5-2-0.9-3.1-1.1    c-0.5-0.1-1-0.2-1.5-0.3c-1-0.1-1.9-0.1-2.9,0C95.1,13.4,91.5,16.1,88.7,19.4z M101.7,18.6c0.8,0.2,2.3,0.6,3.7,1    c2,0.7,2.6,1.9,2.2,4c-0.9,4.2-2.6,6.4-5.6,6.8C98,31,95.3,28.8,95,24.7C94.7,21.7,97.8,18.6,101.7,18.6L101.7,18.6z"/>
		<path class="st1" d="M413.6,136.4l2,2.7c0.6,0.8,1.2,1.6,1.7,2.4c3.4,5,4.4,4.9,8.9,0.6c0.9-0.9,1.7-1.8,2.4-2.8    c1.7-2.5,3-5.2,4-8.1c0.2-0.6,0.4-1.1,0.6-1.7c1.2-2.9,1.7-6.1,1.5-9.3c-0.2-3.2-1.2-6.3-3-8.9c-1.6-2.5-3.1-5-4.7-7.4    c-0.5-0.8-1.1-1.5-1.8-2.1c-0.5-0.6-1.1-1.2-1.9-2.1c0.8,3.5,1.1,7.1,1.1,10.7c0,3.2-0.5,6.4-1.4,9.6    C421.3,126.1,418,131.8,413.6,136.4z"/>
		<path class="st0" d="M273.5,148.3c-0.9,0.4-1.8,0.7-2.7,1.1c-0.5,0.2-1.1,0.4-1.8,0.7s-1.6,0.6-2.9,1.1l0.5,0.3l1.9,1.3    c0.7,0.4,1.2,0.8,1.8,1.1c0.2,0.1,0.4,0.2,0.6,0.3c0.8,0.4,1.6,0.8,2.4,1.1c0.7,0.3,1.5,0.6,2.2,0.8c0.4,0.1,0.7,0.2,1.1,0.2    c0.4,0.1,0.7,0.1,1.1,0.1c1.4,0.1,2.9-0.1,4.2-0.7c0.8-0.3,1.5-0.7,2.2-1.2c1.8-1.2,3.4-2.6,4.8-4.2c4.4-4.9,8-10.5,10.4-16.7    c1.5-3.7,1.8-7.6,2-11.4c0.1-0.7-0.2-1.4-0.6-1.9c-0.5-0.6-1.3-0.9-2.1-0.9c-1.3-0.1-2.4,0.2-3,1.6c-0.1,0.2-0.2,0.4-0.3,0.7    c-0.1,0.2-0.2,0.4-0.3,0.7c-1.9,6.7-5.6,11.9-10.2,16.5c-2.7,2.8-5.7,5.3-8.7,7.9C275.2,147.4,274.4,147.9,273.5,148.3z"/>
		<path class="st0" d="M444.2,172.6c0.2,0.3,0.4,0.6,0.5,0.8c0.3,0.5,0.5,0.9,0.7,1.2c0.1,0.1,0.2,0.3,0.4,0.4    c1.6,1.4,3.3,2.5,5.2,3.5c2.2,0.9,4-0.1,7.9-3.5c1.6-1.3,3-2.9,4.2-4.5c2.3-3.3,4-6.9,4.9-10.8c0.5-2,0.9-4,1.2-6    c0.1-0.5,0.1-1.1,0.1-1.6c0-1.2-0.3-2.4-0.9-3.4c-0.2-0.3-0.4-0.6-0.6-0.8c-0.8-0.9-1.8-1.6-2.9-2.1c-0.5-0.2-1.1-0.5-1.6-0.6    l-1.4-0.5c-2-0.6-3-1-3.4-0.6s-0.4,1.3-0.3,3.3c0,0.7,0,1.4,0,2.2c-0.1,0.7-0.2,1.4-0.3,2.1c-1.4,6.5-4.6,12.5-9.3,17.2    C447.2,170.2,445.6,171.4,444.2,172.6z"/>
		<path class="st0" d="M238.9,110.1c-0.8,0.1-1.5,0.5-1.9,1.1c-0.2,0.3-0.2,0.6-0.2,0.9c0,0.4,0.1,0.8,0.3,1.1    c0.3,0.8,0.7,1.5,1.1,2.3c0.7,1.4,1.4,2.9,2.1,4.3c0.2,0.4,0.5,0.8,0.8,1.1c0.3,0.3,0.6,0.5,1,0.6c0.8,0.2,1.7,0.1,2.5-0.2    c2.4-0.8,4.6-1.9,6.8-3.2c1.1-0.6,2.1-1.3,3-2c1.9-1.4,3.8-3,5.4-4.8c0.8-0.9,1.6-1.8,2.4-2.8c1.5-1.9,2.8-4,4-6.2    c0.6-1.1,1.1-2.2,1.6-3.3c0.4-1.1,0.7-2.3,0.9-3.5c0.1-1.2,0-2.4-0.4-3.6c-0.4-1.3-1.2-2.5-2.1-3.5c-0.3,0.1-0.5,0.1-0.7,0.2    c-0.3,0.3-0.6,0.7-0.9,1.2c-0.7,1.3-1.4,2.6-2.2,3.8C257,102.2,248.6,108.1,238.9,110.1z"/>
		<path class="st0" d="M432.2,150.9c-0.7,0.6-1.6,1.3-2.3,1.9c-0.7,0.5-1.2,1.2-1.4,2.1c-0.2,1.6,1.5,3.4,2.6,5    c0.4,0.5,0.8,1,1.1,1.5c0.8,1.1,1.7,2.1,2.6,3.1l0.4,0.4c0.6,0.8,1.8,1,2.6,0.4c0.2-0.1,0.4-0.3,0.5-0.5c3-3.8,5.9-7.7,8.9-11.6    c2.5-3.2,3.2-7.1,3.9-10.9c0.3-1.5,0-3.1-0.7-4.5c-0.1-0.1-0.1-0.2-0.2-0.4c-0.2-0.3-0.4-0.6-0.6-0.9l-0.6-0.9    c-0.4-0.5-0.7-1-1.1-1.5c-0.3-0.4-0.6-0.7-0.9-1.1l0,0c-0.8-0.9-1.8-1.5-2.9-2c-0.3,0.6-0.6,1.1-0.8,1.7c-0.3,0.5-0.5,1.1-0.6,1.7    c-0.9,4-2.7,7.8-5.3,11c-1,1.3-2.1,2.5-3.3,3.7C433.5,149.8,432.9,150.4,432.2,150.9z"/>
		<path class="st0" d="M542.9,140.3l0.2,0.3c4.5,6.6,5.8,14.8,3.6,22.5c-0.2,0.6-0.3,1.2-0.3,1.8c0,0.6,0.3,1.1,0.8,1.4    c0.7,0.2,1.5,0.3,2.3,0.1c1.9-0.3,3.9-0.6,5.8-0.9c3.5-0.5,4.7-1.7,4.7-5.2c-0.1-2.4-0.4-4.9-0.6-7.3h0.1c0-1.5,0-3,0-4.4    c0-0.7,0-1.5-0.1-2.2c0-0.7-0.1-1.4-0.3-2.1c-0.2-0.9-0.5-1.8-0.8-2.6c-0.4-1-0.9-2-1.4-2.9c-0.3-0.6-0.7-1.1-1.1-1.6    c-0.5-0.6-1.3-1-2.1-1.1c-0.3,0-0.5-0.1-0.8-0.1c-1.1,0-2.3,0.3-3.4,0.4c-2,0-3.9,0.2-5.9,0.4c-0.2,0-0.3,0.1-0.4,0.3    c-0.2,0.2-0.3,0.3-0.4,0.5c-0.2,0.4-0.4,0.8-0.5,1.3C542.2,139.2,542.5,139.8,542.9,140.3z"/>
		<path class="st0" d="M501.4,170.8c-0.9,3-2,5.9-3.5,10.3c1.6-1.3,2.3-1.9,3-2.4c1-0.7,2.1-1.3,3.1-2c0.9-0.5,1.7-1,2.4-1.6    c1.3-1.2,2.4-2.4,3.6-3.7c2.6-3.1,4.1-6.9,4.5-10.9c0.1-1,0.1-1.9,0.1-2.9c0-2-0.1-3.9-0.4-5.8c-0.1-1-0.2-1.9-0.4-2.9    c-0.6-4.3-2-6.4-5-6.2c-1.2,0.1-2.4,0.5-3.6,1c-0.7,0.2-1.4,0.4-2.1,0.5c-1.7,0.5-2.5,1.1-2.8,2c-0.1,0.2-0.1,0.4-0.1,0.6    c0,0.3,0,0.5,0.1,0.8c0,0.3,0.1,0.6,0.2,0.9c0.2,0.6,0.4,1.2,0.5,1.8s0.4,1.2,0.6,1.8c0.7,2.3,1.2,4.7,1.3,7.1    c0.1,1.6,0.1,3.1-0.1,4.7C502.6,166.1,502.1,168.5,501.4,170.8z"/>
		<path class="st0" d="M568.5,146.5c0.5,1.8,0.7,3.7,0.6,5.6c-0.1,1.3-0.3,2.6-0.6,3.9c-0.6,2.6-1,5.2-1.3,7.9c0,0.3,0,0.7,0,1    c0,0.3,0.1,0.6,0.2,0.8c0.3,0.5,0.8,0.9,1.5,1c0.8,0.2,1.7,0.5,2.5,0.7c0.8,0.2,1.6,0.4,2.5,0.5c0.2,0,0.4,0,0.6-0.1    c0.5-0.1,0.9-0.4,1.3-0.8c0.1-0.1,0.2-0.3,0.3-0.5c1-4.2,1.8-8.5,2.7-12.5c-0.3-1.3-0.6-2.4-0.8-3.6c-0.3-1.1-0.5-2.2-0.6-3.3    c0-1.5-0.7-2.8-1.7-3.8c-0.4-0.3-0.8-0.6-1.2-0.8c-2.2-1.1-4.3-2.3-6.5-3.3c-0.4-0.1-0.7-0.1-1.1,0c-0.1,0-0.2,0.1-0.2,0.1    s-0.1,0.3-0.2,0.5c-0.1,0.3-0.2,0.7-0.2,1c0,0.1,0,0.3,0.1,0.4C567.2,142.8,568,144.6,568.5,146.5z"/>
		<path class="st1" d="M617.8,192.4c0.2,0.1,0.5,0.2,0.8,0.2c1.3,0.4,2.6,0.6,3.9,0.9c0.7,0.1,1.3,0.3,2,0.5s1.3,0.4,1.9,0.6    s1,0.3,1.5,0.5c3.8,1.2,7.7,2,11.6,2.5c1.8,0.3,3.6,0.6,5.4,0.9c0.3,0,0.6-0.1,0.9-0.3c0.3-0.2,0.6-0.4,1-0.6    c-0.1-0.1-0.2-0.3-0.3-0.4c-0.3-0.5-0.5-1-0.9-1.1c-2.3-0.3-4.6-1-6.7-2c-2.1-1-4.1-2.2-6-3.5c-2.2-1.5-4.4-3-6.6-4.5l-6.7-4.7    c-1,2.5-1.9,4.9-2.8,7.4c-0.3,0.7-0.4,1.4-0.4,2.1C616.5,191.6,616.9,192.1,617.8,192.4z"/>
		<path class="st1" d="M589.3,174.6c0.6,0.3,1.3,0.5,1.9,0.8c0.2,0.1,0.4,0.1,0.6,0c0.3-0.1,0.7-0.2,1-0.2c1-2,1.7-4.2,2.1-6.4    c0.5-2.2,0.7-4.5,0.9-6.8c0.1-0.7,0-1.4-0.3-2.1c-0.2-0.7-0.6-1.4-1-2c-0.4-0.6-0.8-1.2-1.3-1.8c-1-1.3-2.1-2.4-3.4-3.4    c-0.8-0.6-1.5-1.2-2.3-1.7c-0.4,5,0.1,9.1-1.3,13.1c-0.2,0.6-0.5,1.3-0.9,1.8c-0.5,0.9-1,1.8-1.4,2.8c-0.3,0.9-0.2,1.9,0.3,2.7    C585.4,173,587.4,173.8,589.3,174.6z"/>
		<path class="st0" d="M606.2,185.6c0.2,0.1,0.3,0.3,0.4,0.4l0,0c0.3,0.3,0.6,0.7,0.9,1c0.6,0.6,1.2,1.2,2.1,0.9    c0.2-0.1,0.4-0.2,0.6-0.3c1.1-0.8,1.5-2.9,1.8-4.5c0.1-0.4,0.1-0.7,0.1-1.1c0-1.1-0.1-2.2,0-3.3c0.1-0.7,0.1-1.3,0-2    c-0.1-1.2-0.4-2.3-1-3.3c-0.3-0.5-0.6-0.9-1-1.3c-1.6-1.7-3.5-3.1-5.5-4.2l-1.4,3.2c-1.4,3.2-2.7,6.1-4,9l4.1,3.3L606.2,185.6z"/>
		<path class="st1" d="M101.8,30.4c3-0.5,4.8-2.6,5.6-6.8c0.4-2-0.2-3.3-2.2-4c-1.4-0.5-2.8-0.8-3.7-1c-3.8,0-6.9,3.1-6.7,6.1    C95.2,28.8,97.9,31,101.8,30.4z"/>
		<path class="st2" d="M560.8,190.2c0,0.1,0.1,0.2,0.2,0.3C560.8,190.4,560.8,190.3,560.8,190.2z"/>
		<path class="st2" d="M125.8,14.4c-1,0-2.1,0-3.2,0.1c0.1,0.4,0.2,0.7,0.2,1c-0.1-0.3-0.2-0.7-0.2-1    C123.7,14.4,124.8,14.4,125.8,14.4z"/>
		<path class="st2" d="M101.3,43.7c1.8-0.1,3.7-0.5,5.4-1.1C104.9,43.2,103.1,43.6,101.3,43.7z"/>
		<path class="st2" d="M57.2,12.8c-0.9,0.8-1.7,1.7-2.4,2.7C55.5,14.5,56.3,13.6,57.2,12.8z"/>
		<path class="st2" d="M52.2,29.6c-0.5-1.8-0.6-3.8-0.4-5.6C51.6,25.9,51.7,27.8,52.2,29.6c1.5,5.8,4.8,10.9,9.2,14.8    C56.9,40.6,53.7,35.4,52.2,29.6z"/>
		<path class="st2" d="M67.5,48.9c-1.4-0.8-2.8-1.7-4.1-2.8C64.7,47.1,66.1,48,67.5,48.9z"/>
		<path class="st2" d="M123.7,21.1c0.2,7.4-2.6,13.5-9.3,17.7c-1.6,1-3.3,1.9-5.1,2.7c1.8-0.8,3.5-1.7,5.1-2.7    C121.1,34.6,123.9,28.5,123.7,21.1z"/>
		<path class="st2" d="M51.8,24c0.2-1.8,0.6-3.6,1.3-5.3C52.4,20.4,51.9,22.2,51.8,24z"/>
		<path class="st2" d="M84.7,9.1c1.8,0.3,3.5,0.7,5.2,1.2C88.2,9.8,86.4,9.4,84.7,9.1z"/>
		<path class="st2" d="M92.7,42.4c1,0.4,1.9,0.7,2.9,0.9C94.6,43.1,93.6,42.8,92.7,42.4c-3-1.1-5.6-3.1-7.4-5.7    C87.1,39.3,89.7,41.3,92.7,42.4z"/>
		<path class="st2" d="M82.1,30.8c0.1,0.3,0.2,0.5,0.3,0.8C82.3,31.3,82.2,31.1,82.1,30.8c-0.4-1-0.6-2-0.7-3.1    C81.5,28.8,81.7,29.8,82.1,30.8z"/>
		<path class="st2" d="M67.1,8.6c1.9-0.1,3.9-0.2,5.8-0.2C71,8.4,69.1,8.5,67.1,8.6z"/>
		<path class="st2" d="M72.9,8.4c1.9,0,3.9,0,5.8,0.1C76.8,8.3,74.9,8.3,72.9,8.4z"/>
		<path class="st2" d="M58.6,11.6c1.5-1.1,3.1-1.9,4.8-2.4C61.7,9.7,60,10.6,58.6,11.6z"/>
		<path class="st2" d="M194.1,22.2c-0.6-2.5-1.5-4.9-2.2-7.4c0-0.1,0-0.1-0.1-0.2s0,0.1,0.1,0.2C192.6,17.3,193.5,19.7,194.1,22.2z"/>
		<path class="st2" d="M184.4,53.1c-1.1-0.1-2.3-0.1-3.4-0.2C182.1,53,183.3,53,184.4,53.1z"/>
		<path class="st2" d="M185.9,53.3l-0.4-0.1C185.6,53.2,185.8,53.2,185.9,53.3z"/>
		<path class="st2" d="M185.5,9.6c1.2,0,2.5,0,3.7,0.2C188,9.6,186.7,9.6,185.5,9.6z"/>
		<path class="st2" d="M171.9,12.7c0.1,0.3,0.2,0.6,0.3,0.9c1,2.6,2.2,5.2,3.1,7.8c-0.9-2.6-2.1-5.2-3.1-7.8    C172.1,13.3,172,13,171.9,12.7z"/>
		<path class="st2" d="M181.8,9.6c0.6,0,1.2-0.1,1.8-0.1C183,9.6,182.4,9.6,181.8,9.6z"/>
		<path class="st2" d="M179.9,52.8c-1-0.1-2-0.4-2.8-1C177.9,52.4,178.9,52.7,179.9,52.8z"/>
		<path class="st2" d="M181.8,9.6c-2.4,0-4.9,0-7.3,0.2c-0.8,0-1.5,0.2-2.2,0.6c0.6-0.4,1.4-0.6,2.2-0.6    C176.9,9.6,179.4,9.7,181.8,9.6z"/>
		<path class="st2" d="M177,29.6c0.1,1.2,0.1,2.3,0.1,3.5C177.1,32,177.1,30.8,177,29.6z"/>
		<path class="st2" d="M177.1,33.1c0,3.5-0.2,7-0.1,10.5c0.1,1.8-1,3.8-1.1,5.5c0.1-1.7,1.2-3.8,1.1-5.5    C176.9,40.1,177.1,36.6,177.1,33.1z"/>
		<path class="st2" d="M225.6,88c-0.2-0.7-0.2-1.3-0.2-2c7.7-2,14.5-6.5,19.3-12.9C239.8,79.5,233,84,225.3,86    C225.3,86.7,225.4,87.3,225.6,88z"/>
		<path class="st2" d="M232.4,101.2c-1.2-2.2-2.3-4.4-3.4-6.6C230.1,96.8,231.2,99.1,232.4,101.2c0.3,0.6,0.8,1,1.3,1.3    C233.1,102.2,232.7,101.8,232.4,101.2z"/>
		<path class="st2" d="M251.2,60.2c0.7,0.1,1.3,0.5,1.8,1C252.5,60.7,251.9,60.4,251.2,60.2z"/>
		<path class="st2" d="M251,60.2c-1.4,4.6-3.5,9-6.3,12.9C247.5,69.2,249.6,64.8,251,60.2z"/>
		<path class="st2" d="M308.4,117.3c0.5-0.5,1-0.9,1.7-1.2C309.4,116.4,308.8,116.8,308.4,117.3z"/>
		<path class="st2" d="M321.5,110.7c0.5-0.3,1-0.5,1.5-0.5C322.5,110.2,321.9,110.4,321.5,110.7z"/>
		<path class="st2" d="M299.2,153.4c0.5-0.9,1-1.8,1.5-2.7c3.5-5.2,5.6-11.2,6.3-17.4c-0.7,6.2-2.9,12.2-6.4,17.4    C300.2,151.4,299.8,152.2,299.2,153.4z"/>
		<path class="st2" d="M325.5,113.3c0.4,1,0.7,2,0.9,3.1C326.2,115.3,325.9,114.3,325.5,113.3c-1-2.3-1.5-3.2-2.5-3.2    C324,110.1,324.5,111.1,325.5,113.3z"/>
		<path class="st2" d="M307.3,122.6c0,1.5,0.1,3,0.1,4.5c0,2.1-0.1,4.2-0.3,6.3c0.2-2.1,0.4-4.2,0.3-6.3    C307.4,125.6,307.3,124.1,307.3,122.6z"/>
		<path class="st2" d="M326.4,116.4c0.1,0.5,0.1,1,0.2,1.5C326.5,117.4,326.5,116.9,326.4,116.4z"/>
		<path class="st2" d="M307.3,122.6c0-0.7,0-1.5,0.1-2.2C307.3,121.1,307.3,121.8,307.3,122.6z"/>
		<path class="st2" d="M315.4,114.3c1.6-1.1,3.4-2,5-3C318.7,112.3,317,113.2,315.4,114.3z"/>
		<path class="st2" d="M334.6,130.5c0.4-1.6,0.5-3.2,0.5-4.8C335.2,127.2,335,128.9,334.6,130.5z"/>
		<path class="st2" d="M344.2,94.3c-0.5,0.1-0.9,0.3-1.3,0.6c-2,1.4-4,2.8-6,4.2c2-1.4,4-2.9,6-4.2    C343.3,94.7,343.8,94.5,344.2,94.3z"/>
		<path class="st2" d="M331,103.5c-0.7,0.5-1.3,1.2-1.5,2C329.8,104.7,330.3,104,331,103.5z"/>
		<path class="st2" d="M334.6,121c-0.3-1.5-0.7-3-1.2-4.5C333.9,118,334.3,119.5,334.6,121z"/>
		<path class="st2" d="M333.4,142.9L333.4,142.9c0.4-4.3,0.4-8.5,1.3-12.4C333.8,134.4,333.8,138.5,333.4,142.9z"/>
		<path class="st2" d="M331,110c-0.4-0.7-0.7-1.3-1-1.9c-0.4-0.8-0.6-1.6-0.4-2.5c-0.1,0.8,0,1.7,0.4,2.4    C330.3,108.7,330.6,109.3,331,110z"/>
		<path class="st2" d="M346,94.9c0,0.1,0.1,0.1,0.2,0.1S346.1,95,346,94.9z"/>
		<path class="st2" d="M350.8,110.6c0.2,1.4,0.3,2.8,0.3,4.3C351.1,113.5,351,112,350.8,110.6z"/>
		<path class="st2" d="M383.8,116.8l-0.4-0.1C383.6,116.8,383.7,116.8,383.8,116.8z"/>
		<path class="st2" d="M395,91.4c0.6,1.5,1.1,3,1.5,4.6C396.2,94.4,395.7,92.9,395,91.4z"/>
		<path class="st2" d="M390.9,85.4c-0.6-0.6-1.3-1.2-2-1.7l-0.3-0.2l0.3,0.2C389.6,84.2,390.2,84.8,390.9,85.4z"/>
		<path class="st2" d="M397.3,101L397.3,101c-0.1-1.7-0.4-3.3-0.8-4.9C396.9,97.7,397.1,99.3,397.3,101z"/>
		<path class="st2" d="M378.6,99c-1-3.4-2.4-6.8-4.1-9.9C376.2,92.2,377.6,95.6,378.6,99z"/>
		<path class="st2" d="M385.1,81.7c-0.5-0.1-1-0.1-1.5-0.1c-3.1,0.2-6.2,0.4-9.6,0.7c3.5-0.2,6.5-0.4,9.6-0.7    C384.1,81.6,384.6,81.7,385.1,81.7z"/>
		<path class="st2" d="M247.5,131.8c0.1,0.3,0.2,0.5,0.3,0.8c1.7,3,3.6,5.8,5.6,8.6c-2-2.8-3.9-5.6-5.6-8.6    C247.6,132.4,247.5,132.1,247.5,131.8z"/>
		<path class="st2" d="M258.5,127c3.8-1.9,7.1-4.5,9.9-7.7C265.6,122.5,262.3,125.1,258.5,127z"/>
		<path class="st2" d="M284,116.5c0.1,0.4,0.1,0.8,0.1,1.2C284.1,117.3,284.1,116.9,284,116.5z"/>
		<path class="st2" d="M247.3,131.4c-0.1-0.3,0-0.7,0.1-1C247.3,130.7,247.3,131.1,247.3,131.4z"/>
		<path class="st2" d="M273.5,113c1-1.3,2.1-2.8,3.3-4.3C275.5,110.2,274.5,111.6,273.5,113z"/>
		<path class="st2" d="M282.3,113.3c-0.4-0.3-0.7-0.7-1.1-0.9c-1.1-0.8-2.2-1.7-3.1-2.7c1,1,2,1.8,3.1,2.7    C281.5,112.7,281.9,113,282.3,113.3z"/>
		<path class="st2" d="M283.1,114.3c0.4,0.6,0.8,1.4,0.9,2.2C283.9,115.7,283.6,115,283.1,114.3z"/>
		<path class="st2" d="M217.2,21.2c0.6,0.2,1.3,0.5,1.9,0.9C218.5,21.8,217.9,21.5,217.2,21.2z"/>
		<path class="st2" d="M206.1,38.4c-0.5,2.1-1.2,4.1-2.1,6c-1.1,2.2-1.8,4.6-3,6.7c1.3-2.1,2-4.5,3-6.7    C204.9,42.5,205.6,40.5,206.1,38.4z"/>
		<path class="st2" d="M217.2,21.2c-1-0.3-1.9-0.8-2.8-1.4c-0.6-0.5-1.3-1.1-2-1.6c0.7,0.5,1.4,1.1,2,1.6    C215.3,20.4,216.2,20.9,217.2,21.2z"/>
		<path class="st2" d="M198.7,56.3c0.1-1.1,0.4-2.1,1-3C199.2,54.2,198.8,55.2,198.7,56.3z"/>
		<path class="st2" d="M486.4,147.2c-0.7,0-1.4,0-2.3,0.1l-4.9,0.3l4.9-0.3L486.4,147.2z"/>
		<path class="st2" d="M488.3,147.2c1.1,0,2.1,0.1,3.2,0.3C490.4,147.3,489.4,147.2,488.3,147.2z"/>
		<path class="st2" d="M472.6,174.8c1.6-2.5,2.8-5.3,3.5-8.2C475.4,169.5,474.3,172.2,472.6,174.8z"/>
		<path class="st2" d="M466.3,183.9c0.2,0.5,0.5,0.8,1,0.9c1.2,0.4,2.5,0.6,3.9,0.6c-1.3,0-2.6-0.2-3.9-0.6    C466.8,184.6,466.5,184.3,466.3,183.9z"/>
		<path class="st2" d="M476.3,148c-0.8,0.4-1.2,1.4-0.9,2.2C475.2,149.4,475.5,148.4,476.3,148z"/>
		<path class="st2" d="M470.8,177.3c0.7-0.8,1.3-1.7,1.8-2.6C472.1,175.6,471.5,176.5,470.8,177.3c-1.4,1.7-2.8,3.4-4.1,5.1    C468,180.7,469.5,179,470.8,177.3z"/>
		<path class="st2" d="M227.5,50.7c1.3-2.7,2.3-5.5,3.1-8.4C229.8,45.1,228.8,48,227.5,50.7z"/>
		<path class="st2" d="M213.9,68.6L213.9,68.6c1.2-1.2,2.4-2.4,3.6-3.6C216.2,66.1,215.1,67.3,213.9,68.6z"/>
		<path class="st2" d="M222.1,77c-0.8,0-1.5-0.2-2.1-0.8C220.6,76.8,221.3,77,222.1,77z"/>
		<path class="st2" d="M217.4,64.9c1.2-1.2,2.3-2.4,3.5-3.6c1.2-1.2,2.2-2.5,3.2-3.8c-1,1.3-2,2.6-3.2,3.8    C219.8,62.5,218.6,63.7,217.4,64.9z"/>
		<path class="st2" d="M355.5,98.7c-0.9-2.1-1.9-4-3.1-5.9c-0.5-0.6-0.8-1.4-1-2.2c0.2,0.8,0.5,1.5,1,2.2    C353.6,94.7,354.7,96.7,355.5,98.7z"/>
		<path class="st2" d="M351.5,90.1c0.1-0.4,0.3-0.7,0.6-0.9C351.8,89.4,351.6,89.7,351.5,90.1z"/>
		<path class="st2" d="M372.9,114.3c0-1.3-0.1-2.7-0.1-4.1C372.8,111.6,372.8,112.9,372.9,114.3z"/>
		<path class="st2" d="M359,111.4c0.3,2.2,0.4,4.4,0.5,6.7c0,0.4,0,0.8,0,1.3c0-0.4,0-0.8,0-1.3C359.4,115.8,359.3,113.6,359,111.4z    "/>
		<path class="st2" d="M361.8,85.1c1.7,0.3,3.3,1.1,4.5,2.4C365.1,86.2,363.5,85.3,361.8,85.1z"/>
		<path class="st2" d="M166,50.1c-0.1-1.3-0.2-2.6-0.3-3.8C165.8,47.6,165.9,48.9,166,50.1z"/>
		<path class="st2" d="M165.1,38.6c0.1,2.5,0.3,5.1,0.6,7.7C165.5,43.7,165.2,41.2,165.1,38.6z"/>
		<path class="st2" d="M165.2,31.8c0,0.1,0,0.1,0,0.2C165.2,31.9,165.2,31.9,165.2,31.8z"/>
		<path class="st2" d="M152.4,26.1c-0.3-1.6-0.8-3.2-1.3-4.8C151.6,22.9,152.1,24.5,152.4,26.1z"/>
		<path class="st2" d="M151.1,21.3c-0.5-1.6-1.1-3.1-1.7-4.7c-0.9-2.3-0.3-3.2,1.9-3.5c2.9-0.4,5.8-0.8,8.7-1l0,0    c-2.9,0.2-5.8,0.6-8.7,1c-2.3,0.3-2.8,1.3-1.9,3.5C150.1,18.2,150.6,19.8,151.1,21.3z"/>
		<path class="st2" d="M153.2,35.9c0.2-3.3-0.1-6.6-0.8-9.8C153.1,29.3,153.4,32.6,153.2,35.9c-0.4,5.8-1,11.6-1.6,18.1l6.1-0.1    l-6.1,0.1C152.2,47.5,152.8,41.7,153.2,35.9z"/>
		<path class="st2" d="M163,20.8c0.5,2.1,1.1,4.1,1.5,6.2C164.1,24.9,163.5,22.9,163,20.8z"/>
		<path class="st2" d="M538.7,147c0.1,0.6,0.1,1.2,0.1,1.8C538.8,148.2,538.8,147.6,538.7,147z"/>
		<path class="st2" d="M522,151.5c1.3,4.4,2.3,8.9,1.4,13.5C524.3,160.4,523.2,155.9,522,151.5z"/>
		<path class="st2" d="M518.9,140.1c-0.4,0.2-0.6,0.6-0.6,1C518.3,140.6,518.5,140.3,518.9,140.1z"/>
		<path class="st2" d="M538.4,145.3c-0.5-1.9-1.4-3.6-2.8-4.9c-0.7-0.7-1.4-1.3-2.3-1.9c0.8,0.5,1.6,1.1,2.3,1.9    C537,141.7,538,143.4,538.4,145.3z"/>
		<path class="st2" d="M518.9,140.1c1.2-0.5,2.5-0.7,3.7-0.8C521.4,139.4,520.1,139.6,518.9,140.1z"/>
		<path class="st2" d="M522.8,167.3c-0.5,1.4-1,2.8-1.4,4.2c-0.1,0.4-0.1,0.8,0,1.2c-0.1-0.4-0.1-0.8,0-1.2    C521.8,170,522.3,168.6,522.8,167.3z"/>
		<path class="st2" d="M522.7,139.2c2.7-0.4,5.3-0.9,7.9-1.4C528,138.3,525.3,138.9,522.7,139.2z"/>
		<path class="st2" d="M400.3,122L400.3,122c1.7-3.3,3-6.8,3.9-10.4C403.3,115.2,402,118.7,400.3,122z"/>
		<path class="st2" d="M407.2,127.2c-0.1,0-0.3-0.1-0.4-0.1C407,127.2,407.1,127.2,407.2,127.2z"/>
		<path class="st2" d="M404.6,109c0.2-1.7,0.3-3.3,0.3-5C404.9,105.7,404.8,107.3,404.6,109z"/>
		<path class="st2" d="M409.5,85.3c0.1,0.1,0.2,0.1,0.2,0.2C409.6,85.4,409.6,85.4,409.5,85.3z"/>
		<path class="st2" d="M407.3,84.2c-2.2-0.8-5.2-1.2-9.8-2.3c-0.4-0.1-0.9,0.2-1.7,0.4l0,0c0.8-0.2,1.3-0.5,1.7-0.4    C402.1,83,405.2,83.4,407.3,84.2z"/>
		<path class="st2" d="M102.2,12.9c-1-0.1-1.9-0.1-2.9,0C100.3,12.8,101.2,12.8,102.2,12.9z"/>
		<path class="st2" d="M113.1,18.4c0.4,0.3,0.8,0.6,1.2,1C113.9,19,113.5,18.7,113.1,18.4c-1-0.7-2-1.4-3-2.1c-1-0.8-2.1-1.4-3.3-2    c1.1,0.6,2.2,1.2,3.3,2C111,17,112.1,17.7,113.1,18.4z"/>
		<path class="st2" d="M87.9,33c1.6,2.2,4.1,3.6,6.9,3.8c0.4,0,0.8,0.1,1.3,0.2c-0.4-0.1-0.9-0.1-1.3-0.2C92,36.6,89.5,35.2,87.9,33    z"/>
		<path class="st2" d="M103.7,13.2c1.1,0.3,2.1,0.6,3.1,1.1C105.8,13.8,104.8,13.4,103.7,13.2z"/>
		<path class="st2" d="M86.3,23.6c-0.8,2.7-0.5,5.7,0.9,8.2C85.8,29.3,85.4,26.3,86.3,23.6z"/>
		<path class="st2" d="M115.1,20.3c0.3,0.4,0.6,0.8,0.8,1.3C115.7,21.1,115.4,20.7,115.1,20.3z"/>
		<path class="st2" d="M413.6,136.4L413.6,136.4c4.4-4.6,7.7-10.3,9.6-16.4C421.3,126.1,418,131.8,413.6,136.4z"/>
		<path class="st2" d="M424.5,110.4c0,3.2-0.5,6.4-1.4,9.6C424,116.8,424.5,113.6,424.5,110.4z"/>
		<path class="st2" d="M423.4,99.7c0.8,3.5,1.1,7.1,1.1,10.7C424.6,106.8,424.2,103.2,423.4,99.7z"/>
		<path class="st2" d="M431.8,111.3c1.7,2.7,2.8,5.7,3,8.9C434.6,117.1,433.5,114,431.8,111.3c-1.6-2.5-3.1-5-4.7-7.4    c-0.5-0.8-1.1-1.5-1.8-2.1c0.6,0.7,1.2,1.4,1.8,2.1C428.7,106.3,430.2,108.8,431.8,111.3z"/>
		<path class="st2" d="M298.5,119.5c0.8,0,1.5,0.3,2.1,0.9C300,119.8,299.2,119.5,298.5,119.5c-1.3-0.1-2.4,0.2-3,1.6    c-0.1,0.2-0.2,0.4-0.3,0.7c0.1-0.2,0.2-0.4,0.3-0.7C296,119.7,297.1,119.4,298.5,119.5z"/>
		<path class="st2" d="M295.2,121.7c-0.1,0.2-0.2,0.4-0.3,0.7c-1.9,6.7-5.6,11.9-10.2,16.6c4.5-4.6,8.3-9.8,10.2-16.6    C295,122.2,295.1,121.9,295.2,121.7z"/>
		<path class="st2" d="M300.5,120.4c0.5,0.5,0.7,1.2,0.6,1.9C301.2,121.6,301,120.9,300.5,120.4z"/>
		<path class="st2" d="M270.2,153.9c0.2,0.1,0.4,0.2,0.6,0.3c0.8,0.4,1.6,0.8,2.4,1.1c-0.8-0.3-1.6-0.7-2.4-1.1    C270.6,154.1,270.4,154,270.2,153.9z"/>
		<path class="st2" d="M273.5,148.3c0.9-0.4,1.7-0.9,2.5-1.4C275.2,147.4,274.4,147.9,273.5,148.3z"/>
		<path class="st2" d="M275.4,156.1c-0.8-0.2-1.5-0.5-2.2-0.8C273.9,155.7,274.6,155.9,275.4,156.1z"/>
		<path class="st2" d="M266,151.2L266,151.2c1.2-0.5,2.2-0.8,2.9-1.1L266,151.2z"/>
		<path class="st2" d="M277.6,156.5c-0.4,0-0.7-0.1-1.1-0.1C276.9,156.4,277.2,156.5,277.6,156.5z"/>
		<path class="st2" d="M268.4,152.8l-1.9-1.3C267.3,152,267.9,152.4,268.4,152.8z"/>
		<path class="st2" d="M270.8,149.4c0.9-0.4,1.8-0.7,2.7-1.1C272.6,148.7,271.6,149,270.8,149.4z"/>
		<path class="st2" d="M458.2,149.5c-0.1,0.7-0.2,1.4-0.3,2.1c-0.7,3.2-1.8,6.4-3.4,9.3c1.6-2.9,2.7-6,3.4-9.3    C458,151,458.1,150.2,458.2,149.5z"/>
		<path class="st2" d="M467.9,147.9c0.2,0.3,0.4,0.5,0.6,0.8C468.4,148.4,468.1,148.1,467.9,147.9z"/>
		<path class="st2" d="M444.2,172.6c1.4-1.2,2.9-2.4,4.3-3.8C447.2,170.2,445.6,171.4,444.2,172.6z"/>
		<path class="st2" d="M462,144.7l1.4,0.5c0.6,0.2,1.1,0.4,1.6,0.6c-0.5-0.2-1.1-0.5-1.6-0.6L462,144.7c-2-0.6-3-1-3.4-0.6    C459,143.7,460,144,462,144.7z"/>
		<path class="st2" d="M458.5,144c-0.5,0.3-0.4,1.3-0.3,3.3c0,0.7,0,1.4,0,2.2c0-0.7,0.1-1.5,0-2.2    C458.1,145.4,458.1,144.4,458.5,144z"/>
		<path class="st2" d="M236.8,112.2c0,0.4,0.1,0.8,0.3,1.1c0.3,0.8,0.7,1.5,1.1,2.3c-0.4-0.8-0.8-1.5-1.1-2.3    C236.9,112.9,236.8,112.6,236.8,112.2z"/>
		<path class="st2" d="M266,88.5c1,1,1.8,2.2,2.3,3.5C267.8,90.7,267,89.5,266,88.5c-0.3,0.1-0.5,0.1-0.7,0.2    c-0.3,0.3-0.6,0.7-0.9,1.2c0.2-0.4,0.5-0.8,0.9-1.2C265.5,88.6,265.8,88.6,266,88.5z"/>
		<path class="st2" d="M238.9,110.1c-0.8,0.1-1.5,0.5-1.9,1.1C237.4,110.6,238.1,110.2,238.9,110.1c9.7-2,18.1-8,23.4-16.4    C257,102.1,248.6,108.1,238.9,110.1z"/>
		<path class="st2" d="M450.4,137.9c-0.1-0.1-0.1-0.2-0.2-0.4c-0.2-0.3-0.4-0.6-0.6-0.9c0.2,0.3,0.4,0.6,0.6,0.9    C450.3,137.7,450.4,137.8,450.4,137.9z"/>
		<path class="st2" d="M443.3,132.9c-0.3,0.5-0.5,1.1-0.6,1.7c-0.9,4-2.7,7.8-5.3,11c2.6-3.2,4.4-7,5.3-11    C442.8,134,443,133.4,443.3,132.9z"/>
		<path class="st2" d="M437.3,145.5c-1,1.3-2.1,2.5-3.3,3.7C435.2,148,436.3,146.8,437.3,145.5z"/>
		<path class="st2" d="M447,133.1L447,133.1z"/>
		<path class="st2" d="M444.1,131.2c-0.3,0.6-0.6,1.1-0.8,1.7C443.5,132.3,443.8,131.8,444.1,131.2z"/>
		<path class="st2" d="M435.3,165L435.3,165l-0.4-0.4L435.3,165z"/>
		<path class="st2" d="M428.5,154.9c0.2-0.8,0.7-1.6,1.4-2.1C429.2,153.4,428.7,154.1,428.5,154.9c-0.2,1.6,1.5,3.4,2.6,5    c0.4,0.5,0.8,1,1.1,1.5c-0.4-0.5-0.8-1-1.1-1.5C430,158.4,428.4,156.5,428.5,154.9z"/>
		<path class="st2" d="M429.9,152.9c0.7-0.7,1.6-1.3,2.3-1.9C431.6,151.6,430.7,152.2,429.9,152.9z"/>
		<path class="st2" d="M447.9,134.2c0.4,0.5,0.8,1,1.1,1.5C448.7,135.3,448.3,134.8,447.9,134.2z"/>
		<path class="st2" d="M547.7,154.2c0.1,3-0.2,6-1,8.8c-0.2,0.6-0.3,1.2-0.3,1.8c0-0.6,0.1-1.2,0.3-1.8    C547.5,160.2,547.8,157.2,547.7,154.2z"/>
		<path class="st2" d="M560,160.2c-0.1-2.4-0.4-4.9-0.6-7.3C559.6,155.3,559.9,157.8,560,160.2z"/>
		<path class="st2" d="M549.5,136.1c1.1-0.1,2.3-0.3,3.4-0.4C551.8,135.8,550.6,136,549.5,136.1c-2,0.1-4,0-5.9,0.4    c-0.2,0-0.3,0.1-0.4,0.3c0.1-0.1,0.3-0.2,0.4-0.3C545.5,136.1,547.5,136.2,549.5,136.1z"/>
		<path class="st2" d="M559.5,146.2c0-0.7-0.1-1.4-0.3-2.1c-0.2-0.9-0.5-1.8-0.8-2.6c0.3,0.9,0.6,1.7,0.8,2.6    C559.3,144.8,559.4,145.5,559.5,146.2z"/>
		<path class="st2" d="M559.5,146.2c0,0.7,0.1,1.5,0.1,2.2C559.5,147.7,559.5,147,559.5,146.2z"/>
		<path class="st2" d="M542.3,138.6c0.1-0.5,0.3-0.9,0.5-1.3C542.5,137.7,542.4,138.1,542.3,138.6c0,0.6,0.2,1.2,0.6,1.7    C542.5,139.8,542.3,139.2,542.3,138.6z"/>
		<path class="st2" d="M502.8,163.7c-0.2,2.4-0.7,4.7-1.5,7c-0.9,3-2,5.9-3.5,10.3c1.5-4.4,2.5-7.3,3.5-10.3    C502.1,168.5,502.6,166.1,502.8,163.7z"/>
		<path class="st2" d="M502.9,159c0.1,1.6,0.1,3.1-0.1,4.7C503,162.1,503,160.6,502.9,159z"/>
		<path class="st2" d="M503,144.1c0.7-0.1,1.4-0.3,2.1-0.5c1.1-0.5,2.3-0.9,3.6-1c-1.2,0.1-2.4,0.5-3.6,1    C504.4,143.9,503.7,144,503,144.1c-1.7,0.5-2.5,1.1-2.8,2C500.5,145.2,501.3,144.7,503,144.1z"/>
		<path class="st2" d="M500.2,146.8c0-0.2,0-0.4,0.1-0.6C500.2,146.4,500.2,146.6,500.2,146.8z"/>
		<path class="st2" d="M567.1,164.7c0-0.3,0-0.7,0-1C567,164.1,567,164.4,567.1,164.7z"/>
		<path class="st2" d="M568.5,146.5c-0.5-1.9-1.3-3.6-2.2-5.3c-0.1-0.1-0.1-0.3-0.1-0.4c0,0.1,0,0.3,0.1,0.4    C567.2,142.8,568,144.6,568.5,146.5z"/>
		<path class="st2" d="M573.7,167.8L573.7,167.8c-0.8-0.1-1.7-0.2-2.5-0.5C572.1,167.5,572.9,167.7,573.7,167.8z"/>
		<path class="st2" d="M568.5,146.5c0.5,1.8,0.7,3.7,0.6,5.6C569.2,150.2,569,148.3,568.5,146.5z"/>
		<path class="st2" d="M566.1,140.7c0-0.3,0-0.7,0.2-1C566.2,140.1,566.1,140.4,566.1,140.7z"/>
		<path class="st2" d="M566.6,139.1c0.1,0,0.2-0.1,0.3-0.1L566.6,139.1z"/>
		<path class="st2" d="M624.5,194c0.7,0.2,1.3,0.4,1.9,0.6c0.5,0.2,1,0.3,1.5,0.5c-0.5-0.2-1-0.3-1.5-0.5    C625.7,194.4,625.1,194.2,624.5,194z"/>
		<path class="st2" d="M644.9,198.5c-1.8-0.3-3.6-0.6-5.4-0.9C641.3,197.9,643.1,198.2,644.9,198.5z"/>
		<path class="st2" d="M616.4,190.9c0-0.7,0.1-1.4,0.4-2.1C616.5,189.5,616.4,190.2,616.4,190.9z"/>
		<path class="st2" d="M626.3,186.1l-6.7-4.7c-1,2.5-1.9,4.9-2.8,7.4c0.9-2.5,1.9-5,2.8-7.4C621.9,183,624.1,184.6,626.3,186.1z"/>
		<path class="st2" d="M622.5,193.6c-1.3-0.3-2.6-0.5-3.9-0.9C619.9,193,621.2,193.3,622.5,193.6z"/>
		<path class="st2" d="M589.3,174.6c0.6,0.3,1.3,0.5,1.9,0.8c0.2,0.1,0.4,0.1,0.6,0c-0.2,0.1-0.4,0.1-0.6,0    C590.6,175.1,589.9,174.9,589.3,174.6z"/>
		<path class="st2" d="M584,168.9c0.4-1,0.8-1.9,1.4-2.8C584.8,167,584.4,167.9,584,168.9z"/>
		<path class="st2" d="M606.7,186.1c0.3,0.3,0.6,0.7,0.9,1C607.3,186.7,607,186.4,606.7,186.1z"/>
		<path class="st2" d="M603.4,183.4l2.8,2.3c0.2,0.1,0.3,0.3,0.4,0.4c-0.1-0.1-0.3-0.3-0.4-0.4L603.4,183.4z"/>
		<path class="st2" d="M604.8,167.9l-1.4,3.2L604.8,167.9z"/>
		<path class="st2" d="M657.9,195c-4.9-2.2-9.8-4.2-14.7-6.4c-1.6-0.6-3.2-1.4-4.6-2.3c-8.9-6.1-17.4-12.7-25.5-19.8    c-5.9-5.2-11.6-10.6-17.4-15.8c-0.8-0.6-1.5-1.3-2.1-2.1c-4.4-6.2-10.4-10.2-17.2-13.4c-6.4-3.1-13-5.7-19.8-7.7    c-6.2-1.8-12.7-1.4-18.9-3c-0.7-0.1-1.5-0.1-2.2,0.1c-7.1,1.9-14.2,3.7-21.3,5.6c-8.5,2.3-16.9,5-25.5,6.8    c-5.7,1.2-11.7,1.4-17.5-0.5c-4.7-1.6-9.2-3.5-12.7-7c-2.9-3-5.2-6.6-6.7-10.5c-1.4-3.4-3-6.7-4.9-9.8c-1.7-2.7-3.5-5.3-5.4-7.8    c-1.1-1.6-2.4-3.1-3.7-4.6c-2.1-2.4-4.3-4.7-6.5-7.1c-5.3-6-11.3-10.8-19.3-12.9c-2.4-0.6-4.6-1.6-7-2.4    c-5.6-1.8-11.5-2.7-17.4-2.7c-7.9-0.2-15.6,1.5-23.4,2.6c-8.8,1.2-16.3,4.9-23.4,10c-6.7,4.9-14.1,8.8-20.2,14.8    c-2.2,1.9-4.7,3.6-7.4,4.8c-12.9,6.8-24.6,2.2-31.7-6.7c-5-6.3-9.3-13.3-13.6-20.1c-3.9-6.2-7.4-12.8-11.2-19.1    c-2.3-4-4.9-7.9-7.6-11.6c-4.1-5.2-8.6-10.1-12.9-15.1c-4.4-5.2-8.4-10.8-13.8-15.3c-9.1-7.7-20.5-12.2-32.4-12.6    c-13.4-0.6-26.9,1.2-40.2,3.1c-9,1.1-18.1,1.2-27.1,0.2c-10.5-0.9-20.7-4.4-31.3-4.4c-0.5,0-1-0.1-1.4-0.2    C82,0.3,73.7-0.3,65.3,0.1C60.1,0.3,55.2,2.4,51.4,6c-5.1,4.6-8.5,10-9,17.1c-0.1,2.4-0.9,3-3.3,2.6c-2.2-0.2-4.3-0.8-6.4-1.6    c-4.7-2-9.4-4.3-14-6.6c-4.3-2.3-8.4-4.9-12.7-7.3c-2.7-1.5-3.9-1.4-5.2,0.2c-1.5,1.8-1.1,3.1,1.6,5.4c1.9,1.7,4.4,2.9,5.5,5.9    c-1.6,0-3.2,0.2-4.7,0.5c-1.1,0.5-2,1.2-2.9,2c1,0.6,1.9,1.7,2.9,1.8c3.2,0.3,6.4,0.1,9.6-0.4c2.4-0.4,4.9-0.2,7.2,0.7    c2.3,0.8,4.6,1.8,6.8,2.9c5,2.5,10,5.3,15.1,7.7c2.1,1,4.1,2,5,4.1c1.7,3.8,5,6,8.2,8.2c6.4,4.5,12.8,9.2,20.3,11.4    s15.9,2.4,23.8,2.5c10.7,0,21.3,0.2,32,0.2c8.6,0,17.2-2.4,25.9-2.9c6.8-0.4,13.6-1.6,20.5-1.2c15.9,1,27.5,8.3,34.6,22.4    c3.1,6.1,5.8,12.5,8.8,18.6c2.4,4.8,4.9,9.6,7.5,14.3c3.5,6.2,7.3,12.2,10.8,18.4c6.8,11.9,18.3,21.1,30.8,26.9    c2.4,1.1,4.9,2,7.4,2.8c3.2,1.1,6.8,2.5,10.2,2.4c3.2-0.1,6.5-1.4,9.8-1.5c4.2-0.1,8.3-0.9,12.3-2.3c3.9-1.3,8-2.3,11.9-3.5    c0.6-0.2,1.3-0.4,1.9-0.8c1.7-0.9,3.3-2.1,5.1-2.9c9.3-4.4,18.1-10,26-16.6c2.8-2.3,5.9-4.4,8.9-6.5c6.4-4.4,13.6-5.6,21.1-4.8    c3.7,0.4,7.3,2.2,10.7,3.9c1.9,0.9,3.2,2.9,4.6,4.6c7.8,9.2,14.7,19.1,20.6,29.6c1.9,3.3,4.9,6.1,7.7,8.7    c5.8,5.6,12.2,10.6,19.1,14.9c3.8,2.2,8,3.6,12.4,4.1c6,0.8,11.7,0.8,17.6,2.1c2.1,0.5,3.4-0.4,5.4-0.6c2.7-0.2,5.4-0.3,8.1-0.3    c11.5-4.8,23.1-8.7,35.1-12.6s24.6-7.6,37.4-6.9c9.9,0.5,19.4,3.5,27.8,8.7c6.2,3.9,11.7,8.9,17.7,13c7,4.8,14,6,22,8.3    c4.7,1.4,9.7,1.7,14.6,0.8c4.6-0.9,9.1-2,13.5-3.4c0.7-0.2,1.3-1.9,1.4-3C660.6,196.5,659.2,195.6,657.9,195z M99.3,12.9    c1-0.1,1.9-0.1,2.9,0c0.5,0.1,1,0.1,1.5,0.3c1.1,0.3,2.1,0.6,3.1,1.1c1.1,0.6,2.2,1.2,3.3,2c1,0.7,2,1.4,3,2.1    c0.4,0.3,0.8,0.6,1.2,1c0.3,0.3,0.6,0.6,0.9,1c0.3,0.4,0.6,0.8,0.8,1.3c0.4,0.9,0.6,2,0.5,3c0,0.4-0.1,0.9-0.2,1.3    c-0.1,0.5-0.3,0.9-0.4,1.4c-0.6,1.6-1.5,3.1-2.7,4.4c-0.6,0.6-1.2,1.2-1.9,1.7c-0.7,0.5-1.5,0.9-2.3,1.2c-2.3,0.9-4.7,1.7-7.2,2.3    c-0.8,0.2-1.5,0.4-2.3,0.7c-1.3-0.2-2.5-0.5-3.5-0.7c-0.4-0.1-0.9-0.1-1.3-0.2c-2.7-0.2-5.2-1.6-6.9-3.8c-0.3-0.4-0.5-0.7-0.7-1.1    c-1.4-2.5-1.7-5.5-0.9-8.2c0.5-1.6,1.3-3,2.4-4.2C91.5,16.1,95.1,13.4,99.3,12.9z M141.9,36.3c-0.1,2.6-0.3,5.1-0.5,7.7    s-0.6,5.1-0.8,7.7c-0.1,0.6-0.2,1.2-0.4,1.7c-0.2,0.5-0.5,0.9-0.9,1.2c-0.9,0.7-2,1.1-3.1,1.1l-3.6,0.3c-2.4,0.2-4.8,0.3-7.2,0.4    c-6,0.4-12,0.1-17.9-0.6c-9.2-1.3-18.5-2.1-27.8-3c-1.6-0.1-3.2-0.4-4.7-0.8c-1.5-0.4-3.1-0.9-4.5-1.6c-1-0.5-2-1-3-1.5    c-1.4-0.8-2.8-1.7-4.1-2.8c-0.7-0.5-1.3-1.1-2-1.7c-4.5-3.9-7.7-9.1-9.2-14.8c-0.4-1.9-0.6-3.8-0.4-5.7c0.2-1.8,0.6-3.6,1.3-5.3    c0.5-1.1,1.1-2.2,1.8-3.2c1-1.5,2.3-2.8,3.7-3.9c1.5-1.1,3.1-1.9,4.8-2.4c1.2-0.4,2.4-0.6,3.7-0.6c1.9-0.1,3.9-0.2,5.8-0.2    s3.9,0,5.8,0.1c2,0.1,3.9,0.3,5.9,0.6c1.8,0.3,3.5,0.7,5.2,1.2l0.7,0.2c-2.2,3.2-4.3,6.2-6.2,9.3c-0.5,0.8-1,1.7-1.4,2.5    c-0.7,1.2-1.1,2.6-1.4,4c-0.1,0.5-0.1,1-0.1,1.4c0,1.1,0.3,2.1,0.7,3.1c0.1,0.3,0.2,0.5,0.3,0.8c0.7,1.8,1.7,3.4,2.8,5    c1.9,2.6,4.4,4.6,7.4,5.7c1,0.4,1.9,0.7,2.9,0.9c1.9,0.4,3.8,0.6,5.7,0.4c1.8-0.1,3.7-0.5,5.4-1.1c0.9-0.3,1.8-0.6,2.6-1    c1.8-0.8,3.5-1.7,5.1-2.7c6.7-4.2,9.5-10.4,9.3-17.7c0-1.1-0.1-2.2-0.3-3.2c-0.1-0.8-0.3-1.6-0.5-2.4c-0.1-0.3-0.2-0.7-0.2-1    c1.1-0.1,2.1-0.1,3.2-0.1c3,0.1,6.1,0.5,9.1,1c0.9,0.3,1.7,1,2.1,1.8c0.7,1.5,1.4,3,2,4.6c1.6,3.8,2.6,7.9,2.9,12    C141.9,34.6,141.9,35.5,141.9,36.3z M164.9,53.4c-0.4,0.2-0.8,0.2-1.3,0.2c-1.9,0.1-3.9,0.2-5.8,0.2l-6.1,0.1    c0.6-6.4,1.2-12.2,1.6-18.1c0.2-3.3-0.1-6.6-0.8-9.8c-0.3-1.6-0.8-3.2-1.3-4.8s-1.1-3.1-1.7-4.7c-0.9-2.3-0.3-3.2,1.9-3.5    c2.9-0.4,5.8-0.8,8.7-1c0.4,0,0.7,0.2,1,0.4c0.3,0.2,0.6,0.5,0.6,0.7c0,0.9,0.1,1.8,0.3,2.7c0.2,1.6,0.6,3.3,1,4.9    c0.5,2.1,1.1,4.1,1.5,6.2c0.3,1.6,0.6,3.2,0.7,4.8c0,0.1,0,0.1,0,0.2c0.1,0.9,0.1,1.9,0,2.8c-0.1,1.3-0.1,2.5-0.1,3.8    c0.1,2.5,0.3,5.1,0.6,7.7c0.1,1.3,0.2,2.6,0.3,3.8C166.1,52,165.9,53,164.9,53.4z M193.1,41.8c-1,3.3-2.4,6.6-4,9.7    c-0.3,0.5-0.7,0.8-1.2,1c-0.5,0.3-1.1,0.5-1.6,0.8c-0.1,0-0.2,0-0.3,0l-0.4-0.1c-0.4,0-0.7-0.1-1.1-0.1c-1.1-0.1-2.3-0.1-3.4-0.2    c-0.4,0-0.7-0.1-1.1-0.1c-1-0.1-2-0.4-2.8-1c-0.9-0.6-1.3-1.7-1.2-2.7c0.1-1.7,1.2-3.8,1.1-5.5c-0.1-3.5,0.1-7,0.1-10.5    c0-1.2,0-2.3-0.1-3.5c-0.1-1.4-0.3-2.8-0.6-4.2c-0.3-1.4-0.7-2.7-1.2-4c-0.9-2.6-2.1-5.2-3.1-7.8c-0.1-0.3-0.2-0.6-0.3-0.9    c-0.3-1.1-0.2-1.8,0.4-2.3c0.6-0.4,1.4-0.6,2.2-0.6c2.4-0.2,4.9-0.1,7.3-0.2l0,0c0.6,0,1.2-0.1,1.8-0.1s1.2,0,1.8,0    c1.2,0,2.5,0,3.7,0.2c0.4,0.1,0.8,0.2,1.2,0.5c0.3,0.2,0.5,0.5,0.6,0.9c0.4,1.2,0.7,2.3,0.9,3.5c0,0.1,0,0.1,0,0.2    c0.7,2.5,1.6,4.9,2.2,7.4c0.2,0.8,0.4,1.6,0.5,2.5C195.4,30.4,194.9,36.3,193.1,41.8z M210.5,59.7c-0.6,0.6-1.1,1.1-1.8,1.7    c-0.2,0.2-0.5,0.3-0.7,0.5c-0.4,0.2-0.9,0.3-1.4,0.2c-1.1-0.3-2.1-0.8-3-1.5c-3.1-1.9-5-2.4-4.9-4.2c0.1-1.1,0.4-2.1,1-3    c0.3-0.7,0.8-1.4,1.3-2.3c1.3-2.1,2-4.5,3-6.7c0.9-1.9,1.6-3.9,2.1-6c1.4-6.1,0.7-12.2-0.4-18.5c-0.3-1.6-0.5-3.2-0.8-5.1    c2.8,0.5,5.4,1.7,7.6,3.4c0.7,0.5,1.4,1.1,2,1.6c0.8,0.6,1.8,1.1,2.8,1.4c0.6,0.2,1.3,0.5,1.9,0.9c0.9,0.5,1.5,1.3,1.7,2.3    c0.1,0.6,0.1,1.1,0,1.7c-0.2,1.2-0.5,2.4-0.9,3.6c-0.2,0.6-0.3,1.2-0.4,1.8c-0.7,5.8-1.2,11.7-1.7,17.6c0,0.5-0.1,1-0.2,1.5    c-0.2,0.9-0.6,1.8-1.1,2.6c-0.3,0.4-0.6,0.8-1,1.2C213.7,56,212.2,58,210.5,59.7L210.5,59.7z M222.1,77c-0.8,0-1.5-0.2-2.1-0.8    c-0.3-0.3-0.6-0.7-0.9-1.1c-1.1-1.7-2.4-3.3-3.8-4.8c-0.5-0.6-1-1.1-1.4-1.7c1.2-1.2,2.4-2.4,3.6-3.6s2.3-2.4,3.5-3.6    c1.2-1.2,2.2-2.5,3.2-3.8c0.3-0.4,0.6-0.9,0.8-1.4c0.9-1.8,1.8-3.6,2.6-5.4c1.3-2.7,2.3-5.5,3.1-8.4c0.8-3,1.1-6,0.8-9.1    c7.2,4.9,9.7,11.6,8.7,19.7c-0.3,2.4-0.5,4.8-0.9,7.1c-0.2,0.8-0.4,1.5-0.6,2.3c-0.6,1.8-1.4,3.5-2.3,5.1    c-1.3,2.3-3.1,4.3-5.3,5.9c-1.5,1.1-3.1,2-4.8,2.6c-0.9,0.4-1.8,0.7-2.8,0.9C223,76.9,222.5,77,222.1,77z M235.1,102.9    c-0.5,0-1-0.1-1.4-0.4c-0.6-0.3-1-0.7-1.3-1.3c-1.2-2.2-2.3-4.4-3.4-6.6s-2.2-4.3-3.3-6.4c0-0.1,0-0.1,0-0.2    c-0.2-0.7-0.2-1.3-0.2-2c7.7-2,14.5-6.5,19.3-12.9c2.8-3.9,5-8.3,6.3-12.9c0.1,0,0.2,0,0.2,0.1c0.7,0.1,1.3,0.5,1.8,1    c0.5,0.6,0.8,1.2,1.1,1.8c0.2,0.4,0.4,0.9,0.7,1.3c1.1,1.7,2,3.4,2.9,5.1c0.2,0.4,0.5,0.8,0.7,1.3c0.1,0.2,0.2,0.4,0.3,0.7    c0.6,1.1,0.6,2.5-0.1,3.6c-0.1,0.2-0.2,0.4-0.2,0.7c0,0.3,0,0.5,0,0.8c0.2,1.8,0.2,3.7,0,5.6c-0.2,1.1-0.4,2.2-0.8,3.2    c-0.5,1.5-1.3,3-2.2,4.3c-0.3,0.4-0.6,0.9-0.9,1.3c-1,1.3-2.2,2.5-3.5,3.6c-1.7,1.5-3.6,2.9-5.5,4.2c-1.4,0.9-2.9,1.7-4.5,2.3    c-1.6,0.7-3.2,1.2-4.8,1.8C235.8,102.8,235.4,102.9,235.1,102.9L235.1,102.9z M242.2,121.6c-0.4-0.1-0.7-0.3-1-0.6    c-0.3-0.3-0.6-0.7-0.8-1.1c-0.7-1.4-1.4-2.9-2.1-4.3c-0.4-0.8-0.8-1.5-1.1-2.3c-0.2-0.4-0.3-0.7-0.3-1.1c0-0.3,0.1-0.6,0.2-0.9    c0.5-0.6,1.2-1,1.9-1.1c9.7-2,18.1-8,23.4-16.4c0.8-1.2,1.5-2.5,2.2-3.8c0.2-0.4,0.5-0.8,0.9-1.2c0.1-0.2,0.4-0.2,0.7-0.2    c1,1,1.7,2.2,2.2,3.5c0.4,1.2,0.5,2.4,0.4,3.6c-0.1,1.2-0.4,2.4-0.9,3.5c-0.4,1.1-1,2.2-1.6,3.3c-1.2,2.2-2.5,4.2-4,6.2    c-0.8,0.9-1.5,1.9-2.4,2.8c-1.6,1.8-3.5,3.4-5.4,4.8c-1,0.7-2,1.4-3,2c-2.2,1.3-4.4,2.3-6.8,3.2    C243.9,121.7,243,121.8,242.2,121.6L242.2,121.6z M258.8,144.4c-1.2,0.6-2.6,0.2-3.4-0.8c-0.7-0.8-1.4-1.6-1.9-2.4    c-2-2.8-3.9-5.6-5.6-8.6c-0.1-0.2-0.2-0.5-0.3-0.8c-0.1-0.1-0.1-0.3-0.1-0.4c-0.1-0.3,0-0.7,0.1-1c0.3-0.6,1-1,1.7-1    c3.3-0.2,6.4-1,9.4-2.5c3.8-1.9,7.1-4.5,9.9-7.7c0.7-0.8,1.4-1.6,2.1-2.5c1-1.2,2-2.5,3-3.8s2.1-2.8,3.3-4.3l1.2,1.1    c1,1,2,1.8,3.1,2.7c0.4,0.3,0.8,0.6,1.1,0.9c0.3,0.3,0.6,0.6,0.8,1c0.4,0.6,0.8,1.4,0.9,2.2c0.1,0.4,0.1,0.8,0.1,1.2    c0,0.4,0,0.8-0.1,1.2c-0.1,0.9-0.4,1.7-0.7,2.6c-0.5,1.4-1,2.7-1.8,3.9c-1.1,1.8-2.3,3.5-3.6,5.1c-0.9,1.1-1.9,2.1-2.8,3.1    l-1.4,1.5c-0.8,0.9-1.7,1.7-2.6,2.5c-2.8,2.4-6,4.3-9.4,5.7C260.5,143.8,259.5,144.1,258.8,144.4L258.8,144.4z M288.8,150.4    c-1.4,1.6-3,3-4.8,4.2c-0.7,0.5-1.4,0.8-2.2,1.2c-1.3,0.5-2.8,0.8-4.2,0.7c-0.4,0-0.7-0.1-1.1-0.1c-0.4-0.1-0.7-0.1-1.1-0.2    c-0.8-0.2-1.5-0.5-2.2-0.8c-0.8-0.3-1.6-0.7-2.4-1.1l-0.6-0.3c-0.5-0.3-1.1-0.7-1.8-1.1l-1.9-1.3l-0.5-0.3c1.2-0.5,2.2-0.8,2.9-1    s1.3-0.5,1.8-0.7c0.9-0.4,1.8-0.7,2.7-1.1c0.9-0.4,1.7-0.9,2.5-1.4c3-2.6,6-5.1,8.7-7.9c4.5-4.6,8.3-9.8,10.2-16.6    c0.1-0.2,0.2-0.5,0.3-0.7c0.1-0.2,0.2-0.4,0.3-0.7c0.5-1.4,1.6-1.6,3-1.6c0.8,0,1.5,0.3,2.1,0.9c0.5,0.5,0.7,1.2,0.6,1.9    c-0.2,3.9-0.5,7.7-2,11.4C296.8,139.9,293.3,145.6,288.8,150.4L288.8,150.4z M326.4,122.5c-0.1,1-0.2,2.1-0.3,3.1    c-0.4,5-1.6,9.8-3.6,14.4c-0.6,1.5-1.3,3-2,4.5c-0.9,1.9-2.1,3.6-3.6,5c-1.6,1.4-3.5,2.3-5.5,2.7c-4,0.9-8,1.6-12.9,2.5l0.7-1.3    c0.5-0.9,1-1.8,1.5-2.7c3.5-5.2,5.7-11.2,6.4-17.4c0.2-2.1,0.4-4.2,0.3-6.3c0-1.5-0.1-3-0.1-4.5l0,0c0-0.7,0-1.5,0.1-2.2    c0.1-0.7,0.2-1.4,0.5-2.1c0.1-0.4,0.3-0.7,0.5-1c0.5-0.5,1-0.9,1.7-1.2c1.7-0.7,3.8-0.8,5.3-1.8s3.4-2,5-3    c0.4-0.2,0.7-0.4,1.1-0.6c0.5-0.3,1-0.5,1.5-0.5c1-0.1,1.5,0.9,2.5,3.2c0.4,1,0.7,2,0.9,3.1c0.1,0.5,0.1,1,0.2,1.5    C326.6,119.5,326.5,121,326.4,122.5L326.4,122.5z M351,118.6c-0.3,2.6-1,5.2-2,7.6c-1.4,3.6-3.3,7-5.7,10    c-1.3,1.5-2.7,2.8-4.3,3.9c-1.7,1.2-3.6,2.1-5.6,2.8c0.4-4.3,0.4-8.5,1.3-12.4c0.4-1.6,0.5-3.2,0.5-4.8c0-1.6-0.2-3.1-0.5-4.7    c-0.3-1.5-0.7-3-1.2-4.5c-0.5-1.5-1-3-1.5-4.5c-0.2-0.7-0.6-1.4-0.9-2c-0.4-0.7-0.7-1.3-1-1.9c-0.9-1.5-0.5-3.5,1-4.5    c0,0,0,0,0.1,0c2-1.4,3.9-2.9,5.9-4.3s4-2.9,6-4.2c0.4-0.3,0.8-0.5,1.3-0.6c0.7-0.2,1.4,0,1.8,0.6c0,0.1,0.1,0.1,0.2,0.1    c0.3,0.4,0.5,0.9,0.7,1.3c0.9,2.4,1.8,4.9,2.5,7.3c0.6,2.3,1.1,4.6,1.4,6.9c0.2,1.4,0.3,2.8,0.3,4.3    C351.2,116.2,351.1,117.4,351,118.6L351,118.6z M369.4,119.2c-1.6,0.5-3.2,1.2-4.7,2c-1.6,0.8-3.2,1.6-5.1,2.5c0-1.1,0-2.1-0.1-3    c0-0.5,0-0.9,0-1.3s0-0.8,0-1.3c0-2.2-0.2-4.5-0.5-6.7c-0.6-4.4-1.7-8.6-3.5-12.6c-0.9-2.1-1.9-4-3.1-5.9c-0.5-0.6-0.8-1.4-1-2.2    c0-0.2,0-0.3,0-0.5c0.1-0.4,0.3-0.7,0.6-0.9c0.5-0.4,0.9-0.7,1.5-1c0.8-0.5,1.7-1,2.6-1.5c1.6-1.2,3.6-1.8,5.6-1.6    c1.7,0.3,3.3,1.1,4.5,2.4c1,1,1.9,2,2.8,3.2c0.4,0.5,0.8,1.1,1.1,1.7c0.6,1.2,1.1,2.5,1.5,3.8c0.2,0.7,0.3,1.3,0.4,2    c0.3,2.7,0.5,5.4,0.6,8.1c0.1,1.3,0.1,2.7,0.1,4.1l0.1,4C373.2,116.6,371.6,118.7,369.4,119.2L369.4,119.2z M397.2,107.1    c-0.3,2.1-0.9,4.1-1.9,5.9c-0.3,0.5-0.6,1-0.9,1.4c-0.6,0.9-1.5,1.5-2.5,1.9c-0.5,0.2-1.1,0.3-1.7,0.3c-0.7,0-1.5,0.1-2.2,0.1    c-1.4,0.1-2.8,0.1-4.2,0l-0.4-0.1c-0.8-0.1-1.6-0.4-2.2-0.8c-1.2-1-1.4-2.9-1.3-6.4c0.1-3.6-0.3-7.1-1.3-10.5    c-1-3.4-2.4-6.8-4.1-9.9c-1.2-2.2-2.6-4.4-4.1-6.6l3.6-0.2c3.5-0.2,6.5-0.4,9.6-0.7c0.5,0,1,0,1.5,0.1c1.3,0.3,2.5,0.9,3.5,1.8    l0.3,0.2c0.7,0.5,1.4,1.1,2,1.7c1.7,1.7,3.1,3.8,4.1,6c0.6,1.5,1.1,3,1.5,4.6c0.4,1.6,0.6,3.3,0.8,4.9v0.1    C397.5,103,397.5,105.1,397.2,107.1L397.2,107.1z M407.3,127.2c-0.1,0-0.3-0.1-0.4-0.1c-0.9-0.4-1.8-0.9-2.5-1.5    c-0.6-0.5-1.3-1.1-2-1.7l-2.1-1.9l0,0c1.7-3.3,3-6.8,3.9-10.4c0.2-0.9,0.3-1.7,0.4-2.6c0.2-1.7,0.3-3.3,0.3-5c0-1.7-0.2-3.4-0.6-5    c-0.2-0.8-0.4-1.6-0.6-2.4c-0.5-1.7-1.1-3.3-1.8-4.8c-0.4-0.8-0.8-1.6-1.2-2.4c-1.4-2.5-3-4.8-4.8-7c0.8-0.2,1.3-0.5,1.7-0.4    c4.6,1,7.7,1.5,9.8,2.3c0.8,0.3,1.5,0.7,2.1,1.1c0.1,0.1,0.2,0.1,0.2,0.2c2.3,1.9,3.4,5.4,5.7,13.5c1.3,4.4,1.5,9,0.7,13.5    c-0.9,4.4-2.7,8.6-5.3,12.3C409.6,126.7,408.5,127.5,407.3,127.2L407.3,127.2z M426.2,142.1c-4.5,4.3-5.4,4.4-8.9-0.6    c-0.5-0.8-1.1-1.6-1.7-2.4s-1.3-1.7-2-2.7l0,0c4.4-4.6,7.7-10.3,9.5-16.4c0.9-3.1,1.4-6.3,1.4-9.6c0-3.6-0.3-7.2-1.1-10.7l0,0    c0.8,0.9,1.4,1.5,1.9,2.1c0.6,0.7,1.2,1.4,1.8,2.1c1.6,2.4,3.1,5,4.7,7.4c1.7,2.7,2.8,5.7,3,8.9c0.2,3.2-0.4,6.3-1.5,9.3    c-0.2,0.6-0.4,1.1-0.6,1.7c-1,2.8-2.3,5.6-4,8.1C427.9,140.3,427.1,141.3,426.2,142.1L426.2,142.1z M435.3,165L435.3,165l-0.4-0.4    c-0.9-1-1.8-2.1-2.6-3.1c-0.4-0.5-0.8-1-1.1-1.5c-1.1-1.6-2.8-3.4-2.6-5c0.2-0.8,0.7-1.6,1.4-2.1c0.7-0.7,1.6-1.3,2.3-1.9    s1.2-1.1,1.8-1.7c1.2-1.2,2.2-2.4,3.3-3.7c2.6-3.2,4.4-7,5.3-11c0.1-0.6,0.4-1.1,0.6-1.7c0.3-0.6,0.6-1.1,0.8-1.7    c1.1,0.5,2.1,1.1,2.9,2l0,0c0.3,0.3,0.6,0.7,0.9,1.1c0.4,0.5,0.8,1,1.1,1.5l0.6,0.9c0.2,0.3,0.4,0.6,0.6,0.9    c0.1,0.1,0.1,0.2,0.2,0.4c0.7,1.4,1,3,0.7,4.5c-0.6,3.8-1.4,7.7-3.9,10.9c-3,3.9-5.9,7.8-8.9,11.6c-0.6,0.9-1.8,1.1-2.6,0.6    C435.6,165.3,435.4,165.2,435.3,165z M458.9,175c-3.9,3.3-5.7,4.3-7.9,3.5c-1.9-0.9-3.6-2.1-5.2-3.5c-0.1-0.1-0.3-0.2-0.4-0.4    c-0.3-0.4-0.5-0.8-0.7-1.2c-0.1-0.2-0.3-0.5-0.5-0.8c1.4-1.2,2.9-2.4,4.3-3.8c4.7-4.7,7.9-10.7,9.3-17.2c0.1-0.7,0.3-1.4,0.3-2.1    c0-0.7,0.1-1.5,0-2.2c-0.1-2-0.1-3,0.3-3.3s1.5,0,3.4,0.6l1.4,0.5c0.6,0.2,1.1,0.4,1.6,0.6c1.1,0.5,2.1,1.2,2.9,2.1    c0.2,0.3,0.4,0.5,0.6,0.8c0.6,1,0.9,2.2,0.9,3.4c0,0.5,0,1.1-0.1,1.6c-0.3,2-0.7,4-1.2,6c-1,3.9-2.6,7.5-4.9,10.8    C461.9,172.2,460.5,173.7,458.9,175L458.9,175z M483,179.3c-0.8,0.6-1.6,1.2-2.5,1.8c-2.6,1.6-5.4,2.9-8.3,4.1    c-0.4,0.1-0.7,0.2-1.1,0.2c-1.3,0-2.6-0.2-3.9-0.6c-0.5-0.1-0.9-0.4-1-0.9c-0.1-0.5,0-1,0.4-1.4c1.4-1.7,2.8-3.4,4.1-5.1    c0.7-0.8,1.3-1.7,1.8-2.6c1.6-2.5,2.8-5.3,3.5-8.2c0.4-1.9,0.7-3.9,0.7-5.9c0-2.1-0.1-4.1-0.5-6.1c-0.2-1.4-0.6-2.9-0.9-4.3l0,0    c-0.3-0.8,0.1-1.8,0.9-2.2c0.3-0.1,0.7-0.2,1-0.2l1.8-0.1l4.9-0.3l2.3-0.1c0.7,0,1.3,0,1.9,0c1.1,0,2.1,0.1,3.2,0.3    c0.3,0.1,0.5,0.2,0.8,0.4c0.6,0.6,0.8,1.8,1.2,4.2C495.1,163.2,491.5,172.3,483,179.3z M514.4,160.5c-0.3,4-1.8,7.8-4.4,10.9    c-1.1,1.3-2.3,2.5-3.6,3.7c-0.8,0.6-1.6,1.2-2.4,1.6c-1,0.7-2.1,1.3-3.1,2c-0.7,0.5-1.3,1.1-3,2.4c1.5-4.4,2.5-7.3,3.5-10.3    c0.7-2.3,1.2-4.6,1.5-7c0.2-1.6,0.2-3.1,0.1-4.7c-0.1-2.4-0.6-4.8-1.3-7.1c-0.2-0.6-0.4-1.2-0.6-1.8s-0.4-1.2-0.5-1.8    c-0.1-0.3-0.1-0.6-0.2-0.9c0-0.2-0.1-0.5-0.1-0.8c0-0.2,0-0.4,0.1-0.6c0.2-1,1.1-1.5,2.8-2c0.7-0.1,1.4-0.3,2.1-0.5    c1.1-0.5,2.3-0.9,3.6-1c3-0.2,4.4,1.9,5,6.2c0.1,1,0.3,1.9,0.4,2.9c0.2,1.9,0.4,3.9,0.4,5.8C514.5,158.6,514.5,159.6,514.4,160.5z     M538.8,152.4c0,0.6,0,1.2-0.1,1.8c0,0.8-0.1,1.6-0.2,2.4c-0.3,2.4-0.7,4.7-1.2,7.1c-0.6,3-2,5.4-5.2,6.5c-2.8,1-5.4,2.3-8.1,3.4    c-1.3,0.5-2.3,0-2.6-1c-0.1-0.4-0.1-0.8,0-1.2c0.4-1.4,0.9-2.8,1.4-4.2c0.3-0.8,0.5-1.5,0.6-2.3c0.9-4.6-0.2-9-1.4-13.5    c-0.2-0.7-0.4-1.5-0.6-2.2c-0.5-1.6-1.2-3.2-1.9-4.8c-0.6-1.1-0.9-2.2-1.1-3.4c0-0.4,0.2-0.8,0.6-1c1.2-0.5,2.5-0.7,3.7-0.8    c2.7-0.4,5.3-0.9,7.9-1.4c1-0.1,1.9,0.2,2.8,0.6c0.8,0.5,1.6,1.1,2.3,1.9c1.4,1.4,2.3,3,2.8,4.9c0.1,0.6,0.3,1.2,0.3,1.8    c0.1,0.6,0.1,1.2,0.1,1.8C538.9,150,538.8,151.2,538.8,152.4L538.8,152.4z M555.3,165.4c-1.9,0.3-3.9,0.6-5.8,0.9    c-0.8,0.2-1.6,0.1-2.3-0.1c-0.5-0.3-0.9-0.8-0.8-1.4c0-0.6,0.1-1.2,0.3-1.8c2.2-7.7,0.9-15.9-3.6-22.5l-0.2-0.3    c-0.4-0.5-0.6-1.1-0.6-1.7c0.1-0.5,0.3-0.9,0.5-1.3c0.1-0.2,0.2-0.4,0.4-0.5c0.1-0.1,0.3-0.2,0.4-0.3c1.9-0.2,3.9-0.4,5.9-0.4    c1.1-0.1,2.3-0.3,3.4-0.4c0.3,0,0.5,0,0.8,0.1c0.8,0.1,1.5,0.5,2.1,1.1c0.4,0.5,0.8,1.1,1.1,1.6c0.6,0.9,1,1.9,1.4,2.9    c0.6,1.5,1,3.1,1.1,4.8c0,0.7,0.1,1.5,0.1,2.2c0,1.5-0.1,3,0,4.4h-0.1c0.2,2.4,0.6,4.9,0.6,7.3C560.1,163.7,558.8,165,555.3,165.4    L555.3,165.4z M576,166.4c-0.1,0.2-0.2,0.3-0.3,0.5c-0.4,0.3-0.8,0.6-1.3,0.8c-0.2,0.1-0.4,0.1-0.6,0.1c-0.8-0.1-1.7-0.2-2.5-0.5    c-0.8-0.2-1.7-0.5-2.5-0.7c-0.6-0.1-1.1-0.5-1.5-1c-0.1-0.2-0.2-0.5-0.2-0.8c0-0.3,0-0.7,0-1c0.3-2.7,0.7-5.3,1.3-7.9    c0.3-1.3,0.6-2.6,0.6-3.9c0.1-1.9-0.1-3.7-0.6-5.6c-0.5-1.9-1.3-3.6-2.2-5.3c-0.1-0.1-0.1-0.3-0.1-0.4c0-0.3,0-0.7,0.2-1    c0-0.2,0.1-0.3,0.2-0.5s0.1-0.1,0.2-0.1c0.4-0.1,0.7-0.1,1.1,0c2.2,1.1,4.3,2.2,6.5,3.3c0.4,0.2,0.9,0.5,1.2,0.8    c1.1,1,1.7,2.4,1.7,3.8c0.1,1.1,0.3,2.2,0.6,3.3c0.3,1.1,0.6,2.3,0.8,3.6C577.8,157.9,577,162.2,576,166.4L576,166.4z     M594.9,168.9c-0.4,2.2-1.1,4.4-2.1,6.4c-0.4,0.1-0.7,0.1-1,0.2c-0.2,0.1-0.4,0.1-0.6,0c-0.6-0.3-1.2-0.6-1.9-0.8    c-1.9-0.8-3.9-1.6-5-3c-0.5-0.8-0.7-1.8-0.3-2.7c0.4-1,0.8-1.9,1.4-2.8c0.3-0.6,0.6-1.2,0.9-1.8c1.4-4,0.9-8.1,1.3-13.1    c0.8,0.5,1.6,1.1,2.3,1.7c1.3,1,2.4,2.1,3.4,3.4c0.5,0.6,0.9,1.2,1.3,1.8c0.4,0.6,0.8,1.3,1,2c0.2,0.7,0.3,1.4,0.3,2.1    C595.6,164.4,595.3,166.6,594.9,168.9L594.9,168.9z M612.2,178.9c-0.1,1.1,0,2.2,0,3.3c0,0.4-0.1,0.7-0.1,1.1    c-0.3,1.6-0.7,3.7-1.8,4.5c-0.2,0.1-0.4,0.2-0.6,0.3c-0.8,0.2-1.5-0.3-2.1-0.9c-0.3-0.3-0.6-0.7-0.9-1l0,0    c-0.1-0.1-0.3-0.3-0.4-0.4l-2.8-2.3l-4.1-3.3l4-9l1.4-3.2l0,0c2,1.1,3.9,2.6,5.5,4.2c0.4,0.4,0.7,0.9,1,1.3c0.6,1,0.9,2.1,1,3.3    C612.3,177.5,612.3,178.1,612.2,178.9L612.2,178.9z M645.8,198.3c-0.3,0.2-0.6,0.3-0.9,0.3c-1.8-0.3-3.6-0.6-5.4-0.9    c-3.9-0.5-7.8-1.4-11.6-2.5c-0.5-0.2-1-0.3-1.5-0.5c-0.6-0.2-1.2-0.4-1.9-0.6c-0.6-0.2-1.3-0.3-2-0.5c-1.3-0.3-2.6-0.5-3.9-0.9    c-0.3-0.1-0.5-0.2-0.8-0.2c-0.9-0.4-1.3-0.8-1.4-1.5c0-0.7,0.1-1.4,0.4-2.1c0.9-2.5,1.9-5,2.8-7.4l6.7,4.7    c2.2,1.5,4.4,3.1,6.6,4.5c1.9,1.3,3.9,2.5,6,3.5c2.1,1,4.3,1.7,6.7,2c0.3,0,0.6,0.6,0.9,1.1c0.1,0.2,0.2,0.3,0.3,0.4    C646.4,197.8,646.1,198,645.8,198.3L645.8,198.3z"/>
		<path class="st1" d="M331.7,220.3c-0.2,0.3-0.2,0.7,0.2,0.8c0.2,0,0.4,0,0.5,0c0.6,0,1.2-0.1,1.8-0.2c1.3-0.2,4.2-0.4,2-1.5    C334.6,218.8,332.9,219.1,331.7,220.3z"/>
		<path class="st1" d="M334.5,223.6c-0.2,0.1-0.3,0.3-0.3,0.5c0,0.4,0.1,0.7,0.4,0.9c0.4,0.3,0.9,0.4,1.3,0.3    c0.5-0.1,0.9-0.2,1.3-0.4l1-0.5c0.4-0.2,1.2-0.6,1.4-1.1c0.1-0.5-0.2-0.9-0.6-1.1c-0.1,0-0.1,0-0.2,0c-0.9,0-1.8,0.2-2.5,0.6    c-0.4,0.2-0.8,0.4-1.2,0.6C334.9,223.5,334.7,223.5,334.5,223.6z"/>
		<path class="st1" d="M330.5,219.7c-0.2-0.3-0.5-0.5-0.8-0.8c-0.5-0.3-1.1-0.3-1.5-0.1c-0.3,0.3-0.6,0.6-0.7,1.1    c-0.1,0.2-0.1,0.5-0.2,0.8c-0.1,0.2-0.1,0.5,0,0.7c0.1,0.2,0.3,0.4,0.6,0.4c0,0,0.1,0,0.1,0c0,0,0-0.1,0-0.1    c0.1-0.3,0.1-0.5,0.1-0.8c0-0.3,0.2-0.5,0.4-0.7c0.2-0.2,0.5-0.2,0.7,0c0.1,0.1,0.1,0.3,0.2,0.4c0.1,0.2,0.2,0.4,0.3,0.6    c0.2,0.4,0.8,0.7,1,0.2C331,220.8,330.9,220.2,330.5,219.7z"/>
		<path class="st1" d="M324.5,223.1c0.1,0.3,0.2,0.5,0.3,0.7c0.2,0.3,0.5,0.5,0.8,0.6c0.5,0.3,1.1,0.6,1.6,0.8    c0.5,0.2,1,0.4,1.5,0.5c0.5,0.1,1.1,0,1.6-0.2c0.2-0.1,0.5-0.2,0.6,0c0,0.1,0.1,0.1,0.1,0.2c0,0.3-0.1,0.5-0.3,0.7    c-0.2,0.2-0.5,0.3-0.7,0.4c-0.4,0.1-0.8,0.2-1.1,0.3c-0.3,0.1-0.6,0.2-0.9,0.2c-0.8-0.1-1.6-0.3-2.3-0.7c-0.7-0.3-1.3-0.8-1.8-1.3    c-0.4-0.5-0.8-1-1.1-1.5c-0.3-0.4-0.5-0.9-0.6-1.4c-0.1-0.6,0.4-2,1.1-1.8c0.4,0.1,0.5,0.7,0.6,1L324.5,223.1z"/>
	</g>
</g>
</svg>