<?xml version="1.0" encoding="UTF-8"?>
<svg version="1.1" xmlns="http://www.w3.org/2000/svg" width="1200" height="1200">
<path d="M0 0 C8.229375 -0.0825 16.45875 -0.165 24.9375 -0.25 C28.80843384 -0.30462402 28.80843384 -0.30462402 32.75756836 -0.36035156 C34.82665172 -0.37204532 36.89574435 -0.38223551 38.96484375 -0.390625 C40.01998169 -0.41108887 41.07511963 -0.43155273 42.16223145 -0.45263672 C49.94638662 -0.4562746 56.1172843 0.92673181 62.3046875 5.82421875 C68.62981344 13.32940549 70.62620339 20.25814257 70.3515625 30.0703125 C69.28658671 38.94511073 64.14217538 44.91123484 58 51 C58.45890625 51.9178125 58.9178125 52.835625 59.390625 53.78125 C64.1953125 63.390625 64.1953125 63.390625 69 73 C71.7657576 65.84481677 74.53063422 58.68929361 77.29445839 51.53336334 C78.57854172 48.20876841 79.86290179 44.88428101 81.14794922 41.56005859 C86.49412739 27.72976042 91.83225292 13.8982413 97 0 C106.57 0 116.14 0 126 0 C135.70660886 25.31833841 145.40411897 50.63945727 155 76 C145.76 76 136.52 76 127 76 C122 65 122 65 122 62 C115.07 62 108.14 62 101 62 C100.67 63.98 100.34 65.96 100 68 C98.68 70.64 97.36 73.28 96 76 C77.85 76 59.7 76 41 76 C38.36 70.06 35.72 64.12 33 58 C30.69 57.01 28.38 56.02 26 55 C26 61.93 26 68.86 26 76 C17.42 76 8.84 76 0 76 C0 50.92 0 25.84 0 0 Z M26 20 C26 24.95 26 29.9 26 35 C31.49053506 35.16637985 35.87959667 35.24798195 41 33 C43.36410488 31.06268472 43.36410488 31.06268472 43.3125 27.5625 C43.29779851 24.12178535 43.29779851 24.12178535 41.75 22.125 C38.27602517 19.89173046 34.79411296 19.88428799 30.75 19.9375 C28.39875 19.9684375 28.39875 19.9684375 26 20 Z M111 27 C108.03 34.92 108.03 34.92 105 43 C109.29 43 113.58 43 118 43 C116.02 37.72 114.04 32.44 112 27 C111.67 27 111.34 27 111 27 Z " fill="#343434" transform="translate(348,574)"/>
<path d="M0 0 C9.24 0 18.48 0 28 0 C33.62786115 13.50686677 33.62786115 13.50686677 35.55541992 18.48364258 C35.98904343 19.60132523 36.42266693 20.71900787 36.86943054 21.87055969 C37.54314445 23.61492561 37.54314445 23.61492561 38.23046875 25.39453125 C38.71172825 26.63858382 39.19303728 27.88261723 39.6743927 29.12663269 C40.672962 31.70858468 41.67025994 34.29102342 42.66674805 36.8737793 C43.93777397 40.16750105 45.21308809 43.45954442 46.48946667 46.75119495 C47.71840222 49.92290574 48.94291237 53.09632016 50.16796875 56.26953125 C50.62318405 57.44256302 51.07839935 58.61559479 51.54740906 59.82417297 C51.97157608 60.92609482 52.3957431 62.02801666 52.83276367 63.16333008 C53.20406906 64.12419022 53.57537445 65.08505035 53.95793152 66.07502747 C55.11920072 69.33458342 56.04939935 72.67289772 57 76 C47.76 76 38.52 76 29 76 C24 64 24 64 24 62 C17.4 62 10.8 62 4 62 C3.01 64.97 2.02 67.94 1 71 C0.34 72.65 -0.32 74.3 -1 76 C-10.24 76 -19.48 76 -29 76 C-24.40994608 62.67794376 -19.58893534 49.48396212 -14.48339844 36.3515625 C-13.36543079 33.47538143 -12.25267414 30.59722395 -11.140625 27.71875 C-10.41436252 25.84363377 -9.68781043 23.96862968 -8.9609375 22.09375 C-8.63684906 21.25598022 -8.31276062 20.41821045 -7.97885132 19.55505371 C-5.42251473 12.9870167 -2.7131247 6.51149929 0 0 Z M13 28 C12.16260219 30.1234016 11.33019717 32.2487728 10.5 34.375 C10.0359375 35.55835938 9.571875 36.74171875 9.09375 37.9609375 C7.88712206 40.7753244 7.88712206 40.7753244 8 43 C11.96 43 15.92 43 20 43 C19.23239022 39.16195111 18.40495674 36.23779856 16.9375 32.6875 C16.57527344 31.80449219 16.21304688 30.92148437 15.83984375 30.01171875 C15.56269531 29.34785156 15.28554688 28.68398438 15 28 C14.34 28 13.68 28 13 28 Z " fill="#343434" transform="translate(672,574)"/>
<path d="M0 0 C19.8 0 39.6 0 60 0 C60 6.27 60 12.54 60 19 C48.78 19 37.56 19 26 19 C26 22.3 26 25.6 26 29 C35.57 29 45.14 29 55 29 C55 35.27 55 41.54 55 48 C45.43 48 35.86 48 26 48 C26 57.24 26 66.48 26 76 C17.42 76 8.84 76 0 76 C0 50.92 0 25.84 0 0 Z " fill="#353535" transform="translate(509,574)"/>
<path d="M0 0 C8.91 0 17.82 0 27 0 C27 18.81 27 37.62 27 57 C37.56 57 48.12 57 59 57 C59 63.27 59 69.54 59 76 C39.53 76 20.06 76 0 76 C0 50.92 0 25.84 0 0 Z " fill="#353535" transform="translate(735,574)"/>
<path d="M0 0 C8.91 0 17.82 0 27 0 C27 25.08 27 50.16 27 76 C18.09 76 9.18 76 0 76 C0 50.92 0 25.84 0 0 Z " fill="#353535" transform="translate(798,574)"/>
<path d="M0 0 C8.58 0 17.16 0 26 0 C26 25.08 26 50.16 26 76 C17.42 76 8.84 76 0 76 C0 50.92 0 25.84 0 0 Z " fill="#353535" transform="translate(573,574)"/>
<path d="M0 0 C7.92 0 15.84 0 24 0 C24 6.93 24 13.86 24 21 C16.08 21 8.16 21 0 21 C0 14.07 0 7.14 0 0 Z " fill="#F2BD1B" transform="translate(874,629)"/>
</svg>
